<svg width="342" height="106" viewBox="0 0 342 106" fill="none" xmlns="http://www.w3.org/2000/svg">
<path d="M0 84.5508V0H13.125V73.1836H52.5586V84.5508H0Z" fill="#676B78"/>
<path d="M85.9289 85.7812C79.9133 85.7812 74.718 84.4922 70.343 81.9141C66.007 79.2969 62.6672 75.6055 60.3234 70.8398C58.0187 66.0352 56.8664 60.3906 56.8664 53.9062V53.8477C56.8664 47.4414 58.0383 41.8359 60.382 37.0312C62.7258 32.1875 66.0266 28.4375 70.2844 25.7812C74.5422 23.0859 79.5422 21.7383 85.2844 21.7383C91.0656 21.7383 96.0266 23.0273 100.167 25.6055C104.347 28.1445 107.57 31.7578 109.835 36.4453C112.101 41.0938 113.234 46.5039 113.234 52.6758V56.9531H63.1359V47.9883H107.081L100.812 56.3672V51.4453C100.812 47.1094 100.148 43.5156 98.8195 40.6641C97.5305 37.7734 95.7141 35.625 93.3703 34.2188C91.0656 32.8125 88.3898 32.1094 85.343 32.1094C82.3352 32.1094 79.6398 32.8516 77.257 34.3359C74.8742 35.8203 72.9992 38.0078 71.632 40.8984C70.2648 43.75 69.5813 47.2656 69.5813 51.4453V56.3672C69.5813 60.3516 70.2453 63.7695 71.5734 66.6211C72.9406 69.4336 74.8742 71.6016 77.3742 73.125C79.8742 74.6094 82.8234 75.3516 86.2219 75.3516C88.7219 75.3516 90.9289 74.9805 92.843 74.2383C94.757 73.457 96.3391 72.4414 97.5891 71.1914C98.8781 69.9023 99.7766 68.4766 100.284 66.9141L100.46 66.4453H112.53L112.413 67.0898C111.905 69.5117 110.948 71.8359 109.542 74.0625C108.136 76.2891 106.3 78.3008 104.034 80.0977C101.808 81.8555 99.1711 83.2422 96.1242 84.2578C93.0773 85.2734 89.6789 85.7812 85.9289 85.7812Z" fill="#676B78"/>
<path d="M143.498 85.7812C137.405 85.7812 132.854 84.4141 129.846 81.6797C126.877 78.9062 125.393 74.4336 125.393 68.2617V32.9883H116.545V22.9102H125.393V6.85547H138.401V22.9102H149.944V32.9883H138.401V67.5586C138.401 70.6836 139.084 72.832 140.452 74.0039C141.819 75.1367 143.85 75.7031 146.545 75.7031C147.209 75.7031 147.815 75.6836 148.362 75.6445C148.948 75.5664 149.475 75.5078 149.944 75.4688V85.2539C149.202 85.3711 148.264 85.4883 147.131 85.6055C145.998 85.7227 144.788 85.7812 143.498 85.7812Z" fill="#676B78"/>
<path d="M156.185 30L161.048 0H173.705L165.15 30H156.185Z" fill="#676B78"/>
<path d="M198.227 85.7812C193.071 85.7812 188.637 85 184.927 83.4375C181.255 81.8359 178.364 79.6289 176.255 76.8164C174.145 73.9648 172.876 70.6641 172.446 66.9141L172.387 66.3867H184.927L185.044 66.9727C185.669 69.7852 187.055 71.9922 189.204 73.5938C191.352 75.1562 194.36 75.9375 198.227 75.9375C200.805 75.9375 202.993 75.625 204.79 75C206.587 74.3359 207.973 73.3984 208.95 72.1875C209.927 70.9766 210.415 69.5312 210.415 67.8516V67.793C210.415 65.8008 209.77 64.1992 208.481 62.9883C207.192 61.7773 204.887 60.7617 201.567 59.9414L191.489 57.6562C187.583 56.7578 184.321 55.5273 181.704 53.9648C179.126 52.4023 177.192 50.4883 175.903 48.2227C174.614 45.957 173.97 43.3398 173.97 40.3711V40.3125C173.97 36.6016 174.966 33.3594 176.958 30.5859C178.95 27.7734 181.743 25.6055 185.337 24.082C188.93 22.5195 193.091 21.7383 197.817 21.7383C202.661 21.7383 206.841 22.5586 210.356 24.1992C213.872 25.8398 216.606 28.0859 218.559 30.9375C220.552 33.75 221.645 36.8945 221.841 40.3711V41.0742H209.946L209.887 40.6641C209.536 37.9688 208.325 35.7812 206.255 34.1016C204.184 32.3828 201.372 31.5234 197.817 31.5234C195.552 31.5234 193.579 31.8555 191.899 32.5195C190.22 33.1836 188.93 34.1406 188.032 35.3906C187.134 36.6016 186.684 38.0273 186.684 39.668V39.7266C186.684 40.9766 186.977 42.1094 187.563 43.125C188.188 44.1406 189.184 45.0195 190.552 45.7617C191.919 46.5039 193.677 47.1289 195.825 47.6367L205.903 49.9805C212.192 51.4258 216.645 53.4766 219.262 56.1328C221.919 58.75 223.247 62.2852 223.247 66.7383V66.7969C223.247 70.5469 222.173 73.8477 220.024 76.6992C217.876 79.5508 214.907 81.7773 211.118 83.3789C207.368 84.9805 203.071 85.7812 198.227 85.7812Z" fill="#676B78"/>
<path d="M256.472 84.5508V0H271.648L299.011 67.4414H299.362L326.726 0H341.96V84.5508H329.948V22.207H323.913L337.624 2.34375L304.05 84.5508H294.323L260.808 2.34375L274.519 22.207H268.484V84.5508H256.472Z" fill="#676B78"/>
<path d="M371.346 85.6641C367.245 85.6641 363.651 84.8828 360.565 83.3203C357.479 81.7578 355.077 79.5703 353.358 76.7578C351.639 73.9453 350.78 70.7031 350.78 67.0312V66.9141C350.78 63.3203 351.678 60.2344 353.475 57.6562C355.272 55.0391 357.87 52.9688 361.268 51.4453C364.705 49.9219 368.846 49.0234 373.69 48.75L397.01 47.3438V56.25L375.389 57.5977C371.6 57.832 368.67 58.75 366.6 60.3516C364.569 61.9141 363.553 64.0039 363.553 66.6211V66.7383C363.553 69.4336 364.569 71.5625 366.6 73.125C368.67 74.6875 371.405 75.4688 374.803 75.4688C377.772 75.4688 380.428 74.8633 382.772 73.6523C385.155 72.4414 387.03 70.7812 388.397 68.6719C389.764 66.5234 390.448 64.1211 390.448 61.4648V43.125C390.448 39.7266 389.393 37.0703 387.284 35.1562C385.174 33.2031 382.147 32.2266 378.202 32.2266C374.569 32.2266 371.639 33.0078 369.413 34.5703C367.225 36.1328 365.858 38.1445 365.311 40.6055L365.194 41.1328H353.241L353.299 40.4883C353.612 36.9336 354.803 33.75 356.873 30.9375C358.944 28.0859 361.815 25.8398 365.487 24.1992C369.159 22.5586 373.514 21.7383 378.553 21.7383C383.592 21.7383 387.948 22.5781 391.62 24.2578C395.291 25.9375 398.143 28.3008 400.174 31.3477C402.205 34.3945 403.221 37.9688 403.221 42.0703V84.5508H390.448V74.8242H390.213C389.002 77.0508 387.44 78.9844 385.526 80.625C383.612 82.2266 381.444 83.4766 379.022 84.375C376.639 85.2344 374.08 85.6641 371.346 85.6641Z" fill="#676B78"/>
<path d="M414.97 84.5508V0H427.685V84.5508H414.97ZM453.818 84.5508L432.021 55.957L440.283 46.875L468.525 84.5508H453.818ZM425.459 64.5703V49.1602H427.978L452.646 22.9102H467.587L438.701 53.2617H436.767L425.459 64.5703Z" fill="#676B78"/>
<path d="M497.032 85.7812C491.016 85.7812 485.821 84.4922 481.446 81.9141C477.11 79.2969 473.77 75.6055 471.427 70.8398C469.122 66.0352 467.97 60.3906 467.97 53.9062V53.8477C467.97 47.4414 469.141 41.8359 471.485 37.0312C473.829 32.1875 477.13 28.4375 481.388 25.7812C485.645 23.0859 490.645 21.7383 496.388 21.7383C502.169 21.7383 507.13 23.0273 511.27 25.6055C515.45 28.1445 518.673 31.7578 520.938 36.4453C523.204 41.0938 524.337 46.5039 524.337 52.6758V56.9531H474.239V47.9883H518.184L511.915 56.3672V51.4453C511.915 47.1094 511.251 43.5156 509.923 40.6641C508.634 37.7734 506.817 35.625 504.473 34.2188C502.169 32.8125 499.493 32.1094 496.446 32.1094C493.438 32.1094 490.743 32.8516 488.36 34.3359C485.977 35.8203 484.102 38.0078 482.735 40.8984C481.368 43.75 480.684 47.2656 480.684 51.4453V56.3672C480.684 60.3516 481.348 63.7695 482.677 66.6211C484.044 69.4336 485.977 71.6016 488.477 73.125C490.977 74.6094 493.927 75.3516 497.325 75.3516C499.825 75.3516 502.032 74.9805 503.946 74.2383C505.86 73.457 507.442 72.4414 508.692 71.1914C509.981 69.9023 510.88 68.4766 511.388 66.9141L511.563 66.4453H523.634L523.516 67.0898C523.009 69.5117 522.052 71.8359 520.645 74.0625C519.239 76.2891 517.403 78.3008 515.138 80.0977C512.911 81.8555 510.274 83.2422 507.227 84.2578C504.18 85.2734 500.782 85.7812 497.032 85.7812Z" fill="#676B78"/>
<path d="M557.503 84.5508V0H570.628V84.5508H557.503Z" fill="#676B78"/>
<path d="M605.17 85.7812C599.077 85.7812 594.526 84.4141 591.518 81.6797C588.549 78.9062 587.065 74.4336 587.065 68.2617V32.9883H578.217V22.9102H587.065V6.85547H600.073V22.9102H611.616V32.9883H600.073V67.5586C600.073 70.6836 600.756 72.832 602.123 74.0039C603.491 75.1367 605.522 75.7031 608.217 75.7031C608.881 75.7031 609.487 75.6836 610.034 75.6445C610.62 75.5664 611.147 75.5078 611.616 75.4688V85.2539C610.873 85.3711 609.936 85.4883 608.803 85.6055C607.67 85.7227 606.459 85.7812 605.17 85.7812Z" fill="#676B78"/>
<path d="M645.427 84.5508V0H658.552V35.7422H701.911V0H715.095V84.5508H701.911V47.1094H658.552V84.5508H645.427Z" fill="#676B78"/>
<path d="M744.48 85.6641C740.379 85.6641 736.785 84.8828 733.699 83.3203C730.613 81.7578 728.211 79.5703 726.492 76.7578C724.773 73.9453 723.914 70.7031 723.914 67.0312V66.9141C723.914 63.3203 724.812 60.2344 726.609 57.6562C728.406 55.0391 731.004 52.9688 734.402 51.4453C737.84 49.9219 741.98 49.0234 746.824 48.75L770.145 47.3438V56.25L748.523 57.5977C744.734 57.832 741.805 58.75 739.734 60.3516C737.703 61.9141 736.688 64.0039 736.688 66.6211V66.7383C736.688 69.4336 737.703 71.5625 739.734 73.125C741.805 74.6875 744.539 75.4688 747.938 75.4688C750.906 75.4688 753.562 74.8633 755.906 73.6523C758.289 72.4414 760.164 70.7812 761.531 68.6719C762.898 66.5234 763.582 64.1211 763.582 61.4648V43.125C763.582 39.7266 762.527 37.0703 760.418 35.1562C758.309 33.2031 755.281 32.2266 751.336 32.2266C747.703 32.2266 744.773 33.0078 742.547 34.5703C740.359 36.1328 738.992 38.1445 738.445 40.6055L738.328 41.1328H726.375L726.434 40.4883C726.746 36.9336 727.938 33.75 730.008 30.9375C732.078 28.0859 734.949 25.8398 738.621 24.1992C742.293 22.5586 746.648 21.7383 751.688 21.7383C756.727 21.7383 761.082 22.5781 764.754 24.2578C768.426 25.9375 771.277 28.3008 773.309 31.3477C775.34 34.3945 776.355 37.9688 776.355 42.0703V84.5508H763.582V74.8242H763.348C762.137 77.0508 760.574 78.9844 758.66 80.625C756.746 82.2266 754.578 83.4766 752.156 84.375C749.773 85.2344 747.215 85.6641 744.48 85.6641Z" fill="#676B78"/>
<path d="M787.343 105.059V22.9102H800.116V33.457H800.409C801.62 31.0352 803.163 28.9453 805.038 27.1875C806.952 25.4297 809.14 24.082 811.601 23.1445C814.062 22.207 816.757 21.7383 819.687 21.7383C824.921 21.7383 829.472 23.0469 833.339 25.6641C837.206 28.2422 840.195 31.9336 842.304 36.7383C844.413 41.5039 845.468 47.168 845.468 53.7305V53.7891C845.468 60.3516 844.394 66.0156 842.245 70.7812C840.136 75.5469 837.167 79.2383 833.339 81.8555C829.511 84.4727 825.019 85.7812 819.862 85.7812C816.972 85.7812 814.257 85.3125 811.718 84.375C809.218 83.4375 807.011 82.1094 805.097 80.3906C803.183 78.6328 801.601 76.5625 800.351 74.1797H800.116V105.059H787.343ZM816.347 74.8242C819.667 74.8242 822.538 73.9844 824.96 72.3047C827.382 70.5859 829.237 68.1445 830.527 64.9805C831.816 61.8164 832.46 58.0859 832.46 53.7891V53.7305C832.46 49.3555 831.816 45.5859 830.527 42.4219C829.237 39.2578 827.382 36.8359 824.96 35.1562C822.538 33.4766 819.667 32.6367 816.347 32.6367C813.144 32.6367 810.312 33.5156 807.851 35.2734C805.39 36.9922 803.456 39.4336 802.05 42.5977C800.683 45.7227 799.999 49.4336 799.999 53.7305V53.7891C799.999 58.0469 800.702 61.7578 802.109 64.9219C803.515 68.0469 805.429 70.4883 807.851 72.2461C810.312 73.9648 813.144 74.8242 816.347 74.8242Z" fill="#676B78"/>
<path d="M853.995 105.059V22.9102H866.768V33.457H867.061C868.272 31.0352 869.815 28.9453 871.69 27.1875C873.604 25.4297 875.791 24.082 878.252 23.1445C880.713 22.207 883.409 21.7383 886.338 21.7383C891.573 21.7383 896.123 23.0469 899.991 25.6641C903.858 28.2422 906.846 31.9336 908.955 36.7383C911.065 41.5039 912.12 47.168 912.12 53.7305V53.7891C912.12 60.3516 911.045 66.0156 908.897 70.7812C906.787 75.5469 903.819 79.2383 899.991 81.8555C896.162 84.4727 891.67 85.7812 886.514 85.7812C883.623 85.7812 880.909 85.3125 878.37 84.375C875.87 83.4375 873.662 82.1094 871.748 80.3906C869.834 78.6328 868.252 76.5625 867.002 74.1797H866.768V105.059H853.995ZM882.998 74.8242C886.319 74.8242 889.19 73.9844 891.612 72.3047C894.034 70.5859 895.889 68.1445 897.178 64.9805C898.467 61.8164 899.112 58.0859 899.112 53.7891V53.7305C899.112 49.3555 898.467 45.5859 897.178 42.4219C895.889 39.2578 894.034 36.8359 891.612 35.1562C889.19 33.4766 886.319 32.6367 882.998 32.6367C879.795 32.6367 876.963 33.5156 874.502 35.2734C872.041 36.9922 870.108 39.4336 868.702 42.5977C867.334 45.7227 866.651 49.4336 866.651 53.7305V53.7891C866.651 58.0469 867.354 61.7578 868.76 64.9219C870.166 68.0469 872.08 70.4883 874.502 72.2461C876.963 73.9648 879.795 74.8242 882.998 74.8242Z" fill="#676B78"/>
<path d="M947.013 85.7812C940.998 85.7812 935.802 84.4922 931.427 81.9141C927.091 79.2969 923.752 75.6055 921.408 70.8398C919.103 66.0352 917.951 60.3906 917.951 53.9062V53.8477C917.951 47.4414 919.123 41.8359 921.466 37.0312C923.81 32.1875 927.111 28.4375 931.369 25.7812C935.627 23.0859 940.627 21.7383 946.369 21.7383C952.15 21.7383 957.111 23.0273 961.252 25.6055C965.431 28.1445 968.654 31.7578 970.92 36.4453C973.185 41.0938 974.318 46.5039 974.318 52.6758V56.9531H924.22V47.9883H968.166L961.896 56.3672V51.4453C961.896 47.1094 961.232 43.5156 959.904 40.6641C958.615 37.7734 956.798 35.625 954.455 34.2188C952.15 32.8125 949.474 32.1094 946.427 32.1094C943.42 32.1094 940.724 32.8516 938.341 34.3359C935.959 35.8203 934.084 38.0078 932.716 40.8984C931.349 43.75 930.666 47.2656 930.666 51.4453V56.3672C930.666 60.3516 931.33 63.7695 932.658 66.6211C934.025 69.4336 935.959 71.6016 938.459 73.125C940.959 74.6094 943.908 75.3516 947.306 75.3516C949.806 75.3516 952.013 74.9805 953.927 74.2383C955.841 73.457 957.423 72.4414 958.673 71.1914C959.963 69.9023 960.861 68.4766 961.369 66.9141L961.545 66.4453H973.615L973.498 67.0898C972.99 69.5117 972.033 71.8359 970.627 74.0625C969.22 76.2891 967.384 78.3008 965.119 80.0977C962.892 81.8555 960.255 83.2422 957.209 84.2578C954.162 85.2734 950.763 85.7812 947.013 85.7812Z" fill="#676B78"/>
<path d="M982.845 84.5508V22.9102H995.618V32.2266H995.852C997.493 29.1016 999.895 26.582 1003.06 24.668C1006.22 22.7148 1010.13 21.7383 1014.78 21.7383C1021.54 21.7383 1026.77 23.7891 1030.48 27.8906C1034.19 31.9531 1036.05 37.5391 1036.05 44.6484V84.5508H1023.33V47.1094C1023.33 42.4609 1022.24 38.8867 1020.05 36.3867C1017.9 33.8867 1014.64 32.6367 1010.27 32.6367C1007.3 32.6367 1004.7 33.3008 1002.47 34.6289C1000.29 35.957 998.587 37.8125 997.376 40.1953C996.204 42.5781 995.618 45.3906 995.618 48.6328V84.5508H982.845Z" fill="#676B78"/>
</svg>
