<svg width="1030" height="105" viewBox="0 0 1030 105" fill="none" xmlns="http://www.w3.org/2000/svg">
<path d="M0 84.0572V0H13.0484V72.7564H52.2518V84.0572H0Z" fill="#676B78"/>
<path d="M85.4273 85.2805C79.4468 85.2805 74.2818 83.999 69.9324 81.4359C65.6217 78.834 62.3014 75.1641 59.9713 70.4263C57.6801 65.6497 56.5345 60.0381 56.5345 53.5916V53.5333C56.5345 47.1645 57.6995 41.5917 60.0296 36.8151C62.3596 31.9996 65.6412 28.2715 69.8741 25.6308C74.1071 22.9512 79.0779 21.6114 84.7866 21.6114C90.5341 21.6114 95.466 22.8929 99.5825 25.456C103.738 27.9802 106.942 31.5724 109.194 36.2326C111.446 40.8539 112.573 46.2325 112.573 52.3683V56.6207H62.7674V47.7082H106.456L100.223 56.0382V51.145C100.223 46.8344 99.5631 43.2616 98.2427 40.4267C96.9612 37.5529 95.1554 35.417 92.8253 34.019C90.5341 32.621 87.8739 31.9219 84.8448 31.9219C81.8546 31.9219 79.175 32.6598 76.8061 34.1355C74.4372 35.6112 72.5731 37.786 71.2139 40.6597C69.8547 43.4946 69.1751 46.9897 69.1751 51.145V56.0382C69.1751 59.9993 69.8353 63.3973 71.1557 66.2322C72.5149 69.0283 74.4372 71.1836 76.9226 72.6982C79.408 74.1739 82.34 74.9117 85.7186 74.9117C88.204 74.9117 90.3981 74.5428 92.301 73.8049C94.2039 73.0282 95.7767 72.0186 97.0194 70.7758C98.301 69.4943 99.1941 68.0769 99.699 66.5235L99.8738 66.0575H111.874L111.757 66.6982C111.252 69.106 110.301 71.4166 108.903 73.6302C107.505 75.8437 105.68 77.8437 103.427 79.6301C101.214 81.3777 98.5922 82.7563 95.5631 83.766C92.534 84.7757 89.1554 85.2805 85.4273 85.2805Z" fill="#676B78"/>
<path d="M142.661 85.2805C136.603 85.2805 132.078 83.9213 129.088 81.2029C126.137 78.4457 124.661 73.9991 124.661 67.8633V32.7957H115.865V22.7764H124.661V6.81545H137.593V22.7764H149.069V32.7957H137.593V67.1642C137.593 70.271 138.273 72.4069 139.632 73.5719C140.991 74.6981 143.01 75.2612 145.69 75.2612C146.35 75.2612 146.952 75.2418 147.496 75.203C148.078 75.1253 148.602 75.0671 149.069 75.0282V84.7563C148.331 84.8728 147.399 84.9893 146.272 85.1058C145.146 85.2223 143.942 85.2805 142.661 85.2805Z" fill="#676B78"/>
<path d="M155.273 29.8249L160.108 0H172.691L164.186 29.8249H155.273Z" fill="#676B78"/>
<path d="M197.07 85.2805C191.944 85.2805 187.536 84.5038 183.847 82.9505C180.197 81.3582 177.323 79.1641 175.226 76.368C173.129 73.5331 171.867 70.2516 171.439 66.5235L171.381 65.9992H183.847L183.964 66.5817C184.585 69.3778 185.964 71.572 188.099 73.1642C190.235 74.7175 193.226 75.4942 197.07 75.4942C199.633 75.4942 201.808 75.1836 203.594 74.5622C205.381 73.902 206.759 72.97 207.73 71.7661C208.701 70.5623 209.187 69.1254 209.187 67.4555V67.3972C209.187 65.4167 208.546 63.8245 207.264 62.6206C205.983 61.4167 203.692 60.407 200.391 59.5915L190.371 57.3197C186.488 56.4265 183.245 55.2032 180.643 53.6498C178.08 52.0965 176.158 50.1936 174.876 47.9412C173.595 45.6888 172.954 43.0869 172.954 40.1354V40.0772C172.954 36.3879 173.944 33.1646 175.925 30.4074C177.905 27.6113 180.682 25.456 184.255 23.9415C187.828 22.3881 191.964 21.6114 196.662 21.6114C201.478 21.6114 205.633 22.4269 209.128 24.058C212.623 25.689 215.342 27.922 217.284 30.7569C219.264 33.553 220.352 36.6792 220.546 40.1354V40.8345H208.721L208.662 40.4267C208.313 37.7471 207.109 35.5724 205.051 33.9025C202.993 32.1938 200.196 31.3394 196.662 31.3394C194.41 31.3394 192.449 31.6695 190.779 32.3297C189.109 32.9899 187.828 33.9413 186.934 35.184C186.041 36.3879 185.595 37.8054 185.595 39.4364V39.4947C185.595 40.7374 185.886 41.8636 186.468 42.8733C187.09 43.883 188.08 44.7567 189.439 45.4946C190.798 46.2325 192.546 46.8538 194.682 47.3587L204.701 49.6887C210.954 51.1256 215.381 53.1644 217.983 55.8052C220.623 58.4071 221.944 61.9216 221.944 66.3487V66.407C221.944 70.1351 220.876 73.4166 218.74 76.2515C216.604 79.0864 213.653 81.3 209.886 82.8922C206.158 84.4844 201.886 85.2805 197.07 85.2805Z" fill="#676B78"/>
<path d="M254.975 84.0572V0H270.062L297.266 67.0477H297.615L324.819 0H339.964V84.0572H328.022V22.0774H322.023L335.653 2.33007L302.275 84.0572H292.605L259.285 2.33007L272.916 22.0774H266.916V84.0572H254.975Z" fill="#676B78"/>
<path d="M369.178 85.164C365.101 85.164 361.528 84.3873 358.46 82.834C355.392 81.2806 353.004 79.1058 351.295 76.3098C349.586 73.5137 348.732 70.2904 348.732 66.64V66.5235C348.732 62.9507 349.625 59.8828 351.412 57.3197C353.198 54.7178 355.781 52.6596 359.159 51.145C362.577 49.6305 366.693 48.7373 371.509 48.4654L394.693 47.0674V55.9217L373.198 57.2614C369.431 57.4945 366.518 58.4071 364.46 59.9993C362.441 61.5527 361.431 63.6303 361.431 66.2322V66.3487C361.431 69.0283 362.441 71.1448 364.46 72.6982C366.518 74.2515 369.237 75.0282 372.615 75.0282C375.567 75.0282 378.207 74.4263 380.538 73.2224C382.906 72.0186 384.771 70.3681 386.13 68.271C387.489 66.1351 388.169 63.7468 388.169 61.1061V42.8733C388.169 39.4947 387.12 36.8539 385.023 34.951C382.926 33.0093 379.916 32.0384 375.994 32.0384C372.382 32.0384 369.47 32.8151 367.256 34.3685C365.081 35.9219 363.722 37.9219 363.179 40.3684L363.062 40.8927H351.179L351.237 40.2519C351.548 36.718 352.732 33.553 354.79 30.7569C356.849 27.922 359.703 25.689 363.353 24.058C367.004 22.4269 371.334 21.6114 376.343 21.6114C381.353 21.6114 385.683 22.4463 389.334 24.1162C392.984 25.7861 395.819 28.1356 397.838 31.1647C399.858 34.1938 400.867 37.7471 400.867 41.8247V84.0572H388.169V74.3875H387.936C386.732 76.601 385.178 78.5233 383.275 80.1544C381.373 81.7466 379.217 82.9893 376.809 83.8825C374.441 84.7368 371.897 85.164 369.178 85.164Z" fill="#676B78"/>
<path d="M412.548 84.0572V0H425.189V84.0572H412.548ZM451.169 84.0572L429.499 55.6304L437.713 46.6014L465.79 84.0572H451.169ZM422.975 64.1934V48.8732H425.48L450.004 22.7764H464.858L436.14 52.9508H434.218L422.975 64.1934Z" fill="#676B78"/>
<path d="M494.131 85.2805C488.15 85.2805 482.985 83.999 478.636 81.4359C474.325 78.834 471.005 75.1641 468.675 70.4263C466.384 65.6497 465.238 60.0381 465.238 53.5916V53.5333C465.238 47.1645 466.403 41.5917 468.733 36.8151C471.063 31.9996 474.345 28.2715 478.578 25.6308C482.811 22.9512 487.781 21.6114 493.49 21.6114C499.238 21.6114 504.169 22.8929 508.286 25.456C512.441 27.9802 515.645 31.5724 517.897 36.2326C520.15 40.8539 521.276 46.2325 521.276 52.3683V56.6207H471.471V47.7082H515.16L508.927 56.0382V51.145C508.927 46.8344 508.267 43.2616 506.946 40.4267C505.665 37.5529 503.859 35.417 501.529 34.019C499.238 32.621 496.577 31.9219 493.548 31.9219C490.558 31.9219 487.878 32.6598 485.51 34.1355C483.141 35.6112 481.277 37.786 479.917 40.6597C478.558 43.4946 477.879 46.9897 477.879 51.145V56.0382C477.879 59.9993 478.539 63.3973 479.859 66.2322C481.218 69.0283 483.141 71.1836 485.626 72.6982C488.111 74.1739 491.043 74.9117 494.422 74.9117C496.907 74.9117 499.102 74.5428 501.004 73.8049C502.907 73.0282 504.48 72.0186 505.723 70.7758C507.004 69.4943 507.898 68.0769 508.402 66.5235L508.577 66.0575H520.577L520.461 66.6982C519.956 69.106 519.004 71.4166 517.606 73.6302C516.208 75.8437 514.383 77.8437 512.131 79.6301C509.917 81.3777 507.296 82.7563 504.267 83.766C501.237 84.7757 497.859 85.2805 494.131 85.2805Z" fill="#676B78"/>
<path d="M554.249 84.0572V0H567.297V84.0572H554.249Z" fill="#676B78"/>
<path d="M601.638 85.2805C595.58 85.2805 591.055 83.9213 588.065 81.2029C585.114 78.4457 583.638 73.9991 583.638 67.8633V32.7957H574.842V22.7764H583.638V6.81545H596.57V22.7764H608.045V32.7957H596.57V67.1642C596.57 70.271 597.249 72.4069 598.609 73.5719C599.968 74.6981 601.987 75.2612 604.667 75.2612C605.327 75.2612 605.929 75.2418 606.473 75.203C607.055 75.1253 607.579 75.0671 608.045 75.0282V84.7563C607.308 84.8728 606.376 84.9893 605.249 85.1058C604.123 85.2223 602.919 85.2805 601.638 85.2805Z" fill="#676B78"/>
<path d="M641.659 84.0572V0H654.707V35.5336H697.814V0H710.92V84.0572H697.814V46.8344H654.707V84.0572H641.659Z" fill="#676B78"/>
<path d="M740.135 85.164C736.057 85.164 732.484 84.3873 729.416 82.834C726.349 81.2806 723.96 79.1058 722.252 76.3098C720.543 73.5137 719.688 70.2904 719.688 66.64V66.5235C719.688 62.9507 720.582 59.8828 722.368 57.3197C724.154 54.7178 726.737 52.6596 730.115 51.145C733.533 49.6305 737.649 48.7373 742.465 48.4654L765.649 47.0674V55.9217L744.154 57.2614C740.387 57.4945 737.475 58.4071 735.416 59.9993C733.397 61.5527 732.387 63.6303 732.387 66.2322V66.3487C732.387 69.0283 733.397 71.1448 735.416 72.6982C737.475 74.2515 740.193 75.0282 743.572 75.0282C746.523 75.0282 749.164 74.4263 751.494 73.2224C753.863 72.0186 755.727 70.3681 757.086 68.271C758.445 66.1351 759.125 63.7468 759.125 61.1061V42.8733C759.125 39.4947 758.076 36.8539 755.979 34.951C753.882 33.0093 750.873 32.0384 746.95 32.0384C743.339 32.0384 740.426 32.8151 738.212 34.3685C736.038 35.9219 734.679 37.9219 734.135 40.3684L734.018 40.8927H722.135L722.193 40.2519C722.504 36.718 723.688 33.553 725.747 30.7569C727.805 27.922 730.659 25.689 734.31 24.058C737.96 22.4269 742.29 21.6114 747.3 21.6114C752.309 21.6114 756.639 22.4463 760.29 24.1162C763.94 25.7861 766.775 28.1356 768.795 31.1647C770.814 34.1938 771.824 37.7471 771.824 41.8247V84.0572H759.125V74.3875H758.892C757.688 76.601 756.135 78.5233 754.232 80.1544C752.329 81.7466 750.174 82.9893 747.766 83.8825C745.397 84.7368 742.853 85.164 740.135 85.164Z" fill="#676B78"/>
<path d="M782.747 104.445V22.7764H795.446V33.2617H795.737C796.941 30.854 798.475 28.7764 800.339 27.0288C802.242 25.2812 804.417 23.9415 806.863 23.0094C809.31 22.0774 811.989 21.6114 814.902 21.6114C820.106 21.6114 824.63 22.9123 828.475 25.5143C832.319 28.0773 835.29 31.7472 837.387 36.5238C839.484 41.2616 840.533 46.8926 840.533 53.4168V53.4751C840.533 59.9993 839.465 65.6303 837.329 70.3681C835.232 75.1059 832.28 78.7758 828.475 81.3777C824.669 83.9796 820.203 85.2805 815.077 85.2805C812.203 85.2805 809.504 84.8145 806.98 83.8825C804.494 82.9505 802.3 81.6301 800.397 79.9214C798.494 78.1738 796.922 76.1156 795.679 73.7467H795.446V104.445H782.747ZM811.582 74.3875C814.883 74.3875 817.737 73.5525 820.145 71.8826C822.552 70.1739 824.397 67.7468 825.679 64.6012C826.96 61.4556 827.601 57.7469 827.601 53.4751V53.4168C827.601 49.0674 826.96 45.3198 825.679 42.1742C824.397 39.0287 822.552 36.6209 820.145 34.951C817.737 33.2812 814.883 32.4462 811.582 32.4462C808.397 32.4462 805.582 33.32 803.135 35.0675C800.689 36.7763 798.766 39.2034 797.368 42.349C796.009 45.4558 795.329 49.145 795.329 53.4168V53.4751C795.329 57.708 796.028 61.3973 797.427 64.5429C798.825 67.6497 800.727 70.0768 803.135 71.8244C805.582 73.5331 808.397 74.3875 811.582 74.3875Z" fill="#676B78"/>
<path d="M849.01 104.445V22.7764H861.708V33.2617H862C863.204 30.854 864.738 28.7764 866.602 27.0288C868.504 25.2812 870.679 23.9415 873.126 23.0094C875.572 22.0774 878.252 21.6114 881.165 21.6114C886.368 21.6114 890.893 22.9123 894.737 25.5143C898.582 28.0773 901.553 31.7472 903.65 36.5238C905.747 41.2616 906.795 46.8926 906.795 53.4168V53.4751C906.795 59.9993 905.727 65.6303 903.591 70.3681C901.494 75.1059 898.543 78.7758 894.737 81.3777C890.931 83.9796 886.465 85.2805 881.339 85.2805C878.466 85.2805 875.767 84.8145 873.242 83.8825C870.757 82.9505 868.563 81.6301 866.66 79.9214C864.757 78.1738 863.184 76.1156 861.941 73.7467H861.708V104.445H849.01ZM877.844 74.3875C881.145 74.3875 883.999 73.5525 886.407 71.8826C888.815 70.1739 890.66 67.7468 891.941 64.6012C893.223 61.4556 893.863 57.7469 893.863 53.4751V53.4168C893.863 49.0674 893.223 45.3198 891.941 42.1742C890.66 39.0287 888.815 36.6209 886.407 34.951C883.999 33.2812 881.145 32.4462 877.844 32.4462C874.66 32.4462 871.844 33.32 869.398 35.0675C866.951 36.7763 865.029 39.2034 863.631 42.349C862.272 45.4558 861.592 49.145 861.592 53.4168V53.4751C861.592 57.708 862.291 61.3973 863.689 64.5429C865.087 67.6497 866.99 70.0768 869.398 71.8244C871.844 73.5331 874.66 74.3875 877.844 74.3875Z" fill="#676B78"/>
<path d="M941.485 85.2805C935.505 85.2805 930.34 83.999 925.99 81.4359C921.68 78.834 918.359 75.1641 916.029 70.4263C913.738 65.6497 912.593 60.0381 912.593 53.5916V53.5333C912.593 47.1645 913.758 41.5917 916.088 36.8151C918.418 31.9996 921.699 28.2715 925.932 25.6308C930.165 22.9512 935.136 21.6114 940.845 21.6114C946.592 21.6114 951.524 22.8929 955.641 25.456C959.796 27.9802 963 31.5724 965.252 36.2326C967.505 40.8539 968.631 46.2325 968.631 52.3683V56.6207H918.825V47.7082H962.514L956.281 56.0382V51.145C956.281 46.8344 955.621 43.2616 954.301 40.4267C953.019 37.5529 951.213 35.417 948.883 34.019C946.592 32.621 943.932 31.9219 940.903 31.9219C937.913 31.9219 935.233 32.6598 932.864 34.1355C930.495 35.6112 928.631 37.786 927.272 40.6597C925.913 43.4946 925.233 46.9897 925.233 51.145V56.0382C925.233 59.9993 925.893 63.3973 927.214 66.2322C928.573 69.0283 930.495 71.1836 932.981 72.6982C935.466 74.1739 938.398 74.9117 941.777 74.9117C944.262 74.9117 946.456 74.5428 948.359 73.8049C950.262 73.0282 951.835 72.0186 953.077 70.7758C954.359 69.4943 955.252 68.0769 955.757 66.5235L955.932 66.0575H967.932L967.815 66.6982C967.31 69.106 966.359 71.4166 964.961 73.6302C963.563 75.8437 961.738 77.8437 959.485 79.6301C957.272 81.3777 954.65 82.7563 951.621 83.766C948.592 84.7757 945.214 85.2805 941.485 85.2805Z" fill="#676B78"/>
<path d="M977.107 84.0572V22.7764H989.806V32.0384H990.039C991.67 28.9317 994.059 26.4269 997.204 24.524C1000.35 22.5823 1004.23 21.6114 1008.85 21.6114C1015.57 21.6114 1020.78 23.6502 1024.47 27.7278C1028.16 31.7666 1030 37.3199 1030 44.3878V84.0572H1017.36V46.8344C1017.36 42.2131 1016.27 38.6597 1014.1 36.1743C1011.96 33.6889 1008.72 32.4462 1004.37 32.4462C1001.42 32.4462 998.835 33.1064 996.622 34.4268C994.447 35.7471 992.758 37.5918 991.554 39.9607C990.389 42.3296 989.806 45.1257 989.806 48.3489V84.0572H977.107Z" fill="#676B78"/>
</svg>
