<svg width="237" height="104" viewBox="0 0 237 104" fill="none" xmlns="http://www.w3.org/2000/svg">
<path d="M12.168 45.7871C4.752 45.7871 0.576 40.1711 0.576 32.3951C0.576 24.6551 5.292 19.0391 12.636 19.0391C19.296 19.0391 22.824 22.6031 23.652 27.4991H19.512C18.828 24.2591 16.416 22.4591 12.6 22.4591C6.912 22.4591 4.716 27.5711 4.716 32.3951C4.716 37.2551 6.372 42.3671 12.384 42.3671C16.632 42.3671 20.016 39.4151 20.052 35.1311H12.456V31.8191H24.084V45.2831H21.348L20.376 41.7191H20.304C18.504 44.3471 16.092 45.7871 12.168 45.7871Z" fill="#676B78"/>
<path d="M35.8327 45.8231C30.0007 45.8231 26.7607 41.6831 26.7607 36.0671C26.7607 30.3071 30.2167 26.3471 35.8327 26.3471C41.4127 26.3471 44.5447 30.0191 44.5447 35.7071C44.5447 36.2111 44.5447 36.7511 44.5087 37.0391H30.3967C30.4687 40.0991 32.2687 42.9431 35.9047 42.9431C39.1447 42.9431 40.4047 40.8551 40.7287 39.6311H44.3287C43.3567 43.1591 40.6567 45.8231 35.8327 45.8231ZM30.3967 34.2671H40.8727C40.8727 31.3871 38.8567 29.2271 35.7247 29.2271C32.7727 29.2271 30.6127 31.2431 30.3967 34.2671Z" fill="#676B78"/>
<path d="M53.2915 45.4991C50.2675 45.4991 48.4315 44.3471 48.4315 40.0991V29.8391H45.7675V26.9231H48.4315V21.0191H51.9595V26.9231H55.4875V29.8391H51.9595V40.2071C51.9595 42.1511 52.4995 42.5831 54.0115 42.5831C54.6235 42.5831 54.9115 42.5471 55.5235 42.4391V45.2831C54.6235 45.4631 54.0475 45.4991 53.2915 45.4991Z" fill="#676B78"/>
<path d="M71.0227 45.7871C67.3507 45.7871 65.0107 43.6631 65.0107 40.5311C65.0107 36.4271 68.1067 35.2031 72.6787 34.3391C75.5587 33.7991 77.3227 33.4391 77.3227 31.6391C77.3227 30.3071 76.5307 29.1911 73.8307 29.1911C70.6267 29.1911 69.6547 30.1991 69.4747 32.6471H65.8747C66.0547 29.1191 68.3587 26.3471 73.9747 26.3471C77.7547 26.3471 80.7787 27.9311 80.7787 32.6831V41.1071C80.7787 42.4391 80.9587 43.1231 81.6427 43.1231C81.7507 43.1231 81.8587 43.1231 82.0747 43.0871V45.2471C81.4627 45.3911 80.8507 45.4631 80.2747 45.4631C78.5107 45.4631 77.5747 44.7791 77.3587 42.6911H77.2867C76.0987 44.5991 74.0107 45.7871 71.0227 45.7871ZM68.6827 40.2791C68.6827 42.0071 69.6187 42.9431 71.8147 42.9431C74.9827 42.9431 77.3227 41.3231 77.3227 38.1191V35.4911C76.7467 36.0311 75.1627 36.4271 73.2907 36.8231C70.0507 37.4711 68.6827 38.3711 68.6827 40.2791Z" fill="#676B78"/>
<path d="M104.547 45.7871C96.8431 45.7871 91.9111 40.1351 91.9111 32.3951C91.9111 24.6551 96.8431 19.0391 104.547 19.0391C112.251 19.0391 117.183 24.6551 117.183 32.3951C117.183 35.9951 116.139 39.1271 114.231 41.4671L117.327 44.5631L115.023 46.9031L111.819 43.6631C109.839 45.0311 107.391 45.7871 104.547 45.7871ZM96.0511 32.3951C96.0511 37.6871 98.4631 42.3671 104.547 42.3671C106.455 42.3671 108.003 41.8991 109.227 41.1071L105.879 37.7231L108.183 35.3831L111.495 38.7311C112.575 36.9671 113.043 34.7351 113.043 32.3951C113.043 27.1031 110.631 22.4591 104.547 22.4591C98.4631 22.4591 96.0511 27.1031 96.0511 32.3951Z" fill="#676B78"/>
<path d="M126.239 45.7871C122.855 45.7871 120.119 43.8431 120.119 39.6311V26.9231H123.647V38.6591C123.647 41.1431 124.727 42.7991 127.391 42.7991C130.415 42.7991 132.359 40.9631 132.359 38.1911V26.9231H135.887V45.2831H132.359V42.9791H132.287C131.315 44.3831 129.407 45.7871 126.239 45.7871Z" fill="#676B78"/>
<path d="M148.053 45.8231C142.329 45.8231 138.873 41.8631 138.873 36.1031C138.873 30.3791 142.329 26.3471 148.089 26.3471C153.777 26.3471 157.233 30.3431 157.233 36.0671C157.233 41.8271 153.777 45.8231 148.053 45.8231ZM142.545 36.1031C142.545 39.9191 144.273 42.9071 148.089 42.9071C151.833 42.9071 153.561 39.9191 153.561 36.1031C153.561 32.2511 151.833 29.2991 148.089 29.2991C144.273 29.2991 142.545 32.2511 142.545 36.1031Z" fill="#676B78"/>
<path d="M165.932 45.4991C162.908 45.4991 161.072 44.3471 161.072 40.0991V29.8391H158.408V26.9231H161.072V21.0191H164.6V26.9231H168.128V29.8391H164.6V40.2071C164.6 42.1511 165.14 42.5831 166.652 42.5831C167.264 42.5831 167.552 42.5471 168.164 42.4391V45.2831C167.264 45.4631 166.688 45.4991 165.932 45.4991Z" fill="#676B78"/>
<path d="M178.813 45.8231C172.981 45.8231 169.741 41.6831 169.741 36.0671C169.741 30.3071 173.197 26.3471 178.813 26.3471C184.393 26.3471 187.525 30.0191 187.525 35.7071C187.525 36.2111 187.525 36.7511 187.489 37.0391H173.377C173.449 40.0991 175.249 42.9431 178.885 42.9431C182.125 42.9431 183.385 40.8551 183.709 39.6311H187.309C186.337 43.1591 183.637 45.8231 178.813 45.8231ZM173.377 34.2671H183.853C183.853 31.3871 181.837 29.2271 178.705 29.2271C175.753 29.2271 173.593 31.2431 173.377 34.2671Z" fill="#676B78"/>
<path d="M2.52 60.6911C2.52 56.4431 4.284 55.2911 7.272 55.2911C7.956 55.2911 8.496 55.3631 9.504 55.5071V58.3511C8.784 58.2791 8.496 58.2431 7.992 58.2431C6.516 58.2431 6.084 58.6751 6.084 60.6191V62.9231H9.504V65.8391H6.084V81.2831H2.52V65.8391H0V62.9231H2.52V60.6911Z" fill="#676B78"/>
<path d="M19.557 81.8231C13.833 81.8231 10.377 77.8631 10.377 72.1031C10.377 66.3791 13.833 62.3471 19.593 62.3471C25.281 62.3471 28.737 66.3431 28.737 72.0671C28.737 77.8271 25.281 81.8231 19.557 81.8231ZM14.049 72.1031C14.049 75.9191 15.777 78.9071 19.593 78.9071C23.337 78.9071 25.065 75.9191 25.065 72.1031C25.065 68.2511 23.337 65.2991 19.593 65.2991C15.777 65.2991 14.049 68.2511 14.049 72.1031Z" fill="#676B78"/>
<path d="M35.2676 71.7791V81.2831H31.7396V62.9231H35.2676V66.4151H35.3396C36.3116 64.1111 37.7876 62.4911 40.2716 62.4911C40.9196 62.4911 41.4236 62.5271 41.9636 62.5991V65.9831C41.5316 65.9111 41.2076 65.8751 40.7756 65.8751C37.5716 65.8751 35.2676 68.2871 35.2676 71.7791Z" fill="#676B78"/>
<path d="M52.5023 87.7271C51.7103 87.7271 51.1703 87.6551 50.2343 87.4751V84.5951C50.8463 84.6671 51.1703 84.7031 51.7463 84.7031C53.1503 84.7031 54.8063 83.9831 55.5263 81.1031L48.1103 62.9231H51.9623L57.3263 76.9631H57.3983L62.4383 62.9231H66.1463L58.8743 81.7151C57.1103 86.2511 55.3463 87.7271 52.5023 87.7271Z" fill="#676B78"/>
<path d="M75.8422 81.8231C70.1182 81.8231 66.6622 77.8631 66.6622 72.1031C66.6622 66.3791 70.1182 62.3471 75.8782 62.3471C81.5662 62.3471 85.0222 66.3431 85.0222 72.0671C85.0222 77.8271 81.5662 81.8231 75.8422 81.8231ZM70.3342 72.1031C70.3342 75.9191 72.0622 78.9071 75.8782 78.9071C79.6222 78.9071 81.3502 75.9191 81.3502 72.1031C81.3502 68.2511 79.6222 65.2991 75.8782 65.2991C72.0622 65.2991 70.3342 68.2511 70.3342 72.1031Z" fill="#676B78"/>
<path d="M94.0008 81.7871C90.6168 81.7871 87.8808 79.8431 87.8808 75.6311V62.9231H91.4088V74.6591C91.4088 77.1431 92.4888 78.7991 95.1528 78.7991C98.1768 78.7991 100.121 76.9631 100.121 74.1911V62.9231H103.649V81.2831H100.121V78.9791H100.049C99.0768 80.3831 97.1688 81.7871 94.0008 81.7871Z" fill="#676B78"/>
<path d="M111.135 71.7791V81.2831H107.607V62.9231H111.135V66.4151H111.207C112.179 64.1111 113.655 62.4911 116.139 62.4911C116.787 62.4911 117.291 62.5271 117.831 62.5991V65.9831C117.399 65.9111 117.075 65.8751 116.643 65.8751C113.439 65.8751 111.135 68.2871 111.135 71.7791Z" fill="#676B78"/>
<path d="M127.413 81.2831V55.5431H138.141C143.001 55.5431 146.565 57.8111 146.565 63.2111C146.565 68.6111 143.001 70.8431 138.141 70.8431H131.373V81.2831H127.413ZM131.373 67.4231H137.961C140.949 67.4231 142.461 66.0911 142.461 63.2111C142.461 60.2951 140.949 58.9631 137.961 58.9631H131.373V67.4231Z" fill="#676B78"/>
<path d="M152.584 71.7791V81.2831H149.056V62.9231H152.584V66.4151H152.656C153.628 64.1111 155.104 62.4911 157.588 62.4911C158.236 62.4911 158.74 62.5271 159.28 62.5991V65.9831C158.848 65.9111 158.524 65.8751 158.092 65.8751C154.888 65.8751 152.584 68.2871 152.584 71.7791Z" fill="#676B78"/>
<path d="M169.006 81.8231C163.282 81.8231 159.826 77.8631 159.826 72.1031C159.826 66.3791 163.282 62.3471 169.042 62.3471C174.73 62.3471 178.186 66.3431 178.186 72.0671C178.186 77.8271 174.73 81.8231 169.006 81.8231ZM163.498 72.1031C163.498 75.9191 165.226 78.9071 169.042 78.9071C172.786 78.9071 174.514 75.9191 174.514 72.1031C174.514 68.2511 172.786 65.2991 169.042 65.2991C165.226 65.2991 163.498 68.2511 163.498 72.1031Z" fill="#676B78"/>
<path d="M180.325 87.7991C179.569 87.7991 179.029 87.7271 178.129 87.5831V84.6671C178.705 84.7391 178.993 84.7751 179.533 84.7751C180.649 84.7751 181.189 84.1631 181.189 82.1111V62.9231H184.717V82.2551C184.717 86.1791 182.917 87.7991 180.325 87.7991ZM180.973 59.6471V55.8311H184.969V59.6471H180.973Z" fill="#676B78"/>
<path d="M196.813 81.8231C190.981 81.8231 187.741 77.6831 187.741 72.0671C187.741 66.3071 191.197 62.3471 196.813 62.3471C202.393 62.3471 205.525 66.0191 205.525 71.7071C205.525 72.2111 205.525 72.7511 205.489 73.0391H191.377C191.449 76.0991 193.249 78.9431 196.885 78.9431C200.125 78.9431 201.385 76.8551 201.709 75.6311H205.309C204.337 79.1591 201.637 81.8231 196.813 81.8231ZM191.377 70.2671H201.853C201.853 67.3871 199.837 65.2271 196.705 65.2271C193.753 65.2271 191.593 67.2431 191.377 70.2671Z" fill="#676B78"/>
<path d="M216.569 81.8231C211.097 81.8231 207.533 77.8631 207.533 72.1031C207.533 66.3431 211.097 62.3831 216.533 62.3831C221.249 62.3831 224.381 65.4431 224.813 69.5831H221.177C220.997 67.6751 219.917 65.2991 216.569 65.2991C212.645 65.2991 211.205 68.6471 211.205 72.1031C211.205 75.5591 212.645 78.8711 216.569 78.8711C219.953 78.8711 220.997 76.5671 221.177 74.4791H224.813C224.561 78.6911 221.285 81.8231 216.569 81.8231Z" fill="#676B78"/>
<path d="M233.538 81.4991C230.514 81.4991 228.678 80.3471 228.678 76.0991V65.8391H226.014V62.9231H228.678V57.0191H232.206V62.9231H235.734V65.8391H232.206V76.2071C232.206 78.1511 232.746 78.5831 234.258 78.5831C234.87 78.5831 235.158 78.5471 235.77 78.4391V81.2831C234.87 81.4631 234.294 81.4991 233.538 81.4991Z" fill="#676B78"/>
</svg>
