<svg width="130" height="26" viewBox="0 0 130 26" fill="none" xmlns="http://www.w3.org/2000/svg">
<path d="M11.587 4.34876C12.0318 2.97996 13.9682 2.97996 14.413 4.34876L15.5851 7.95617C15.784 8.56832 16.3545 8.98278 16.9981 8.98278H20.7912C22.2304 8.98278 22.8288 10.8245 21.6645 11.6705L18.5958 13.9C18.0751 14.2783 17.8572 14.9489 18.0561 15.561L19.2282 19.1685C19.673 20.5373 18.1063 21.6755 16.9419 20.8295L13.8733 18.6C13.3526 18.2217 12.6474 18.2217 12.1267 18.6L9.05807 20.8295C7.8937 21.6755 6.32704 20.5373 6.77179 19.1685L7.94391 15.561C8.14281 14.9489 7.92492 14.2783 7.40419 13.9L4.33554 11.6705C3.17117 10.8245 3.76958 8.98278 5.20882 8.98278H9.00188C9.64553 8.98278 10.216 8.56832 10.4149 7.95618L11.587 4.34876Z" fill="#2C2C2C"/>
<path d="M37.587 4.34876C38.0318 2.97996 39.9682 2.97996 40.413 4.34876L41.5851 7.95617C41.784 8.56832 42.3545 8.98278 42.9981 8.98278H46.7912C48.2304 8.98278 48.8288 10.8245 47.6645 11.6705L44.5958 13.9C44.0751 14.2783 43.8572 14.9489 44.0561 15.561L45.2282 19.1685C45.673 20.5373 44.1063 21.6755 42.9419 20.8295L39.8733 18.6C39.3526 18.2217 38.6474 18.2217 38.1267 18.6L35.0581 20.8295C33.8937 21.6755 32.327 20.5373 32.7718 19.1685L33.9439 15.561C34.1428 14.9489 33.9249 14.2783 33.4042 13.9L30.3355 11.6705C29.1712 10.8245 29.7696 8.98278 31.2088 8.98278H35.0019C35.6455 8.98278 36.216 8.56832 36.4149 7.95618L37.587 4.34876Z" fill="#2C2C2C"/>
<path d="M63.587 4.34876C64.0318 2.97996 65.9682 2.97996 66.413 4.34876L67.5851 7.95617C67.784 8.56832 68.3545 8.98278 68.9981 8.98278H72.7912C74.2304 8.98278 74.8288 10.8245 73.6645 11.6705L70.5958 13.9C70.0751 14.2783 69.8572 14.9489 70.0561 15.561L71.2282 19.1685C71.673 20.5373 70.1063 21.6755 68.9419 20.8295L65.8733 18.6C65.3526 18.2217 64.6474 18.2217 64.1267 18.6L61.0581 20.8295C59.8937 21.6755 58.327 20.5373 58.7718 19.1685L59.9439 15.561C60.1428 14.9489 59.9249 14.2783 59.4042 13.9L56.3355 11.6705C55.1712 10.8245 55.7696 8.98278 57.2088 8.98278H61.0019C61.6455 8.98278 62.216 8.56832 62.4149 7.95618L63.587 4.34876Z" fill="#2C2C2C"/>
<path d="M89.587 4.34876C90.0318 2.97996 91.9682 2.97996 92.413 4.34876L93.5851 7.95617C93.784 8.56832 94.3545 8.98278 94.9981 8.98278H98.7912C100.23 8.98278 100.829 10.8245 99.6645 11.6705L96.5958 13.9C96.0751 14.2783 95.8572 14.9489 96.0561 15.561L97.2282 19.1685C97.673 20.5373 96.1063 21.6755 94.9419 20.8295L91.8733 18.6C91.3526 18.2217 90.6474 18.2217 90.1267 18.6L87.0581 20.8295C85.8937 21.6755 84.327 20.5373 84.7718 19.1685L85.9439 15.561C86.1428 14.9489 85.9249 14.2783 85.4042 13.9L82.3355 11.6705C81.1712 10.8245 81.7696 8.98278 83.2088 8.98278H87.0019C87.6455 8.98278 88.216 8.56832 88.4149 7.95618L89.587 4.34876Z" fill="#2C2C2C"/>
<path d="M115.587 4.34876C116.032 2.97996 117.968 2.97996 118.413 4.34876L119.585 7.95617C119.784 8.56832 120.354 8.98278 120.998 8.98278H124.791C126.23 8.98278 126.829 10.8245 125.664 11.6705L122.596 13.9C122.075 14.2783 121.857 14.9489 122.056 15.561L123.228 19.1685C123.673 20.5373 122.106 21.6755 120.942 20.8295L117.873 18.6C117.353 18.2217 116.647 18.2217 116.127 18.6L113.058 20.8295C111.894 21.6755 110.327 20.5373 110.772 19.1685L111.944 15.561C112.143 14.9489 111.925 14.2783 111.404 13.9L108.336 11.6705C107.171 10.8245 107.77 8.98278 109.209 8.98278H113.002C113.646 8.98278 114.216 8.56832 114.415 7.95618L115.587 4.34876Z" fill="#2C2C2C"/>
</svg>
