<svg width="17" height="17" viewBox="0 0 17 17" fill="none" xmlns="http://www.w3.org/2000/svg">
<path d="M4.88889 12.4449H1C0.44772 12.4449 0 11.9972 0 11.4449V5.44489C0 4.8926 0.44772 4.44489 1 4.44489H4.88889L10.1834 0.113034C10.3971 -0.061826 10.7121 -0.0303261 10.887 0.183394C10.9601 0.272724 11 0.384594 11 0.500014V16.3897C11 16.6659 10.7761 16.8897 10.5 16.8897C10.3846 16.8897 10.2727 16.8498 10.1834 16.7767L4.88889 12.4449ZM14.8631 13.0359L13.4411 11.6139C14.3892 10.8824 15 9.73502 15 8.44492C15 7.01452 14.2493 5.75958 13.1203 5.05248L14.5589 3.61388C16.0396 4.70648 17 6.46352 17 8.44492C17 10.287 16.1698 11.9353 14.8631 13.0359Z" fill="#2C2C2C"/>
</svg>
