<svg width="23" height="17" viewBox="0 0 23 17" fill="none" xmlns="http://www.w3.org/2000/svg">
<path d="M4.88889 12.4449H1C0.44772 12.4449 0 11.9972 0 11.4449V5.44489C0 4.8926 0.44772 4.44489 1 4.44489H4.88889L10.1834 0.113034C10.3971 -0.061826 10.7121 -0.0303261 10.887 0.183394C10.9601 0.272724 11 0.384594 11 0.500014V16.3897C11 16.6659 10.7761 16.8897 10.5 16.8897C10.3846 16.8897 10.2727 16.8498 10.1834 16.7767L4.88889 12.4449ZM19.4142 8.44492L22.9497 11.9804L21.5355 13.3946L18 9.85912L14.4645 13.3946L13.0503 11.9804L16.5858 8.44492L13.0503 4.90936L14.4645 3.49514L18 7.03072L21.5355 3.49514L22.9497 4.90936L19.4142 8.44492Z" fill="#2C2C2C"/>
</svg>
