<svg width="852" height="852" viewBox="0 0 852 852" fill="none" xmlns="http://www.w3.org/2000/svg">
<rect width="852" height="852" fill="#E9EDEF"/>
<g filter="url(#filter0_d_584_6887)">
<rect x="226" y="196" width="400" height="460" rx="20" fill="white"/>
<path d="M365.3 549.209V553.787H349.064V549.209H365.3ZM350.653 536.469V567.332H344.824V536.469H350.653ZM369.624 536.469V567.332H363.795V536.469H369.624ZM397.751 562.753V567.332H381.345V562.753H397.751ZM383.125 536.469V567.332H377.296V536.469H383.125ZM395.61 549.209V553.681H381.345V549.209H395.61ZM397.687 536.469V541.069H381.345V536.469H397.687ZM415.809 541.154L407.012 567.332H400.844L412.375 536.469H416.317L415.809 541.154ZM423.164 567.332L414.325 541.154L413.795 536.469H417.759L429.353 567.332H423.164ZM422.761 555.864V560.464H406.207V555.864H422.761ZM453.855 562.753V567.332H438.339V562.753H453.855ZM440.098 536.469V567.332H434.269V536.469H440.098ZM467.652 536.469V567.332H461.845V536.469H467.652ZM477.233 536.469V541.069H452.37V536.469H477.233ZM503.325 549.209V553.787H487.088V549.209H503.325ZM488.678 536.469V567.332H482.849V536.469H488.678ZM507.649 536.469V567.332H501.82V536.469H507.649Z" fill="#B7B8B8"/>
<g clip-path="url(#clip0_584_6887)">
<path d="M525.141 309.812C520.121 309.812 516.031 305.727 516.031 300.713C516.031 295.699 520.121 291.614 525.141 291.614C530.161 291.614 534.251 295.699 534.251 300.713C534.251 305.727 530.161 309.812 525.141 309.812ZM525.141 295.224C522.104 295.224 519.626 297.7 519.626 300.734C519.626 303.767 522.104 306.243 525.141 306.243C528.177 306.243 530.656 303.767 530.656 300.734C530.656 297.7 528.177 295.224 525.141 295.224Z" fill="#E7E8E9"/>
<path d="M423.352 473.541C457.303 473.541 484.827 469.153 484.827 463.74C484.827 458.327 457.303 453.939 423.352 453.939C389.4 453.939 361.877 458.327 361.877 463.74C361.877 469.153 389.4 473.541 423.352 473.541Z" fill="#F3F4F4"/>
<path d="M305.098 435.325C300.078 435.325 295.988 431.239 295.988 426.225C295.988 421.211 300.078 417.126 305.098 417.126C310.118 417.126 314.208 421.211 314.208 426.225C314.208 431.239 310.118 435.325 305.098 435.325ZM305.098 420.716C302.061 420.716 299.583 423.192 299.583 426.225C299.583 429.258 302.061 431.734 305.098 431.734C308.135 431.734 310.613 429.258 310.613 426.225C310.613 423.192 308.135 420.716 305.098 420.716Z" fill="#E7E8E9"/>
<path d="M371.991 406.956H342.059C341.261 406.956 340.613 407.602 340.613 408.4V455.279C340.613 456.077 341.261 456.723 342.059 456.723H371.991C372.79 456.723 373.437 456.077 373.437 455.279V408.4C373.437 407.602 372.79 406.956 371.991 406.956Z" fill="#00B5A0"/>
<path d="M354.307 415.622H340.342C339.544 415.622 338.896 416.268 338.896 417.066V439.618C338.896 440.416 339.544 441.063 340.342 441.063H354.307C355.105 441.063 355.752 440.416 355.752 439.618V417.066C355.752 416.268 355.105 415.622 354.307 415.622Z" fill="#F3F4F4"/>
<path d="M382.314 391.541H338.934C338.136 391.541 337.488 392.188 337.488 392.986V408.172C337.488 408.97 338.136 409.616 338.934 409.616H382.314C383.112 409.616 383.76 408.97 383.76 408.172V392.986C383.76 392.188 383.112 391.541 382.314 391.541Z" fill="#AFBDC2"/>
<path d="M525.127 445.62C524.136 445.62 523.33 444.815 523.33 443.825V426.802C523.33 425.812 524.136 425.007 525.127 425.007C526.119 425.007 526.924 425.812 526.924 426.802V443.825C526.924 444.815 526.119 445.62 525.127 445.62Z" fill="#E7E8E9"/>
<path d="M533.665 437.097H516.623C515.632 437.097 514.826 436.292 514.826 435.301C514.826 434.311 515.632 433.506 516.623 433.506H533.665C534.657 433.506 535.462 434.311 535.462 435.301C535.462 436.292 534.657 437.097 533.665 437.097Z" fill="#E7E8E9"/>
<path d="M481.943 303.787H364.756C362.475 303.787 360.625 305.634 360.625 307.913V459.734C360.625 462.013 362.475 463.861 364.756 463.861H481.943C484.224 463.861 486.074 462.013 486.074 459.734V307.913C486.074 305.634 484.224 303.787 481.943 303.787Z" fill="#D8DEE0"/>
<path d="M474.617 325.945H372.097C370.956 325.945 370.031 326.869 370.031 328.009V455.193C370.031 456.333 370.956 457.257 372.097 457.257H474.617C475.758 457.257 476.683 456.333 476.683 455.193V328.009C476.683 326.869 475.758 325.945 474.617 325.945Z" fill="#BECCD2"/>
<path d="M474.617 322.358H372.097C370.956 322.358 370.031 323.282 370.031 324.422V451.606C370.031 452.746 370.956 453.67 372.097 453.67H474.617C475.758 453.67 476.683 452.746 476.683 451.606V324.422C476.683 323.282 475.758 322.358 474.617 322.358Z" fill="#F3F4F4"/>
<path d="M444.594 339.012H465.251" stroke="#D0D5D6" stroke-width="1.55039" stroke-miterlimit="10" stroke-linecap="round"/>
<path d="M433.416 346.189H465.248" stroke="#D0D5D6" stroke-width="1.55039" stroke-miterlimit="10" stroke-linecap="round"/>
<path d="M433.416 353.347H465.248" stroke="#D0D5D6" stroke-width="1.55039" stroke-miterlimit="10" stroke-linecap="round"/>
<path d="M423.344 372.602H465.257" stroke="#D0D5D6" stroke-width="1.55039" stroke-miterlimit="10" stroke-linecap="round"/>
<path d="M423.344 379.779H465.257" stroke="#D0D5D6" stroke-width="1.55039" stroke-miterlimit="10" stroke-linecap="round"/>
<path d="M381.193 386.941H465.246" stroke="#D0D5D6" stroke-width="1.55039" stroke-miterlimit="10" stroke-linecap="round"/>
<path d="M381.193 394.099H465.246" stroke="#D0D5D6" stroke-width="1.55039" stroke-miterlimit="10" stroke-linecap="round"/>
<path d="M381.193 401.28H465.246" stroke="#D0D5D6" stroke-width="1.55039" stroke-miterlimit="10" stroke-linecap="round"/>
<path d="M381.193 408.438H465.246" stroke="#D0D5D6" stroke-width="1.55039" stroke-miterlimit="10" stroke-linecap="round"/>
<path d="M381.193 415.622H465.246" stroke="#D0D5D6" stroke-width="1.55039" stroke-miterlimit="10" stroke-linecap="round"/>
<path d="M433.416 432.911H465.248" stroke="#D0D5D6" stroke-width="1.55039" stroke-miterlimit="10" stroke-linecap="round"/>
<path d="M341.105 420.302H352.033" stroke="#D0D5D6" stroke-width="0.775194" stroke-miterlimit="10" stroke-linecap="round"/>
<path d="M341.105 425.236H352.033" stroke="#D0D5D6" stroke-width="0.775194" stroke-miterlimit="10" stroke-linecap="round"/>
<path d="M341.105 429.713H348.666" stroke="#D0D5D6" stroke-width="0.775194" stroke-miterlimit="10" stroke-linecap="round"/>
<path d="M340.613 391.541V409.637" stroke="#D0D5D6" stroke-width="0.775194" stroke-miterlimit="10" stroke-linecap="round"/>
<path d="M344.189 391.541V409.637" stroke="#D0D5D6" stroke-width="0.775194" stroke-miterlimit="10" stroke-linecap="round"/>
<path d="M347.779 391.541V409.637" stroke="#D0D5D6" stroke-width="0.775194" stroke-miterlimit="10" stroke-linecap="round"/>
<path d="M351.369 391.541V409.637" stroke="#D0D5D6" stroke-width="0.775194" stroke-miterlimit="10" stroke-linecap="round"/>
<path d="M354.943 391.541V409.637" stroke="#D0D5D6" stroke-width="0.775194" stroke-miterlimit="10" stroke-linecap="round"/>
<path d="M358.547 391.541V409.637" stroke="#D0D5D6" stroke-width="0.775194" stroke-miterlimit="10" stroke-linecap="round"/>
<path d="M289.244 348.232C288.789 348.232 288.335 348.067 287.984 347.717C287.281 347.015 287.281 345.88 287.984 345.179L301.452 331.726C302.154 331.024 303.291 331.024 303.993 331.726C304.695 332.427 304.695 333.562 303.993 334.264L290.525 347.717C290.173 348.067 289.719 348.232 289.265 348.232H289.244Z" fill="#E7E8E9"/>
<path d="M302.719 348.231C302.265 348.231 301.81 348.066 301.459 347.715L287.97 334.242C287.268 333.54 287.268 332.405 287.97 331.704C288.672 331.002 289.809 331.002 290.511 331.704L303.979 345.157C304.682 345.858 304.682 346.993 303.979 347.695C303.628 348.046 303.174 348.211 302.719 348.211V348.231Z" fill="#E7E8E9"/>
<path d="M408.815 334.263H393.343V347.778H379.812V363.232H393.343V376.747H408.815V363.232H422.345V347.778H408.815V334.263ZM418.482 351.636V359.374H404.952V372.889H397.206V359.374H383.675V351.636H397.206V338.121H404.952V351.636H418.482Z" fill="#00B5A0"/>
<path d="M457.177 317.037C454.409 317.037 451.393 314.849 451.393 311.61C451.393 308.371 449.224 302.511 444.679 302.511H437.243C437.387 301.706 437.47 300.86 437.47 299.993C437.47 292.194 431.149 285.88 423.341 285.88C415.532 285.88 409.211 292.194 409.211 299.993C409.211 300.86 409.294 301.685 409.439 302.511H402.002C397.478 302.511 395.289 308.371 395.289 311.61C395.289 314.849 392.273 317.037 389.505 317.037C386.737 317.037 384.113 317.594 384.113 321.824C384.113 326.053 384.774 327.003 386.902 327.003H459.759C461.886 327.003 462.547 326.053 462.547 321.824C462.547 317.594 459.924 317.037 457.156 317.037H457.177ZM423.341 307.937C418.961 307.937 415.408 304.388 415.408 300.014C415.408 295.64 418.961 292.091 423.341 292.091C427.72 292.091 431.273 295.64 431.273 300.014C431.273 304.388 427.72 307.937 423.341 307.937Z" fill="#AFBDC2"/>
<path d="M404.361 317.159H441.874" stroke="#D0D5D6" stroke-width="1.55039" stroke-miterlimit="10" stroke-linecap="round"/>
<path d="M349.135 281.606C351.371 281.606 353.183 279.796 353.183 277.562C353.183 275.328 351.371 273.518 349.135 273.518C346.899 273.518 345.086 275.328 345.086 277.562C345.086 279.796 346.899 281.606 349.135 281.606Z" fill="#E7E8E9"/>
<path d="M568.701 362.736C570.937 362.736 572.75 360.925 572.75 358.692C572.75 356.458 570.937 354.648 568.701 354.648C566.465 354.648 564.652 356.458 564.652 358.692C564.652 360.925 566.465 362.736 568.701 362.736Z" fill="#E7E8E9"/>
<g style="mix-blend-mode:multiply" opacity="0.5">
<path d="M459.408 361.642L457.074 363.933L459.202 361.436C456.909 359.476 457.797 348.622 458.293 342.783C458.376 341.69 458.479 340.617 458.541 339.585C459.223 330.403 458.19 320.499 446.085 310.203L425.655 292.809C419.974 287.981 413.963 285.752 408.613 286.268C407.436 285.319 405.948 284.721 404.317 284.721C400.516 284.721 397.458 287.795 397.458 291.571C397.458 295.347 400.536 298.421 404.317 298.421C407.725 298.421 410.514 295.945 411.071 292.706C415.554 293.139 419.851 296.441 421.4 297.761L441.829 315.155C452.199 323.986 452.53 331.827 451.993 339.09C451.91 340.101 451.827 341.153 451.745 342.226C451.249 348.251 450.753 354.379 451.538 359.207C446.663 359.207 440.673 360.652 434.785 362.096C433.732 362.364 432.699 362.612 431.728 362.839C424.622 364.531 416.835 365.418 406.465 356.587L386.035 339.193C384.217 337.645 379.074 332.755 379.095 327.432C382.152 326.73 384.445 324.027 384.445 320.767C384.445 316.971 381.367 313.917 377.587 313.917C373.806 313.917 370.729 316.991 370.729 320.767C370.729 322.666 371.493 324.378 372.732 325.616C371.947 331.786 375.149 338.512 381.821 344.186L402.251 361.58C410.266 368.41 417.33 370.473 423.796 370.473C427.101 370.473 430.241 369.937 433.257 369.215C434.248 368.988 435.302 368.719 436.376 368.451C442.036 367.048 452.55 364.469 454.905 366.388C476.76 388.589 481.491 410.791 468.931 432.394C459.202 449.149 435.777 459.672 414.459 456.866C404.75 455.586 387.585 450.222 381.759 428.701C378.227 415.702 385.643 404.065 394.794 399.298C404.151 394.429 413.922 396.513 420.945 404.89L425.965 400.701C416.959 389.972 403.862 387.228 391.778 393.521C380.313 399.505 371.018 414.092 375.459 430.434C380.437 448.839 394.36 460.848 413.612 463.365C416.153 463.695 418.735 463.86 421.317 463.86C442.821 463.86 464.779 452.574 474.591 435.696C488.844 411.162 483.742 386.258 459.408 361.642Z" fill="#CECECE"/>
</g>
<g style="mix-blend-mode:multiply" opacity="0.5">
<path d="M424.201 414.9C433.008 414.9 440.148 407.769 440.148 398.971C440.148 390.174 433.008 383.042 424.201 383.042C415.394 383.042 408.254 390.174 408.254 398.971C408.254 407.769 415.394 414.9 424.201 414.9Z" fill="#CECECE"/>
</g>
<path d="M425.047 412.276C433.854 412.276 440.994 405.144 440.994 396.347C440.994 387.55 433.854 380.418 425.047 380.418C416.239 380.418 409.1 387.55 409.1 396.347C409.1 405.144 416.239 412.276 425.047 412.276Z" fill="white"/>
<path d="M421.328 457.301C418.746 457.301 416.164 457.136 413.623 456.806C394.35 454.268 380.448 442.259 375.47 423.875C371.049 407.533 380.324 392.945 391.789 386.961C403.873 380.668 416.97 383.413 425.976 394.142L420.956 398.331C413.933 389.953 404.162 387.869 394.805 392.739C385.654 397.505 378.238 409.142 381.77 422.142C387.595 443.683 404.761 449.027 414.47 450.306C435.788 453.112 459.192 442.589 468.942 425.835C481.543 404.17 473.383 382.092 451.384 359.849L455.619 354.876C479.952 379.492 488.855 404.603 474.602 429.116C464.79 445.994 442.853 457.28 421.328 457.28V457.301Z" fill="#AFBDC2"/>
<path d="M420.216 363.934C413.75 363.934 406.665 361.871 398.67 355.041L378.241 337.647C370.35 330.921 367.251 322.729 369.957 315.734L376.051 318.087C373.593 324.442 380.348 330.859 382.475 332.674L402.905 350.068C413.275 358.9 421.083 357.992 428.168 356.32C429.139 356.093 430.172 355.846 431.226 355.578C440.831 353.205 450.767 350.77 455.621 354.897L451.387 359.869C449.094 357.909 438.497 360.509 432.816 361.912C431.742 362.18 430.709 362.428 429.697 362.675C426.661 363.398 423.521 363.934 420.236 363.934H420.216Z" fill="white"/>
<path d="M451.361 359.868C446.507 355.742 447.354 345.549 448.18 335.707C448.263 334.634 448.366 333.581 448.428 332.57C448.965 325.307 448.635 317.467 438.265 308.636L417.835 291.242C415.708 289.426 408.292 283.772 402.405 287.197L399.1 281.564C405.586 277.789 414.158 279.542 422.07 286.269L442.5 303.663C454.605 313.959 455.637 323.884 454.956 333.045C454.873 334.056 454.791 335.129 454.708 336.243C454.233 342.082 453.324 352.936 455.617 354.896L451.382 359.868H451.361Z" fill="white"/>
<path d="M424.207 408.708C428.952 408.708 432.8 404.865 432.8 400.125C432.8 395.384 428.952 391.541 424.207 391.541C419.461 391.541 415.613 395.384 415.613 400.125C415.613 404.865 419.461 408.708 424.207 408.708Z" fill="#CCCFD1"/>
<path d="M425.062 404.932C429.808 404.932 433.655 401.089 433.655 396.349C433.655 391.608 429.808 387.765 425.062 387.765C420.316 387.765 416.469 391.608 416.469 396.349C416.469 401.089 420.316 404.932 425.062 404.932Z" fill="#909DA0"/>
<path d="M374.01 321.081C377.798 321.081 380.869 318.014 380.869 314.231C380.869 310.447 377.798 307.38 374.01 307.38C370.223 307.38 367.152 310.447 367.152 314.231C367.152 318.014 370.223 321.081 374.01 321.081Z" fill="#AFBDC2"/>
<path d="M400.77 291.903C404.558 291.903 407.628 288.836 407.628 285.052C407.628 281.269 404.558 278.202 400.77 278.202C396.983 278.202 393.912 281.269 393.912 285.052C393.912 288.836 396.983 291.903 400.77 291.903Z" fill="#AFBDC2"/>
</g>
</g>
<path d="M358.289 105V87.84H364.889C368.057 87.84 370.433 89.184 370.433 92.784C370.433 96.384 368.057 97.752 364.889 97.752H360.041V105H358.289ZM360.041 96.216H365.057C367.385 96.216 368.609 95.136 368.609 92.784C368.609 90.456 367.385 89.376 365.057 89.376H360.041V96.216ZM374.336 98.16V105H372.776V92.76H374.336V95.256H374.384C375.008 93.648 376.136 92.472 377.864 92.472C378.296 92.472 378.632 92.496 378.92 92.544V94.08C378.68 94.032 378.416 94.008 378.176 94.008C375.968 94.008 374.336 95.784 374.336 98.16ZM385.589 105.336C381.917 105.336 379.709 102.696 379.709 98.904C379.709 95.088 381.917 92.448 385.589 92.448C389.261 92.448 391.469 95.088 391.469 98.904C391.469 102.696 389.261 105.336 385.589 105.336ZM381.341 98.904C381.341 101.712 382.733 103.968 385.589 103.968C388.445 103.968 389.837 101.712 389.837 98.904C389.837 96.072 388.445 93.816 385.589 93.816C382.733 93.816 381.341 96.072 381.341 98.904ZM398.878 105.312C395.902 105.312 393.502 102.912 393.502 98.88C393.502 94.872 395.902 92.472 398.878 92.472C401.014 92.472 402.286 93.528 403.006 94.824H403.054V87.84H404.614V105H403.054V103.008H403.006C402.31 104.208 401.014 105.312 398.878 105.312ZM395.134 98.88C395.134 101.64 396.526 103.944 399.07 103.944C401.422 103.944 403.054 101.976 403.054 98.88C403.054 95.808 401.422 93.84 399.07 93.84C396.526 93.84 395.134 96.144 395.134 98.88ZM411.902 105.288C409.718 105.288 407.894 104.064 407.894 101.352V92.76H409.454V101.016C409.454 102.576 410.174 103.92 412.286 103.92C414.614 103.92 416.15 102.288 416.15 100.488V92.76H417.71V105H416.15V103.272H416.102C415.406 104.28 414.086 105.288 411.902 105.288ZM426.263 105.312C422.759 105.312 420.407 102.72 420.407 98.88C420.407 95.064 422.759 92.472 426.263 92.472C429.239 92.472 431.255 94.464 431.519 97.056H429.887C429.791 95.688 428.807 93.84 426.263 93.84C423.263 93.84 422.039 96.384 422.039 98.88C422.039 101.4 423.263 103.968 426.263 103.968C428.831 103.968 429.791 102.12 429.887 100.632H431.519C431.351 103.272 429.239 105.312 426.263 105.312ZM437.58 105.096C435.804 105.096 434.7 104.496 434.7 101.832V94.128H432.9V92.76H434.7V88.68H436.26V92.76H438.732V94.128H436.26V101.856C436.26 103.368 436.596 103.728 437.796 103.728C438.18 103.728 438.372 103.704 438.732 103.68V105C438.252 105.072 437.964 105.096 437.58 105.096ZM454.356 105.312C449.7 105.312 446.484 101.64 446.484 96.432C446.484 91.248 449.676 87.528 454.38 87.528C458.388 87.528 461.004 90.096 461.436 93.312H459.612C459.276 91.392 457.86 89.064 454.356 89.064C450.204 89.064 448.308 92.592 448.308 96.432C448.308 100.272 450.228 103.776 454.356 103.776C457.98 103.776 459.492 101.28 459.684 98.904H461.508C461.1 102.648 458.436 105.312 454.356 105.312ZM467.539 105.312C465.091 105.312 463.531 103.944 463.531 101.904C463.531 99.264 465.403 98.424 468.571 97.872C470.587 97.512 471.883 97.368 471.883 95.904C471.883 94.656 471.067 93.816 469.099 93.816C466.723 93.816 465.883 94.656 465.763 96.456H464.107C464.227 94.296 465.595 92.448 469.147 92.448C471.403 92.448 473.395 93.408 473.395 96.336V102.456C473.395 103.44 473.539 103.896 474.091 103.896C474.187 103.896 474.283 103.896 474.427 103.872V105C474.163 105.048 473.899 105.096 473.611 105.096C472.579 105.096 471.979 104.688 471.883 103.152H471.835C470.995 104.544 469.531 105.312 467.539 105.312ZM465.163 101.76C465.163 103.176 465.955 103.944 467.731 103.944C470.227 103.944 471.883 102.624 471.883 100.416V98.136C471.523 98.64 470.227 98.928 468.763 99.168C466.387 99.6 465.163 100.2 465.163 101.76ZM478.547 98.16V105H476.987V92.76H478.547V95.256H478.595C479.219 93.648 480.347 92.472 482.075 92.472C482.507 92.472 482.843 92.496 483.131 92.544V94.08C482.891 94.032 482.627 94.008 482.387 94.008C480.179 94.008 478.547 95.784 478.547 98.16ZM489.343 105.312C486.367 105.312 483.967 102.912 483.967 98.88C483.967 94.872 486.367 92.472 489.343 92.472C491.479 92.472 492.751 93.528 493.471 94.824H493.519V87.84H495.079V105H493.519V103.008H493.471C492.775 104.208 491.479 105.312 489.343 105.312ZM485.599 98.88C485.599 101.64 486.991 103.944 489.535 103.944C491.887 103.944 493.519 101.976 493.519 98.88C493.519 95.808 491.887 93.84 489.535 93.84C486.991 93.84 485.599 96.144 485.599 98.88Z" fill="#2C2C2C"/>
<path d="M393.304 765V747.84H400.144C403.528 747.84 405.568 749.472 405.568 752.16C405.568 754.2 404.392 755.256 402.856 755.784V755.832C404.776 756.192 406.264 757.608 406.264 760.08C406.264 763.32 404.008 765 400.6 765H393.304ZM395.056 763.464H400.672C403.384 763.464 404.44 762.072 404.44 760.08C404.44 758.064 403.144 756.744 401.104 756.744H395.056V763.464ZM395.056 755.208H400.48C402.856 755.208 403.744 754.032 403.744 752.328C403.744 750.576 402.688 749.376 400.48 749.376H395.056V755.208ZM414.287 765.336C410.543 765.336 408.455 762.6 408.455 758.88C408.455 754.968 410.759 752.448 414.287 752.448C417.815 752.448 419.807 754.92 419.807 758.328C419.807 758.664 419.807 759 419.783 759.192H410.087C410.111 761.664 411.431 763.992 414.311 763.992C416.831 763.992 417.815 762.264 418.055 761.256H419.639C419.039 763.488 417.359 765.336 414.287 765.336ZM410.087 757.824H418.151C418.151 755.64 416.735 753.792 414.215 753.792C411.839 753.792 410.207 755.544 410.087 757.824ZM422.983 750.96C422.983 748.296 424.039 747.696 425.791 747.696C426.127 747.696 426.415 747.72 426.967 747.792V749.112C426.535 749.088 426.343 749.064 426.007 749.064C424.831 749.064 424.543 749.424 424.543 750.936V752.76H426.967V754.128H424.543V765H422.983V754.128H421.255V752.76H422.983V750.96ZM433.904 765.336C430.232 765.336 428.024 762.696 428.024 758.904C428.024 755.088 430.232 752.448 433.904 752.448C437.576 752.448 439.784 755.088 439.784 758.904C439.784 762.696 437.576 765.336 433.904 765.336ZM429.656 758.904C429.656 761.712 431.048 763.968 433.904 763.968C436.76 763.968 438.152 761.712 438.152 758.904C438.152 756.072 436.76 753.816 433.904 753.816C431.048 753.816 429.656 756.072 429.656 758.904ZM444.025 758.16V765H442.465V752.76H444.025V755.256H444.073C444.697 753.648 445.825 752.472 447.553 752.472C447.985 752.472 448.321 752.496 448.609 752.544V754.08C448.369 754.032 448.105 754.008 447.865 754.008C445.657 754.008 444.025 755.784 444.025 758.16ZM455.254 765.336C451.51 765.336 449.422 762.6 449.422 758.88C449.422 754.968 451.726 752.448 455.254 752.448C458.782 752.448 460.774 754.92 460.774 758.328C460.774 758.664 460.774 759 460.75 759.192H451.054C451.078 761.664 452.398 763.992 455.278 763.992C457.798 763.992 458.782 762.264 459.022 761.256H460.606C460.006 763.488 458.326 765.336 455.254 765.336ZM451.054 757.824H459.118C459.118 755.64 457.702 753.792 455.182 753.792C452.806 753.792 451.174 755.544 451.054 757.824Z" fill="#2C2C2C"/>
<defs>
<filter id="filter0_d_584_6887" x="195.333" y="171.467" width="461.333" height="521.333" filterUnits="userSpaceOnUse" color-interpolation-filters="sRGB">
<feFlood flood-opacity="0" result="BackgroundImageFix"/>
<feColorMatrix in="SourceAlpha" type="matrix" values="0 0 0 0 0 0 0 0 0 0 0 0 0 0 0 0 0 0 127 0" result="hardAlpha"/>
<feOffset dy="6.13333"/>
<feGaussianBlur stdDeviation="15.3333"/>
<feComposite in2="hardAlpha" operator="out"/>
<feColorMatrix type="matrix" values="0 0 0 0 0 0 0 0 0 0 0 0 0 0 0 0 0 0 0.04 0"/>
<feBlend mode="normal" in2="BackgroundImageFix" result="effect1_dropShadow_584_6887"/>
<feBlend mode="normal" in="SourceGraphic" in2="effect1_dropShadow_584_6887" result="shape"/>
</filter>
<clipPath id="clip0_584_6887">
<rect width="285.271" height="200" fill="white" transform="translate(287.484 273.521)"/>
</clipPath>
</defs>
</svg>
