<svg width="101" height="20" viewBox="0 0 101 20" fill="none" xmlns="http://www.w3.org/2000/svg">
<path d="M59.9201 14.6338C59.9201 15.2832 59.8978 15.9332 59.9262 16.5813C59.9557 17.266 59.9364 17.9536 60.0305 18.6353C60.0775 18.9791 60.1819 19.1113 60.5172 19.189C60.6849 19.2279 60.8586 19.244 61.0263 19.2829C61.1204 19.305 61.2217 19.3355 61.2977 19.3911C61.4805 19.5256 61.4817 19.6679 61.2826 19.7995C61.1958 19.8575 61.0764 19.8868 60.9702 19.8922C60.7736 19.9017 60.5757 19.8862 60.3785 19.8772C60.2923 19.873 60.2066 19.8491 60.121 19.8491C59.4044 19.8479 58.6873 19.8455 57.9708 19.8539C57.4768 19.8593 56.9834 19.8958 56.4894 19.8898C56.2078 19.8862 55.9267 19.8288 55.6462 19.7899C55.5738 19.7798 55.5027 19.7529 55.4345 19.7248C55.3024 19.6703 55.2771 19.5137 55.3941 19.4306C55.493 19.36 55.6064 19.3086 55.7186 19.259C55.876 19.189 56.0383 19.1298 56.1975 19.0628C56.4201 18.9695 56.5497 18.7985 56.5926 18.5659C56.6239 18.3979 56.6607 18.2281 56.6655 18.0583C56.6897 17.1518 56.6861 16.2453 56.6185 15.34C56.604 15.1451 56.6034 14.9483 56.6034 14.7522C56.6028 11.836 56.5986 8.92044 56.6064 6.00425C56.6082 5.35548 56.6565 4.7073 56.6722 4.05793C56.6818 3.65372 56.6873 3.24831 56.6631 2.84529C56.6462 2.56665 56.592 2.28741 56.525 2.01534C56.4852 1.8527 56.4044 1.69365 56.3151 1.54954C56.1571 1.29362 55.9231 1.15011 55.6106 1.14473C55.5129 1.14294 55.4134 1.13337 55.3187 1.11124C55.2433 1.09331 55.1896 1.0359 55.1915 0.950994C55.1969 0.614948 55.1619 0.485193 55.5883 0.529441C56.4882 0.622721 57.3899 0.614948 58.291 0.588638C59.1053 0.56472 59.9189 0.507915 60.7326 0.466059C60.8315 0.461275 60.9304 0.461873 61.0287 0.458285C61.5721 0.437357 62.115 0.405666 62.6584 0.397893C63.1518 0.391315 63.6458 0.409254 64.1397 0.421213C64.3623 0.426594 64.5843 0.439151 64.8062 0.452904C65.5228 0.49775 66.2278 0.607174 66.9112 0.832003C67.217 0.932458 67.5089 1.0652 67.7791 1.2404C68.4866 1.69962 68.8787 2.3484 68.9535 3.18313C69.0059 3.7739 68.9764 4.3581 68.7858 4.92615C68.5958 5.49241 68.2858 5.9887 67.8859 6.43298C67.4552 6.91134 66.9558 7.31076 66.4293 7.6779C66.1663 7.86088 65.8961 8.03309 65.6319 8.21367C65.4932 8.30874 65.4836 8.3494 65.5589 8.48513C65.6187 8.59217 65.6856 8.69561 65.7489 8.80025C67.0348 10.9254 68.1621 13.1282 69.0421 15.4506C69.1941 15.8513 69.3298 16.2585 69.4776 16.6609C69.6555 17.1446 69.7942 17.6403 69.8944 18.1444C69.9824 18.5875 70.2008 18.9385 70.5639 19.2075C70.6724 19.2883 70.7744 19.3779 70.8715 19.4718C70.9764 19.5723 70.9662 19.6542 70.8467 19.7451C70.6652 19.8832 70.4571 19.9568 70.2309 19.9723C70.009 19.9873 69.7864 20.001 69.5644 19.9998C68.5512 19.9956 67.5379 19.9861 66.5246 19.9777C66.1916 19.9747 65.8569 19.9879 65.5306 19.8982C65.4594 19.8784 65.3877 19.8611 65.3183 19.8366C65.1512 19.7786 65.1048 19.6608 65.2182 19.534C65.2887 19.4551 65.3877 19.3935 65.4848 19.3475C65.9516 19.128 65.9624 19.1304 65.9401 18.6347C65.8509 16.6962 65.3569 14.8682 64.413 13.1635C63.8394 12.1278 63.1373 11.1831 62.3719 10.2814C62.34 10.2437 62.3116 10.1977 62.2706 10.1761C62.2193 10.1492 62.1578 10.1409 62.0993 10.1313C62.0776 10.1277 62.0523 10.1444 62.0287 10.1516C61.4401 10.3346 60.852 10.517 60.2633 10.6993C60.2277 10.7101 60.1915 10.7179 60.1566 10.7286C60.0257 10.7699 59.9449 10.8458 59.9551 10.9947C59.9605 11.0677 59.9563 11.1418 59.9563 11.2154C59.9557 11.9257 59.9599 12.6367 59.9533 13.347C59.9491 13.7758 59.9274 14.2039 59.9135 14.632L59.9201 14.6338ZM65.4039 4.25107C65.4208 3.12095 65.0149 2.45543 64.2254 2.01175C64.1289 1.95734 64.0288 1.90831 63.9274 1.86406C63.5517 1.70022 63.1596 1.60993 62.7507 1.56389C62.1952 1.5023 61.668 1.58422 61.1602 1.79948C60.6349 2.02252 60.2633 2.40102 60.0637 2.93379C59.9913 3.12812 59.9418 3.33142 59.8942 3.53353C59.8284 3.80918 59.8224 4.09082 59.8134 4.37305C59.7826 5.35667 59.937 6.32774 60.0009 7.30479C60.0401 7.90512 60.0721 8.50247 59.9822 9.10042C59.975 9.14886 59.9726 9.19789 59.9702 9.24692C59.9623 9.42092 60.016 9.46876 60.1933 9.41315C60.6047 9.28399 61.016 9.15244 61.4208 9.00535C62.089 8.76198 62.6886 8.40023 63.2151 7.92486C63.4618 7.70242 63.7037 7.47341 63.928 7.22944C64.4051 6.71043 64.8074 6.14058 65.0843 5.48822C65.2821 5.02003 65.3919 4.53449 65.4039 4.25107Z" fill="#2C2C2C"/>
<path d="M20.6189 0.466797C21.4422 0.490117 22.2329 0.509849 23.023 0.537953C23.2323 0.545726 23.441 0.578613 23.6491 0.603727C23.742 0.615088 23.8023 0.691625 23.7806 0.787297C23.7625 0.86802 23.7323 0.95233 23.6853 1.0199C23.622 1.10959 23.5381 1.18433 23.4615 1.26446C23.3005 1.43428 23.216 1.63519 23.2486 1.86779C23.2812 2.0974 23.3192 2.32761 23.3795 2.55064C23.6889 3.69691 24.0074 4.84078 24.3204 5.98645C25.2113 9.24586 26.0997 12.5059 26.9923 15.7647C27.1576 16.3674 27.3078 16.9725 27.4037 17.5902C27.4206 17.699 27.4525 17.8049 27.4731 17.9131C27.5605 18.3747 27.7758 18.7616 28.1401 19.0683C28.2994 19.2029 28.4429 19.3566 28.5883 19.5066C28.6516 19.5718 28.6395 19.631 28.5702 19.6944C28.3687 19.878 28.116 19.9384 27.8573 19.9671C27.6492 19.9904 27.4381 19.9952 27.2282 19.9946C25.9923 19.9892 24.7565 19.979 23.5206 19.9706C23.21 19.9683 22.9066 19.915 22.6093 19.8295C22.4706 19.7895 22.4392 19.7213 22.4639 19.582C22.4868 19.4552 22.549 19.3494 22.6412 19.2669C22.7414 19.1772 22.8554 19.1018 22.9633 19.0211C23.0815 18.9326 23.2076 18.8531 23.3174 18.7556C23.4501 18.6372 23.5206 18.4859 23.5249 18.3012C23.5442 17.3738 23.4259 16.4697 23.09 15.5985C22.4844 14.0276 21.3789 12.9651 19.7878 12.3905C19.1207 12.1495 18.4289 12.0413 17.725 11.9869C17.5989 11.9773 17.5085 12.0275 17.4626 12.1453C17.3872 12.339 17.3034 12.531 17.2437 12.7301C17.117 13.1523 16.9922 13.5756 16.8878 14.0031C16.699 14.7781 16.4505 15.5327 16.1671 16.2777C16.0103 16.6903 15.8601 17.1065 15.7955 17.5442C15.7654 17.7487 15.7527 17.9598 15.766 18.1654C15.7859 18.4674 15.9071 18.7347 16.1351 18.9452C16.2346 19.0373 16.3378 19.1246 16.4379 19.216C16.5664 19.3332 16.6767 19.463 16.7485 19.6232C16.804 19.7482 16.7913 19.8014 16.6478 19.8379C16.4337 19.8923 16.2159 19.9342 15.997 19.9647C15.8637 19.9832 15.7256 19.9724 15.5899 19.973C14.7497 19.9754 13.9089 19.9802 13.0687 19.979C12.7979 19.9784 12.5223 20.0023 12.2629 19.8989C12.1501 19.854 12.0397 19.7978 11.9378 19.7327C11.8703 19.689 11.8528 19.6071 11.8986 19.5365C11.9517 19.4558 12.0096 19.3733 12.082 19.3105C12.1652 19.2394 12.2641 19.1849 12.3606 19.1305C12.4999 19.0516 12.6423 18.9769 12.7852 18.9051C13.1344 18.7305 13.3673 18.4578 13.4915 18.0919C13.5663 17.8713 13.6489 17.653 13.7135 17.43C14.5603 14.5138 15.4059 11.597 16.2491 8.67961C16.6912 7.15006 17.1225 5.61811 17.5682 4.08976C17.6912 3.66701 17.8517 3.25503 17.9874 2.83587C18.0628 2.60326 18.1255 2.36648 18.1894 2.13029C18.2534 1.89529 18.178 1.69379 18.0175 1.52217C17.9343 1.43248 17.8348 1.35774 17.7461 1.27283C17.6574 1.18792 17.5688 1.10242 17.4898 1.00914C17.4096 0.91466 17.4096 0.810019 17.4747 0.702388C17.5085 0.646181 17.5483 0.606717 17.6158 0.599541C17.8245 0.578015 18.0326 0.542736 18.2419 0.535561C19.0459 0.508653 19.8487 0.488921 20.6189 0.466797ZM21.9965 11.3734C21.9892 11.3285 21.9856 11.2926 21.9766 11.2574C21.8939 10.9375 21.8107 10.6176 21.7275 10.2977C21.1828 8.21201 20.6388 6.12697 20.0936 4.04133C20.0658 3.93489 20.0381 3.82607 19.9892 3.7292C19.9669 3.68495 19.8963 3.65087 19.842 3.63951C19.7715 3.62456 19.7329 3.68555 19.7112 3.74475C19.6943 3.79019 19.6913 3.84042 19.6792 3.88825C19.4952 4.61177 19.3227 5.33887 19.1237 6.0582C18.7654 7.35635 18.3903 8.65031 18.0242 9.94666C17.9053 10.367 17.9078 10.3766 18.3553 10.3694C19.1339 10.3568 19.877 10.5147 20.5893 10.8143C20.953 10.9674 21.3053 11.1461 21.6629 11.3118C21.7407 11.3476 21.8198 11.3841 21.9012 11.4092C21.9259 11.4164 21.9627 11.3871 21.9965 11.3734Z" fill="#2C2C2C"/>
<path d="M97.3264 19.9727C96.6219 19.9727 95.9175 19.9745 95.2136 19.9721C94.9259 19.9709 94.6508 19.9016 94.3891 19.788C94.1979 19.7049 94.1719 19.6205 94.2968 19.4465C94.374 19.3389 94.4759 19.245 94.5791 19.1601C94.6732 19.0824 94.789 19.0304 94.8867 18.9562C94.994 18.8749 95.0978 18.7864 95.1907 18.6901C95.2685 18.6094 95.3095 18.506 95.3113 18.39C95.3228 17.6545 95.3221 16.9184 95.1509 16.1973C94.9663 15.4194 94.5815 14.7401 94.067 14.1302C93.2431 13.1537 92.2208 12.4816 90.9741 12.1516C90.5778 12.0469 90.1737 12.0063 89.7684 11.9716C89.6707 11.9632 89.5705 11.971 89.4722 11.9758C89.3637 11.9812 89.2859 12.0356 89.2473 12.1384C89.1791 12.322 89.1031 12.5038 89.0482 12.6909C88.9222 13.1256 88.7967 13.5615 88.6887 14.001C88.4994 14.7754 88.2611 15.5336 87.9734 16.2768C87.8136 16.6882 87.6676 17.1062 87.5995 17.5427C87.5657 17.7585 87.556 17.9822 87.5699 18.2004C87.588 18.4755 87.7008 18.7218 87.9022 18.9203C87.9897 19.0064 88.085 19.086 88.1688 19.1757C88.269 19.2833 88.3709 19.3915 88.4529 19.5123C88.5832 19.7049 88.5416 19.782 88.2991 19.8262C87.8377 19.9105 87.3733 19.9739 86.9028 19.9745C86.3099 19.9751 85.7158 19.9901 85.1241 19.9632C84.7194 19.9446 84.3165 19.8699 83.9142 19.8095C83.758 19.7862 83.6838 19.6409 83.7616 19.5027C83.8195 19.3993 83.9064 19.303 84.0023 19.2319C84.1398 19.1302 84.2918 19.0429 84.4468 18.9694C84.8841 18.7631 85.1645 18.4258 85.3395 17.9846C85.5433 17.4709 85.7074 16.9453 85.8365 16.4096C86.2382 14.7425 86.7605 13.1083 87.2285 11.4598C87.8202 9.37471 88.4137 7.29086 89.0078 5.20642C89.2394 4.39381 89.4764 3.58299 89.7931 2.79729C89.857 2.63883 89.9053 2.4726 89.9463 2.30637C90.0422 1.91531 89.962 1.57987 89.6188 1.32813C89.5006 1.24143 89.3914 1.13978 89.2889 1.03454C89.1755 0.918535 89.2177 0.787585 89.2768 0.659026C89.3245 0.555581 89.4059 0.517313 89.5144 0.519704C89.6007 0.521498 89.6876 0.52389 89.7738 0.523292C90.5525 0.517313 91.3311 0.514921 92.1092 0.502962C92.4668 0.49758 92.8251 0.457518 93.1828 0.463497C93.7136 0.472466 94.2443 0.49758 94.7739 0.536447C95.0182 0.554385 95.26 0.616572 95.5007 0.668593C95.6382 0.698491 95.6852 0.836617 95.599 0.947237C95.555 1.00344 95.4934 1.04829 95.4325 1.08775C95.3608 1.13439 95.2799 1.16728 95.2057 1.21033C95.0749 1.28627 95.02 1.40526 95.0332 1.55116C95.0423 1.64803 95.0622 1.7449 95.0863 1.83937C95.6533 4.05716 96.207 6.27794 96.7926 8.49094C97.488 11.1177 98.2154 13.7367 98.9205 16.3611C99.0375 16.7976 99.1093 17.2461 99.2022 17.6892C99.2251 17.7968 99.2504 17.9038 99.274 18.0115C99.3693 18.4456 99.5804 18.8061 99.9326 19.0884C100.085 19.2103 100.22 19.3562 100.356 19.498C100.415 19.559 100.401 19.6361 100.336 19.6923C100.131 19.8675 99.8837 19.9488 99.6226 19.9656C99.2902 19.9871 98.9561 19.9889 98.6226 19.9865C98.1901 19.9835 97.7577 19.9685 97.3252 19.959C97.3264 19.9644 97.3264 19.9685 97.3264 19.9727ZM93.7612 11.2971C93.7564 11.2714 93.7479 11.211 93.7329 11.1518C93.3456 9.62346 92.9669 8.09271 92.5658 6.56735C92.3323 5.68059 92.0633 4.8034 91.8082 3.92262C91.7811 3.82994 91.7395 3.74085 91.6996 3.65295C91.6924 3.63621 91.658 3.62245 91.6375 3.62365C91.6182 3.62485 91.5899 3.64458 91.5838 3.66252C91.5477 3.76656 91.5145 3.8718 91.4849 3.97763C90.9246 5.96641 90.3655 7.95518 89.8046 9.94336C89.6851 10.3667 89.6815 10.3751 90.1278 10.3685C90.8022 10.3583 91.4572 10.4642 92.0832 10.7028C92.5314 10.8732 92.9614 11.0884 93.3993 11.2852C93.4886 11.3252 93.576 11.3713 93.6659 11.4101C93.7111 11.4293 93.7666 11.3826 93.7612 11.2971Z" fill="#2C2C2C"/>
<path d="M48.3508 19.8962C48.1282 19.8962 47.9056 19.8962 47.6837 19.8962C46.4725 19.8968 45.2608 19.8986 44.0497 19.8956C43.8277 19.895 43.6058 19.8693 43.3838 19.8627C43.2487 19.8585 43.113 19.8669 42.9779 19.8723C42.8181 19.8783 42.657 19.8992 42.4978 19.892C42.3181 19.883 42.1793 19.7641 42.1426 19.6176C42.0816 19.3778 42.18 19.2086 42.4266 19.1452C42.5696 19.1087 42.7174 19.089 42.8621 19.0597C43.0901 19.013 43.2361 18.8982 43.2566 18.6453C43.294 18.1819 43.3549 17.7203 43.3917 17.2569C43.5183 15.6544 43.4622 14.0483 43.4634 12.4434C43.4653 10.0295 43.4713 7.61496 43.4586 5.20104C43.4532 4.14746 43.4074 3.09447 43.3778 2.04149C43.3742 1.91951 43.3573 1.79753 43.3482 1.67495C43.332 1.44773 43.1975 1.31857 42.9888 1.25997C42.8344 1.21752 42.6739 1.19599 42.5195 1.15473C42.426 1.12962 42.3301 1.09613 42.2505 1.04411C42.1305 0.965781 42.1124 0.833037 42.2059 0.727798C42.2698 0.656044 42.347 0.584888 42.4333 0.547816C42.5443 0.49998 42.6697 0.466495 42.7903 0.463505C43.0865 0.454536 43.3832 0.461711 43.68 0.471876C43.9387 0.480846 44.1969 0.508949 44.4556 0.516722C45.1468 0.538248 45.8398 0.506557 46.5298 0.580703C46.6282 0.591466 46.7277 0.589074 46.826 0.592064C47.4436 0.611198 48.0612 0.624951 48.6783 0.650065C49.4702 0.681756 50.2597 0.627343 51.0492 0.585486C51.5028 0.561568 51.9558 0.494 52.3858 0.318802C52.5655 0.245254 52.7676 0.224924 52.9606 0.184264C53.0083 0.174098 53.0595 0.174098 53.1078 0.178882C53.2405 0.192037 53.3364 0.247048 53.3756 0.38936C53.4576 0.684148 53.5571 0.974152 53.6379 1.26954C53.8858 2.17961 54.0825 3.10165 54.2405 4.03146C54.296 4.35734 54.3472 4.68382 54.3895 5.01149C54.4082 5.1568 54.4124 5.30568 54.4021 5.45158C54.3961 5.54606 54.3659 5.64472 54.3231 5.72963C54.2513 5.87314 54.1186 5.90303 53.9805 5.82231C53.8159 5.72604 53.694 5.58672 53.6126 5.4187C53.5276 5.2423 53.4431 5.06352 53.3858 4.87696C53.0722 3.86164 52.4129 3.10105 51.589 2.46185C51.077 2.06481 50.5088 1.77899 49.8737 1.62651C49.2024 1.46447 48.5534 1.53264 47.9141 1.78019C47.4955 1.94283 47.2198 2.23522 47.0624 2.64601C46.9291 2.99342 46.8628 3.35697 46.8537 3.72411C46.8381 4.34837 46.8525 4.97382 46.8555 5.59868C46.8555 5.64711 46.8616 5.69674 46.8706 5.74458C46.8851 5.82052 46.9219 5.88091 47.0033 5.90423C47.0624 5.92097 47.1203 5.95147 47.18 5.95625C47.4382 5.97838 47.6969 6.00767 47.9557 6.00767C48.4129 6.00708 48.8701 5.96881 49.326 5.98077C49.7048 5.99033 49.934 5.81812 50.0685 5.49284C50.1294 5.34634 50.168 5.19088 50.2163 5.0396C50.2832 4.82972 50.3405 4.61685 50.4189 4.41175C50.4871 4.23476 50.6113 4.10321 50.7989 4.03325C50.893 3.99857 50.966 4.01472 51.0396 4.07092C51.162 4.1654 51.2302 4.29695 51.2712 4.43866C51.3086 4.56782 51.3339 4.70116 51.3502 4.8345C51.4744 5.86716 51.6047 6.89981 51.7127 7.93426C51.7682 8.47002 51.7959 9.00997 51.7344 9.54872C51.7205 9.66951 51.6946 9.79029 51.6626 9.90749C51.6258 10.0444 51.545 10.0833 51.4147 10.0456C51.2766 10.0061 51.1729 9.91945 51.1041 9.79986C51.0432 9.69462 50.9937 9.58101 50.9539 9.4662C50.9099 9.33944 50.8761 9.20789 50.8496 9.07634C50.7338 8.49872 50.4232 8.0395 49.9835 7.65741C49.9183 7.6012 49.8508 7.54739 49.785 7.49118C49.6397 7.36681 49.4792 7.30881 49.279 7.3118C48.5872 7.32256 47.8948 7.31598 47.2024 7.31598C47.1408 7.31598 47.0787 7.31718 47.0172 7.32196C46.9472 7.32794 46.9014 7.36621 46.9044 7.43916C46.9086 7.53722 46.9201 7.63469 46.9279 7.73215C46.9484 7.98808 46.9834 8.244 46.987 8.49992C46.9967 9.17381 46.9973 9.8465 46.9352 10.5198C46.8815 11.1052 46.8755 11.6942 46.8218 12.2795C46.7373 13.1968 46.7385 14.1152 46.7663 15.0337C46.7826 15.5736 46.8718 16.1052 47.051 16.6189C47.1366 16.8634 47.2476 17.0948 47.4008 17.3047C47.706 17.7227 48.1143 17.9636 48.6336 18.0384C49.434 18.1544 50.1493 17.9457 50.8092 17.5086C51.2652 17.206 51.6463 16.8228 51.9962 16.4072C52.3532 15.9826 52.6651 15.5264 52.9503 15.0522C53.2477 14.5583 53.5426 14.062 53.7742 13.5322C53.8231 13.421 53.8822 13.308 53.9618 13.2177C54.0408 13.1286 54.1458 13.0569 54.2501 12.9965C54.3533 12.9367 54.4443 12.9702 54.5004 13.0706C54.5867 13.2243 54.6349 13.3881 54.6012 13.5639C54.5758 13.6961 54.5511 13.83 54.5059 13.9562C54.3153 14.4896 54.2188 15.0451 54.1108 15.597C53.9461 16.4377 53.7875 17.2796 53.6283 18.1215C53.5396 18.5903 53.4437 19.0585 53.3713 19.5303C53.3219 19.8549 53.2308 19.8388 52.9823 19.8376C52.0432 19.8334 51.1035 19.8286 50.1644 19.8328C49.5589 19.8352 48.9539 19.852 48.3483 19.8627C48.3501 19.8741 48.3501 19.8854 48.3508 19.8962Z" fill="#2C2C2C"/>
<path d="M34.078 12.8467C34.078 14.4515 34.078 16.057 34.078 17.6619C34.078 17.9442 34.0919 18.2228 34.1468 18.502C34.224 18.8925 34.4429 19.1377 34.8259 19.2435C34.9803 19.2859 35.1377 19.3194 35.2891 19.3709C35.4785 19.4354 35.5823 19.5431 35.5593 19.6334C35.5195 19.7876 35.3826 19.8289 35.2554 19.8719C35.1872 19.8953 35.1094 19.8977 35.0364 19.8982C34.8633 19.9006 34.6878 19.9144 34.5177 19.8911C34.0002 19.8199 33.4809 19.8558 32.9628 19.851C32.3446 19.845 31.727 19.8486 31.1087 19.8498C30.7511 19.8504 30.3934 19.8331 30.0363 19.8899C29.8795 19.915 29.7155 19.9054 29.555 19.8953C29.4724 19.8899 29.3837 19.863 29.3132 19.8211C29.1678 19.7356 29.134 19.5718 29.2384 19.4444C29.3065 19.3613 29.3964 19.2901 29.4893 19.2339C29.5719 19.1843 29.6714 19.1604 29.7649 19.1293C29.8934 19.0862 30.0249 19.0522 30.1515 19.0049C30.5593 18.8518 30.6684 18.6976 30.6793 18.2635C30.6823 18.1409 30.6805 18.0183 30.6805 17.8957C30.6805 13.9134 30.6775 9.93106 30.6835 5.94873C30.6847 5.33703 30.7318 4.72533 30.7486 4.11303C30.7625 3.62331 30.7758 3.13299 30.7643 2.64328C30.7601 2.4017 30.7034 2.15954 30.6582 1.91916C30.5997 1.60942 30.4169 1.38878 30.1322 1.24946C29.9995 1.18428 29.8602 1.12867 29.7372 1.04855C29.6262 0.9756 29.5279 0.880526 29.435 0.784854C29.3729 0.720874 29.3934 0.6551 29.4706 0.600089C29.6563 0.46854 29.8674 0.40157 30.0918 0.384828C30.2764 0.370477 30.4622 0.371075 30.6473 0.372271C31.5744 0.377652 32.5014 0.389611 33.4278 0.391405C35.233 0.394395 37.0377 0.388415 38.8423 0.396189C39.0986 0.397384 39.3284 0.35194 39.5468 0.221588C39.7946 0.0738948 40.06 -0.0128076 40.3562 0.00154314C40.4955 0.00812056 40.5872 0.0571523 40.6463 0.183917C40.7766 0.464953 40.8556 0.760937 40.8972 1.0641C40.9605 1.52452 41.0046 1.98793 41.057 2.45014C41.1107 2.92491 41.1921 3.3949 41.3055 3.8595C41.4044 4.26431 41.4847 4.67211 41.5396 5.08529C41.5727 5.33464 41.5414 5.57382 41.4792 5.8118C41.4581 5.89252 41.393 5.92302 41.3097 5.92541C41.1722 5.9296 41.0661 5.86322 40.9961 5.75978C40.9147 5.63899 40.8441 5.50744 40.7916 5.37171C40.4261 4.43532 39.896 3.60119 39.2253 2.85196C38.9611 2.55717 38.6559 2.31022 38.32 2.09795C37.937 1.85638 37.5141 1.7326 37.0702 1.66922C36.8995 1.6447 36.727 1.62796 36.5545 1.616C36.0443 1.58072 35.5443 1.63633 35.0587 1.80137C34.4363 2.01244 34.1148 2.45672 34.0853 3.09413C34.0654 3.52106 34.0949 3.95099 34.1058 4.37972C34.1148 4.74686 34.1287 5.1134 34.1389 5.48054C34.1401 5.52897 34.1287 5.578 34.1287 5.62703C34.1281 5.72928 34.1745 5.79147 34.2765 5.80522C34.5334 5.8393 34.7903 5.8692 35.0479 5.89611C35.2198 5.91405 35.3929 5.93856 35.5648 5.93259C35.835 5.92302 36.1088 5.91285 36.3736 5.86203C36.7946 5.78071 37.1173 5.53615 37.3338 5.1702C37.4394 4.99201 37.516 4.79648 37.5992 4.60634C37.6384 4.51665 37.6535 4.41739 37.6933 4.32769C37.8043 4.07596 38.0992 4.01437 38.3073 4.19794C38.4213 4.29839 38.4858 4.42994 38.5353 4.57046C38.6668 4.94358 38.7277 5.33105 38.7494 5.72211C38.7934 6.50482 38.8604 7.28514 38.9569 8.06307C39.0081 8.47566 39.0286 8.89302 39.0383 9.3086C39.0431 9.52685 38.9991 9.7463 38.9689 9.96455C38.9545 10.0686 38.8941 10.0949 38.7795 10.0799C38.5359 10.0477 38.3664 9.91073 38.2741 9.69607C38.1873 9.49456 38.1203 9.28289 38.063 9.07061C37.9918 8.80752 37.8839 8.56355 37.7379 8.33334C37.3736 7.75812 36.8447 7.44001 36.1758 7.32281C35.5979 7.22176 35.0183 7.25226 34.4387 7.27139C34.3772 7.27318 34.3157 7.28514 34.2559 7.2989C34.1582 7.32222 34.1106 7.37424 34.1034 7.48007C34.0949 7.60206 34.0955 7.72463 34.0955 7.84721C34.0949 9.51369 34.0955 11.1802 34.0955 12.8467H34.078Z" fill="#2C2C2C"/>
<path d="M1.32468 10.1416C1.32468 7.38447 1.32468 4.62793 1.32468 1.8708C1.32468 1.85884 1.32468 1.84628 1.32468 1.83432C1.32287 1.40559 1.22275 1.27943 0.790894 1.17778C0.623219 1.13831 0.451926 1.112 0.28606 1.06775C0.14613 1.03008 0.0538486 0.933215 0.0116283 0.793295C-0.0293857 0.655767 0.0405794 0.540961 0.182319 0.527208C0.292695 0.516445 0.404277 0.518239 0.515859 0.517641C1.31925 0.517043 2.12264 0.523023 2.92543 0.515249C3.35728 0.511064 3.78914 0.48595 4.22099 0.468012C4.70351 0.448279 5.18422 0.456651 5.66131 0.536178C5.77047 0.554116 5.87844 0.585209 5.98278 0.621684C6.13116 0.673706 6.16433 0.824986 6.06481 0.946968C5.98218 1.04802 5.86577 1.09167 5.74997 1.13054C5.63356 1.17 5.50992 1.18794 5.3923 1.22322C5.29821 1.25073 5.20171 1.28002 5.11666 1.32726C4.95623 1.41516 4.85731 1.55089 4.8549 1.74164C4.85369 1.85166 4.85309 1.96228 4.85309 2.0723C4.85309 5.78496 4.8549 9.49762 4.85128 13.2103C4.85068 13.749 4.82655 14.2878 4.81207 14.8265C4.79519 15.452 4.81027 16.0768 4.9327 16.6921C4.97492 16.9062 5.0473 17.1185 5.13657 17.3182C5.38024 17.8647 5.82958 18.1266 6.41705 18.1762C6.92128 18.2187 7.39958 18.1188 7.85736 17.9101C8.25303 17.7296 8.61311 17.4928 8.94303 17.2135C9.63182 16.6299 10.2416 15.9728 10.7766 15.2481C11.0408 14.8905 11.2513 14.5042 11.4087 14.0881C11.4781 13.9051 11.5613 13.7269 11.6518 13.5535C11.744 13.3765 11.881 13.2348 12.0619 13.1409C12.2048 13.0668 12.3285 13.0961 12.4069 13.2396C12.4527 13.3233 12.4925 13.4214 12.495 13.514C12.4992 13.6964 12.4992 13.8848 12.4582 14.0606C12.033 15.8843 11.5987 17.7062 11.1674 19.5288C11.1536 19.588 11.1433 19.649 11.124 19.707C11.0993 19.7817 11.048 19.8349 10.9648 19.8391C10.8417 19.8451 10.7181 19.8481 10.5944 19.8481C8.01117 19.8487 5.42849 19.8469 2.84521 19.8499C2.56173 19.8505 2.27825 19.878 1.99417 19.8858C1.5008 19.8995 1.00561 19.9396 0.517669 19.8296C0.386183 19.7997 0.254093 19.7668 0.126829 19.7219C0.0049937 19.6783 -0.0203385 19.573 0.0375636 19.4511C0.1021 19.3147 0.22273 19.2561 0.355422 19.2202C0.486305 19.185 0.622013 19.1694 0.754102 19.1383C0.837336 19.1186 0.921174 19.0935 0.998377 19.0582C1.1178 19.0038 1.19018 18.9063 1.21249 18.7766C1.22456 18.7042 1.2336 18.6313 1.23843 18.5577C1.24506 18.4477 1.24627 18.3371 1.2511 18.2271C1.34519 15.8514 1.33614 13.4746 1.33554 11.0977C1.33554 10.779 1.33554 10.4603 1.33554 10.1422H1.32468V10.1416Z" fill="#2C2C2C"/>
<path d="M77.4478 19.9828C75.9519 19.9828 74.4567 19.984 72.9609 19.9822C72.628 19.9816 72.2927 19.9989 71.9676 19.902C71.897 19.8811 71.8252 19.8626 71.7565 19.8375C71.5749 19.7705 71.5333 19.6557 71.6515 19.502C71.7088 19.4279 71.7914 19.3639 71.8759 19.3208C71.9736 19.2718 72.0852 19.2503 72.1919 19.2186C72.2746 19.1941 72.3578 19.1731 72.441 19.1516C72.7275 19.0781 72.9097 18.8891 72.9018 18.5309C72.8916 18.0903 72.8904 17.649 72.8916 17.2077C72.8976 13.8137 72.9067 10.4192 72.9103 7.02524C72.9109 6.16778 72.9 5.30973 72.8849 4.45227C72.8717 3.70543 72.8469 2.958 72.824 2.21116C72.8186 2.04015 72.8041 1.86914 72.7896 1.69812C72.7709 1.47389 72.6425 1.34175 72.4253 1.29212C72.3053 1.26461 72.1835 1.24607 72.0635 1.21857C71.9676 1.19644 71.8705 1.17552 71.78 1.13785C71.6714 1.0924 71.6014 1.00211 71.59 0.884315C71.5659 0.631982 71.5785 0.515382 71.8928 0.516578C72.7329 0.518969 73.5737 0.522557 74.4139 0.514784C74.8584 0.510598 75.3024 0.485484 75.7463 0.468144C76.2161 0.449608 76.6854 0.453195 77.1498 0.53631C77.2584 0.555444 77.3651 0.589527 77.4701 0.625404C77.5539 0.654106 77.6245 0.700746 77.6335 0.803593C77.6444 0.935739 77.6178 1.05951 77.4888 1.11453C77.3663 1.16655 77.23 1.18987 77.0985 1.21976C76.9791 1.24667 76.8555 1.25863 76.7372 1.29032C76.5352 1.34474 76.4333 1.47748 76.4254 1.69154C76.4091 2.15675 76.3784 2.62135 76.3621 3.08596C76.2511 6.23415 76.3168 9.38295 76.3132 12.5317C76.312 13.5608 76.2951 14.5899 76.2861 15.6189C76.2831 16.001 76.341 16.3759 76.4363 16.7449C76.4761 16.8985 76.5273 17.0504 76.5913 17.1957C76.8663 17.8206 77.3687 18.1255 78.0394 18.1746C78.5412 18.211 79.0226 18.1142 79.487 17.9282C79.8905 17.7668 80.2608 17.5479 80.6106 17.2932C81.3145 16.7802 81.9098 16.1637 82.3942 15.4425C82.5938 15.1454 82.7536 14.8291 82.8598 14.487C82.9104 14.3232 82.9611 14.1588 83.0256 13.9997C83.0896 13.8412 83.1626 13.6846 83.247 13.5357C83.3459 13.3611 83.4925 13.2301 83.6777 13.1446C83.8538 13.0633 83.9599 13.1147 83.9985 13.3085C84.042 13.5285 84.0359 13.7521 83.9732 13.9644C83.5914 15.2482 83.4358 16.5763 83.1782 17.8846C83.0552 18.5088 82.934 19.1337 82.8091 19.7579C82.7735 19.9349 82.7367 19.963 82.5655 19.969C82.4665 19.9726 82.3676 19.9702 82.2687 19.9702C80.6619 19.9702 79.0551 19.9702 77.4483 19.9702C77.4477 19.9738 77.4478 19.9786 77.4478 19.9828Z" fill="#2C2C2C"/>
</svg>
