<svg width="852" height="852" viewBox="0 0 852 852" fill="none" xmlns="http://www.w3.org/2000/svg">
<g clip-path="url(#clip0_584_6637)">
<rect width="852" height="852" rx="40" fill="#025950"/>
<ellipse cx="782.427" cy="549.189" rx="243.191" ry="248.913" fill="#00786C"/>
<path d="M716.246 17.7646C848.476 17.7646 955.622 121.973 955.622 250.465C955.622 378.957 848.476 483.165 716.246 483.165C584.017 483.165 476.87 378.957 476.87 250.465C476.87 121.973 584.017 17.7647 716.246 17.7646Z" stroke="#00A090" stroke-opacity="0.7" stroke-width="1.90738"/>
<ellipse cx="243.371" cy="145.5" rx="205.5" ry="198.5" fill="url(#paint0_linear_584_6637)"/>
<path d="M112.623 194.284C250.579 148.105 399.069 220.276 444.311 355.433C489.553 490.589 414.435 637.61 276.479 683.789C138.523 729.968 -9.96641 657.797 -55.2083 522.64C-100.45 387.484 -25.3324 240.463 112.623 194.284Z" stroke="#00A090" stroke-opacity="0.7" stroke-width="1.90738"/>
<ellipse cx="549.115" cy="822.954" rx="229.136" ry="229.136" transform="rotate(-90 549.115 822.954)" fill="url(#paint1_radial_584_6637)"/>
<circle cx="445.593" cy="99.7379" r="37.6088" transform="rotate(-90 445.593 99.7379)" fill="url(#paint2_radial_584_6637)"/>
<circle cx="806.911" cy="167.594" r="66.7789" transform="rotate(-68.5725 806.911 167.594)" fill="url(#paint3_radial_584_6637)"/>
<circle cx="37.4302" cy="649.559" r="66.7789" transform="rotate(-68.5725 37.4302 649.559)" fill="url(#paint4_radial_584_6637)"/>
<g clip-path="url(#clip1_584_6637)">
<path d="M349.648 464.344C348.464 463.649 348.138 462.318 348.138 462.318C348.138 462.318 333.303 406.773 332.258 402.626C331.211 398.473 333.832 400.237 334.158 398.473C334.455 396.862 332.63 396.867 331.592 396.867H313.209C311.876 396.867 310.955 397.043 310.823 398.013C310.709 398.859 311.172 399.219 312.52 400.356C314.042 401.642 313.238 403.71 313.238 403.71C313.238 403.71 297.822 456.284 296.586 460C295.673 462.758 294.334 463.456 292.77 464.173C289.417 465.708 290.904 467.498 292.409 467.498H307.456C308.706 467.498 309.593 465.302 306.947 464.545C304.301 463.788 304.384 461.433 305.437 458.066C306.489 454.698 308.764 447.604 311.138 438.739C323.885 437.609 331.592 450.242 332.167 454.114C332.73 457.983 333.729 461.918 331.4 463.634C329.072 465.351 328.708 465.629 328.737 466.366C328.777 467.399 329.887 467.404 330.734 467.404H349.663C349.663 467.404 351.353 467.555 351.622 466.463C351.823 465.651 351.399 465.351 349.648 464.341M312.849 432.69L319.543 408.717C319.614 408.464 319.975 408.467 320.043 408.719L327.41 436.744C319.036 431.559 312.852 432.688 312.852 432.688" fill="white"/>
<path d="M608.063 464.344C606.878 463.649 606.552 462.318 606.552 462.318C606.552 462.318 591.717 406.773 590.672 402.626C589.625 398.473 592.246 400.237 592.572 398.473C592.869 396.862 591.044 396.867 590.006 396.867H571.623C570.29 396.867 569.369 397.043 569.237 398.013C569.123 398.859 569.586 399.219 570.934 400.356C572.456 401.642 571.652 403.71 571.652 403.71C571.652 403.71 556.236 456.284 555 460C554.087 462.758 552.748 463.456 551.184 464.173C547.831 465.708 549.318 467.498 550.823 467.498H565.87C567.12 467.498 568.007 465.302 565.361 464.545C562.715 463.788 562.798 461.433 563.851 458.066C564.903 454.698 567.178 447.604 569.552 438.739C582.299 437.609 590.006 450.242 590.581 454.114C591.145 457.983 592.143 461.918 589.814 463.634C587.486 465.351 587.122 465.629 587.151 466.366C587.191 467.399 588.301 467.404 589.148 467.404H608.077C608.077 467.404 609.768 467.555 610.036 466.463C610.237 465.651 609.813 465.351 608.063 464.341M571.263 432.69L577.957 408.717C578.028 408.464 578.389 408.467 578.457 408.719L585.824 436.744C577.45 431.559 571.266 432.688 571.266 432.688" fill="white"/>
<path d="M501.177 461.498C500.445 457.714 493.757 438.35 484.82 425.714C498.128 417.987 497.459 408.555 497.459 408.555C497.459 408.555 498.32 396.856 485.515 396.856H449.428C449.428 396.856 447.322 396.566 447.322 398.552C447.322 399.902 449.239 399.775 449.239 399.775C449.239 399.775 452.466 399.769 452.466 403.372V461.833C452.466 461.833 452.328 464.752 449.617 464.752C447.52 464.752 447.903 466.448 447.903 466.448C447.903 466.448 447.811 467.396 449.428 467.396H468.64C468.64 467.396 470.253 467.393 470.253 466.542C470.253 465.033 469.398 464.848 468.549 464.848C467.699 464.848 465.024 464.8 465.024 462.111V434.432C465.024 434.432 471.632 432.548 472.782 431.89C473.921 431.226 486.571 449.22 486.431 462.59C486.348 465.157 484.657 465.163 484.194 465.328C483.064 465.733 483.055 467.407 484.339 467.407H503.566C503.566 467.407 504.831 467.603 504.831 466.102C504.831 464.601 501.984 465.711 501.177 461.495M481.673 417.513C475.571 427.541 465.024 429.397 465.024 429.397V407.979C465.024 404.779 467.687 401.193 474.919 401.193C482.151 401.193 487.572 407.797 481.673 417.51" fill="white"/>
<path d="M402.456 396.919C401.836 396.919 400.119 396.7 400.119 398.326C400.119 399.764 401.498 399.605 401.498 399.605C401.498 399.605 404.779 399.492 404.779 402.181V460.931C404.779 460.931 404.836 464.341 401.263 464.469C400.339 464.469 400.168 465.314 400.168 466.072C400.168 466.829 400.746 467.294 401.381 467.294H440.758L445.59 444.333C445.59 444.333 446.434 442.137 444.546 442.12C442.869 442.109 443.072 443.057 442.257 444.716C441.445 446.361 434.69 460.364 424.993 460.517C418.242 460.128 417.767 456.08 417.767 452.943V421.843H425.565C425.565 421.843 430.462 421.378 432.562 430.521C433.031 432.169 434.319 431.936 434.319 431.936C434.319 431.936 435.597 432.226 435.549 430.098C435.5 427.973 433.824 413.267 433.689 412.005C433.555 410.742 433.272 409.545 431.698 409.73C429.993 409.928 429.796 412.649 429.796 412.649C429.796 412.649 429.418 416.85 426.183 416.85H417.721V407.367C417.721 407.367 417.195 401.384 424.555 401.384H427.224C427.224 401.384 438.169 401.858 441.925 415.522C442.446 417.176 443.587 416.708 443.587 416.708C443.587 416.708 445.246 417.264 444.826 414.164C444.397 411.043 441.831 397.716 441.831 397.716C441.831 397.716 441.556 394.587 437.64 396.258C435.629 397.114 434.447 396.868 430.173 396.868C425.9 396.868 409.419 396.919 402.451 396.919H402.456Z" fill="white"/>
<path d="M355.471 467.394C355.471 467.394 353.328 467.649 353.328 465.913C353.328 464.637 355.182 464.543 355.182 464.543C355.182 464.543 358.752 464.143 358.752 461.428V403.481C358.752 401.617 358.712 399.526 355.662 399.336C353.566 399.245 353.731 396.746 355.791 396.746H386.618C388.389 396.746 390.202 396.925 391.95 395.509C393.235 394.477 395.423 395.138 395.706 396.979C395.989 398.817 398.61 415.134 398.61 415.134C398.61 415.134 398.965 416.697 397.849 416.828C396.33 417.012 396.092 416.499 395.615 415.134C395.134 413.767 390.571 402.122 381.151 401.597H377.592C377.592 401.597 371.694 401.833 371.694 406.454V416.547H379.254C381.389 416.547 383.648 415.143 383.817 412.539C383.989 409.932 385.328 409.898 385.957 409.898C386.586 409.898 387.356 410.23 387.588 412.232C388.223 417.741 389.373 427.951 389.473 429.267C389.573 430.584 389.951 431.872 388.532 432.013C387.096 432.15 386.675 431.401 386.34 430.169C386.009 428.947 383.817 422.014 379.635 422.014H371.645V461.335C371.645 461.335 371.485 465.014 375.453 465.014C377.12 465.014 376.975 466.143 376.975 466.143C376.975 466.143 377.155 467.394 375.882 467.394H355.479H355.471Z" fill="white"/>
<path d="M249.337 396.859C249.337 396.859 247.863 396.774 247.692 397.996C247.463 399.565 249.783 399.503 249.783 399.503C249.783 399.503 252.541 399.219 252.541 402.615V461.646C252.541 461.646 252.841 464.151 250.158 464.474C247.752 464.769 247.809 465.229 247.689 466.08C247.689 467.402 249.434 467.402 249.434 467.402H286.749C287.601 467.402 288.339 466.814 288.522 465.989L293.248 444.676C293.248 444.676 293.897 442.423 292.012 442.316C290.467 442.228 290.396 443.351 289.538 445.246C288.682 447.13 283.925 458.446 272.522 460.712C266.083 461.112 265.671 458.139 265.671 454.176V402.24C265.671 402.24 265.285 399.781 268.517 399.59C270.491 399.364 270.423 397.996 270.423 397.996C270.423 397.996 270.491 396.626 268.557 396.859H249.337Z" fill="white"/>
<path d="M508.032 396.859C508.032 396.859 506.559 396.771 506.387 397.996C506.158 399.565 508.478 399.503 508.478 399.503C508.478 399.503 511.236 399.219 511.236 402.615V461.646C511.236 461.646 511.536 464.151 508.853 464.474C506.447 464.769 506.504 465.229 506.384 466.08C506.384 467.402 508.129 467.402 508.129 467.402H545.444C546.296 467.402 547.034 466.814 547.217 465.989L551.943 444.676C551.943 444.676 552.593 442.423 550.708 442.316C549.163 442.228 549.091 443.351 548.233 445.246C547.378 447.13 542.62 458.446 531.218 460.712C524.778 461.112 524.366 458.139 524.366 454.176V402.24C524.366 402.24 523.98 399.781 527.213 399.59C529.187 399.364 529.118 397.996 529.118 397.996C529.118 397.996 529.187 396.626 527.253 396.859H508.032Z" fill="white"/>
</g>
<circle cx="543.776" cy="285.523" r="14.7755" transform="rotate(-90 543.776 285.523)" fill="url(#paint5_radial_584_6637)"/>
<circle cx="292.775" cy="563.523" r="14.7755" transform="rotate(-90 292.775 563.523)" fill="url(#paint6_radial_584_6637)"/>
</g>
<defs>
<linearGradient id="paint0_linear_584_6637" x1="243.371" y1="-53" x2="243.371" y2="344" gradientUnits="userSpaceOnUse">
<stop offset="0.435" stop-color="#00786C"/>
<stop offset="1" stop-color="#00443D"/>
</linearGradient>
<radialGradient id="paint1_radial_584_6637" cx="0" cy="0" r="1" gradientUnits="userSpaceOnUse" gradientTransform="translate(717.039 613.847) rotate(124.473) scale(504.555 504.555)">
<stop stop-color="#04B293"/>
<stop offset="0.333333" stop-color="#006E62"/>
<stop offset="0.75" stop-color="#015149"/>
<stop offset="1" stop-color="#009686"/>
</radialGradient>
<radialGradient id="paint2_radial_584_6637" cx="0" cy="0" r="1" gradientUnits="userSpaceOnUse" gradientTransform="translate(473.155 65.4165) rotate(124.473) scale(82.8139)">
<stop stop-color="#04B293"/>
<stop offset="0.333333" stop-color="#006E62"/>
<stop offset="0.75" stop-color="#015149"/>
<stop offset="1" stop-color="#009686"/>
</radialGradient>
<radialGradient id="paint3_radial_584_6637" cx="0" cy="0" r="1" gradientUnits="userSpaceOnUse" gradientTransform="translate(855.85 106.652) rotate(124.473) scale(147.046)">
<stop stop-color="#69FFE5"/>
<stop offset="0.333333" stop-color="#00D2AD"/>
<stop offset="0.666667" stop-color="#0FBE9F"/>
<stop offset="1" stop-color="#21ECC8"/>
</radialGradient>
<radialGradient id="paint4_radial_584_6637" cx="0" cy="0" r="1" gradientUnits="userSpaceOnUse" gradientTransform="translate(86.3697 588.617) rotate(124.473) scale(147.046)">
<stop stop-color="#69FFE5"/>
<stop offset="0.333333" stop-color="#00D2AD"/>
<stop offset="0.666667" stop-color="#0FBE9F"/>
<stop offset="1" stop-color="#21ECC8"/>
</radialGradient>
<radialGradient id="paint5_radial_584_6637" cx="0" cy="0" r="1" gradientUnits="userSpaceOnUse" gradientTransform="translate(554.604 272.039) rotate(124.473) scale(32.5354)">
<stop stop-color="#69FFE5"/>
<stop offset="0.333333" stop-color="#00D2AD"/>
<stop offset="0.666667" stop-color="#0FBE9F"/>
<stop offset="1" stop-color="#21ECC8"/>
</radialGradient>
<radialGradient id="paint6_radial_584_6637" cx="0" cy="0" r="1" gradientUnits="userSpaceOnUse" gradientTransform="translate(303.604 550.039) rotate(124.473) scale(32.5354)">
<stop stop-color="#69FFE5"/>
<stop offset="0.333333" stop-color="#00D2AD"/>
<stop offset="0.666667" stop-color="#0FBE9F"/>
<stop offset="1" stop-color="#21ECC8"/>
</radialGradient>
<clipPath id="clip0_584_6637">
<rect width="852" height="852" rx="40" fill="white"/>
</clipPath>
<clipPath id="clip1_584_6637">
<rect width="362.403" height="72.4805" fill="white" transform="translate(247.674 395.019)"/>
</clipPath>
</defs>
</svg>
