<svg width="140" height="32" viewBox="0 0 140 32" fill="none" xmlns="http://www.w3.org/2000/svg">
<g clip-path="url(#clip0_256_1715)">
<path d="M26.9326 26.9309C25.8456 28.0144 24.4014 28.612 22.8663 28.612C22.4696 28.612 22.0815 28.5708 21.7071 28.4952C19.085 27.956 17.1068 25.6309 17.1068 22.8525V17.1068H22.8525C26.0276 17.1068 28.612 19.6911 28.612 22.8663C28.612 24.4014 28.0144 25.8456 26.9326 26.9309ZM8.54651 28.6257C5.37141 28.6257 2.78702 26.0414 2.78702 22.8663V14.8435C2.79217 14.8486 2.79732 14.8521 2.80247 14.8572C2.84197 14.8933 2.88318 14.9276 2.92268 14.9637C2.98278 15.0152 3.04288 15.0684 3.10298 15.1182C3.14763 15.156 3.19399 15.1921 3.23864 15.2264C3.29703 15.2745 3.35541 15.3209 3.41551 15.3672C3.4636 15.4033 3.51339 15.4376 3.56319 15.4737C3.62158 15.5166 3.67996 15.5596 3.74006 15.6008C3.79158 15.6351 3.8431 15.6677 3.89461 15.7021C3.95471 15.7416 4.01482 15.7811 4.07664 15.8189C4.12987 15.8515 4.1831 15.8841 4.23805 15.915C4.29816 15.9511 4.35997 15.9871 4.42351 16.0215C4.47846 16.0524 4.53341 16.0816 4.59008 16.1108C4.6519 16.1451 4.71544 16.1778 4.77897 16.2087C4.83564 16.2379 4.89402 16.2653 4.95069 16.2911C5.01595 16.322 5.0812 16.3512 5.14645 16.3804C5.20484 16.4061 5.26322 16.4302 5.32161 16.4542C5.38858 16.4817 5.45555 16.5075 5.52252 16.5332C5.5809 16.5555 5.64101 16.5779 5.70111 16.6002C5.7698 16.6242 5.83848 16.6466 5.90889 16.6706C5.96728 16.6895 6.02738 16.7084 6.08748 16.7273C6.1596 16.7496 6.23172 16.7685 6.30213 16.7891C6.36223 16.8045 6.42233 16.8217 6.48244 16.8372C6.55628 16.856 6.63183 16.8715 6.70567 16.8887C6.76577 16.9007 6.82588 16.9162 6.88598 16.9282C6.96325 16.9436 7.04053 16.9556 7.11952 16.9694C7.1779 16.9797 7.23629 16.99 7.29467 16.9986C7.37882 17.0106 7.46124 17.0209 7.54538 17.0312C7.60033 17.0381 7.65528 17.0449 7.71195 17.0501C7.80468 17.0604 7.89913 17.0655 7.99186 17.0724C8.03994 17.0759 8.0863 17.0793 8.13267 17.0827C8.27519 17.0896 8.41772 17.093 8.56025 17.093H14.3197V17.1068V22.8525C14.3197 22.995 14.3232 23.1376 14.33 23.2801C14.3318 23.3265 14.3369 23.3745 14.3403 23.4209C14.3472 23.5154 14.3524 23.6081 14.361 23.7025C14.3678 23.7575 14.3747 23.8124 14.3816 23.8691C14.3919 23.9515 14.4005 24.034 14.4142 24.1181C14.4228 24.1765 14.4331 24.2349 14.4434 24.295C14.4571 24.3722 14.4691 24.4495 14.4846 24.5268C14.4966 24.5869 14.5104 24.647 14.5241 24.7071C14.5413 24.7809 14.5567 24.8565 14.5756 24.9303C14.5911 24.9904 14.6082 25.0505 14.6237 25.1106C14.6443 25.1828 14.6632 25.2532 14.6855 25.3253C14.7044 25.3854 14.7233 25.4455 14.7422 25.5039C14.7645 25.5743 14.7885 25.643 14.8126 25.7134C14.8349 25.7718 14.8555 25.8301 14.8796 25.8902C14.9053 25.9572 14.9311 26.0259 14.9585 26.0929C14.9826 26.1495 15.0066 26.2079 15.0324 26.2646C15.0616 26.3316 15.0908 26.3968 15.1217 26.4638C15.1492 26.5205 15.1749 26.5754 15.2024 26.6321C15.235 26.6973 15.2694 26.7626 15.302 26.8261C15.3312 26.8811 15.3604 26.9343 15.3896 26.9875C15.4256 27.0528 15.4617 27.1163 15.4995 27.1799C15.5304 27.2314 15.5613 27.2829 15.5922 27.3344C15.6317 27.3979 15.6729 27.4598 15.7141 27.5233C15.7467 27.5714 15.7776 27.6212 15.812 27.671C15.8549 27.7328 15.8996 27.7946 15.9442 27.8564C15.9768 27.9028 16.0095 27.9492 16.0438 27.9955C16.0936 28.0591 16.1434 28.1209 16.1915 28.1827C16.2258 28.2239 16.2585 28.2669 16.2928 28.3081C16.3478 28.375 16.4061 28.4403 16.4628 28.5055C16.4937 28.5399 16.5229 28.5742 16.5538 28.6086C16.559 28.6137 16.5641 28.6206 16.5693 28.6257H8.54651ZM4.48018 4.4819C5.56717 3.39834 7.01133 2.80076 8.54651 2.80076C8.74399 2.80076 8.94147 2.81106 9.13379 2.82995C12.0359 3.12702 14.306 5.58262 14.306 8.56025V14.306H8.56025C5.38514 14.306 2.80076 11.7216 2.80076 8.54651C2.80076 7.01133 3.39834 5.56717 4.48018 4.4819ZM22.8663 2.78702C26.0414 2.78702 28.6257 5.37141 28.6257 8.54651V16.5693C28.6206 16.5641 28.6154 16.5607 28.6103 16.5555C28.5708 16.5212 28.5296 16.4851 28.4901 16.4508C28.43 16.3976 28.3699 16.3443 28.3098 16.2945C28.2651 16.2567 28.2188 16.2224 28.1741 16.1863C28.1157 16.1383 28.0556 16.0919 27.9973 16.0455C27.9492 16.0095 27.8994 15.9751 27.8496 15.9391C27.7912 15.8961 27.7328 15.8549 27.6727 15.812C27.6212 15.7776 27.5697 15.7433 27.5164 15.7107C27.4581 15.6712 27.3979 15.6317 27.3361 15.5939C27.2829 15.5613 27.2297 15.5304 27.1747 15.4977C27.1129 15.4617 27.0528 15.4256 26.9893 15.3913C26.9343 15.3604 26.8794 15.3312 26.8227 15.302C26.7609 15.2676 26.6973 15.235 26.6321 15.2041C26.5754 15.1766 26.5187 15.1491 26.4621 15.1217C26.3968 15.0908 26.3316 15.0616 26.2663 15.0324C26.2079 15.0083 26.1495 14.9826 26.0912 14.9585C26.0242 14.9311 25.9572 14.9053 25.8902 14.8795C25.8301 14.8572 25.7718 14.8349 25.7117 14.8126C25.643 14.7885 25.5743 14.7662 25.5039 14.7422C25.4455 14.7233 25.3854 14.7044 25.3253 14.6855C25.2532 14.6632 25.1828 14.6443 25.1106 14.6254C25.0488 14.6082 24.9904 14.5911 24.9286 14.5756C24.8548 14.5567 24.7809 14.5413 24.7071 14.5241C24.647 14.5104 24.5869 14.4966 24.5268 14.4846C24.4495 14.4691 24.3722 14.4571 24.2932 14.4434C24.2349 14.4331 24.1765 14.4228 24.1164 14.4142C24.034 14.4005 23.9498 14.3919 23.8674 14.3816C23.8124 14.3747 23.7575 14.3678 23.7008 14.3627C23.6081 14.3524 23.5136 14.3472 23.4192 14.3403C23.3728 14.3369 23.3265 14.3318 23.2784 14.33C23.1376 14.3232 22.995 14.3197 22.8525 14.3197H17.093V14.306V8.56025C17.093 8.41772 17.0896 8.27519 17.0827 8.13267C17.0793 8.0863 17.0759 8.03822 17.0724 7.99185C17.0655 7.89741 17.0604 7.80468 17.0501 7.71195C17.0449 7.65528 17.0364 7.60033 17.0312 7.54538C17.0209 7.46124 17.0106 7.37881 16.9986 7.29467C16.99 7.23629 16.9797 7.1779 16.9694 7.11952C16.9556 7.04053 16.9419 6.96325 16.9265 6.88598C16.9162 6.82588 16.9024 6.76577 16.8887 6.70739C16.8715 6.63183 16.8543 6.55627 16.8372 6.48244C16.8217 6.42233 16.8045 6.36223 16.7891 6.30385C16.7685 6.23172 16.7479 6.1596 16.7273 6.08748C16.7084 6.02738 16.6895 5.96899 16.6706 5.90889C16.6466 5.83848 16.6242 5.7698 16.6002 5.69939C16.5779 5.64101 16.5555 5.58262 16.5332 5.52424C16.5075 5.45555 16.4817 5.38686 16.4542 5.31989C16.4302 5.26322 16.4061 5.20484 16.3804 5.14817C16.3512 5.0812 16.322 5.01423 16.2911 4.94897C16.2636 4.89231 16.2379 4.83736 16.2104 4.78069C16.1778 4.71543 16.1434 4.6519 16.1108 4.58664C16.0816 4.53341 16.0524 4.47846 16.0232 4.42523C15.9871 4.35997 15.9494 4.29644 15.9133 4.2329C15.8824 4.18139 15.8515 4.12987 15.8206 4.07835C15.7811 4.01482 15.7399 3.953 15.6987 3.89118C15.6677 3.84138 15.6351 3.79158 15.6008 3.7435C15.5578 3.67996 15.5132 3.61814 15.4686 3.55632C15.4342 3.50996 15.4016 3.4636 15.3672 3.41895C15.3209 3.35541 15.2711 3.29188 15.2196 3.23006C15.1869 3.18884 15.1543 3.14591 15.12 3.1047C15.065 3.03773 15.0066 2.97419 14.95 2.90894C14.919 2.8746 14.8899 2.83853 14.8589 2.80419C14.8538 2.79904 14.8486 2.79217 14.8435 2.78702H22.8663ZM22.8663 0L8.39368 0.0137376L8.38853 0.017172C6.16991 0.0583848 4.08694 0.937592 2.50883 2.51227C1.04234 3.98219 0.178589 5.89343 0.0360612 7.94549L0 7.98327V22.8663C0 27.5783 3.83451 31.4128 8.54651 31.4128L23.0655 31.399L23.0723 31.3939C25.2721 31.3424 27.3361 30.4649 28.9039 28.9022C30.3704 27.4306 31.2342 25.5193 31.3767 23.4673L31.4128 23.4295V8.54651C31.4128 3.83451 27.5783 0 22.8663 0Z" fill="#2C2C2C"/>
<path d="M48.4114 23.0255C48.4114 23.2745 48.2689 23.417 48.0216 23.5235C47.1681 23.7021 45.9953 23.8086 44.467 23.8086C41.8723 23.8086 41.1253 23.0255 41.1253 21.4268C41.1253 19.8624 41.9787 19.1172 44.5374 19.1172C44.6438 19.1172 45.9232 19.1876 48.4114 19.294V23.0255ZM44.9289 7.74414C41.3039 7.74414 38.8517 8.98739 37.5724 11.4396C37.1809 12.1505 37.3938 12.6845 38.1769 13.04L39.5987 13.6444C40.4161 13.9278 40.593 13.8574 41.1253 13.1104C41.8723 11.9736 43.1155 11.4052 44.8585 11.4052C47.4171 11.4052 48.4114 12.6124 48.4114 14.9238V15.918C46.3868 15.8116 45.2483 15.7411 44.9993 15.7411C39.2072 15.7411 36.9319 17.2334 36.9319 21.4629C36.9319 23.417 37.5003 24.8749 38.6388 25.7988C39.7756 26.7587 41.8362 27.2206 44.8585 27.2206C47.7005 27.2206 49.8332 26.8995 51.2551 26.2951C52.2493 25.8692 52.5344 25.5137 52.5344 24.2705V15.0646C52.5344 10.1963 50.0118 7.74414 44.9289 7.74414Z" fill="#2C2C2C"/>
<path d="M59.4649 0.388672H57.5451C56.6933 0.388672 56.4443 0.673727 56.4443 1.49112V25.5869C56.4443 26.4043 56.6933 26.6876 57.5451 26.6876H59.4649C60.2823 26.6876 60.5673 26.4043 60.5673 25.5869V1.49112C60.5673 0.673727 60.2823 0.388672 59.4649 0.388672Z" fill="#2C2C2C"/>
<path d="M79.2968 8.27734H77.377C76.5596 8.27734 76.2762 8.52634 76.2762 9.34373V22.4219C76.2762 22.7413 76.1337 22.9199 75.8847 23.0264C74.9248 23.3114 73.8584 23.4523 72.6152 23.4523C70.0205 23.4523 68.7429 22.2794 68.7429 19.9337V9.34373C68.7429 8.52634 68.4922 8.27734 67.6748 8.27734H65.7206C64.9032 8.27734 64.6199 8.52634 64.6199 9.34373V20.0762C64.6199 24.6612 67.0703 27.2198 72.0468 27.2198C74.6054 27.2198 76.915 26.7939 79.0117 25.9765C80.1502 25.5146 80.3992 25.1231 80.3992 23.9863V9.34373C80.3975 8.52634 80.1125 8.27734 79.2968 8.27734Z" fill="#2C2C2C"/>
<path d="M92.7667 7.74414C90.1016 7.74414 87.792 8.13566 85.7657 8.95305C84.6289 9.41498 84.3799 9.84084 84.3799 10.9776V25.5859C84.3799 26.4033 84.6632 26.6866 85.4806 26.6866H87.4365C88.2539 26.6866 88.5012 26.4033 88.5012 25.5859V12.3291C88.5012 12.1505 88.5733 12.044 88.7502 11.9736C89.8887 11.6542 91.0254 11.5117 92.1622 11.5117C94.7569 11.5117 96.0362 12.6845 96.0362 14.9942V25.5859C96.0362 26.4033 96.2852 26.6866 97.1026 26.6866H99.0568C99.8742 26.6866 100.159 26.4033 100.159 25.5859V14.8877C100.159 10.3028 97.7414 7.74414 92.7667 7.74414Z" fill="#2C2C2C"/>
<path d="M114.623 23.0255C114.623 23.2745 114.481 23.417 114.233 23.5235C113.38 23.7021 112.207 23.8086 110.679 23.8086C108.084 23.8086 107.337 23.0255 107.337 21.4268C107.337 19.8624 108.19 19.1172 110.749 19.1172C110.856 19.1172 112.135 19.1876 114.623 19.294V23.0255ZM111.141 7.74414C107.516 7.74414 105.063 8.98739 103.784 11.4396C103.393 12.1505 103.605 12.6845 104.389 13.04L105.81 13.6444C106.628 13.9278 106.805 13.8574 107.337 13.1104C108.084 11.9736 109.327 11.4052 111.07 11.4052C113.629 11.4052 114.623 12.6124 114.623 14.9238V15.918C112.598 15.8116 111.46 15.7411 111.211 15.7411C105.419 15.7411 103.144 17.2334 103.144 21.4629C103.144 23.417 103.712 24.8749 104.85 25.7988C105.987 26.7587 108.048 27.2206 111.07 27.2206C113.912 27.2206 116.045 26.8995 117.467 26.2951C118.461 25.8692 118.746 25.5137 118.746 24.2705V15.0646C118.746 10.1963 116.223 7.74414 111.141 7.74414Z" fill="#2C2C2C"/>
<path d="M132.218 0.388672H131.898C126.673 0.495138 124.08 2.98336 124.08 7.92375V8.27921H121.947C121.13 8.27921 120.881 8.52649 120.881 9.34388V10.9804C120.881 11.7978 121.13 12.0811 121.947 12.0811H124.08V25.5869C124.08 26.4043 124.363 26.6876 125.217 26.6876H127.1C127.952 26.6876 128.201 26.4043 128.201 25.5869V12.0811H132.288C133.105 12.0811 133.354 11.7978 133.354 10.9804V9.34388C133.354 8.52649 133.105 8.27921 132.288 8.27921H128.201V7.92375C128.201 5.22259 129.233 4.22662 132.218 4.22662C133.071 4.22662 133.354 3.94328 133.354 3.08983V1.52546C133.354 0.673727 133.071 0.388672 132.218 0.388672Z" fill="#2C2C2C"/>
<path d="M137.833 1.38184H137.584C135.913 1.38184 135.417 1.91417 135.417 3.5146V3.834C135.417 5.50484 135.985 6.00282 137.584 6.00282H137.833C139.504 6.00282 140 5.50484 140 3.834V3.5146C140 1.91417 139.504 1.38184 137.833 1.38184Z" fill="#2C2C2C"/>
<path d="M138.686 8.27734H136.732C135.915 8.27734 135.666 8.52634 135.666 9.34373V25.585C135.666 26.4024 135.915 26.6875 136.732 26.6875H138.686C139.504 26.6875 139.789 26.4024 139.789 25.585V9.34373C139.789 8.52634 139.504 8.27734 138.686 8.27734Z" fill="#2C2C2C"/>
</g>
<defs>
<clipPath id="clip0_256_1715">
<rect width="140" height="31.4128" fill="white"/>
</clipPath>
</defs>
</svg>
