<?xml version="1.0" encoding="UTF-8"?>
<svg id="Layer_1" xmlns="http://www.w3.org/2000/svg" width="176.4468mm" height="20.0306mm" version="1.1" viewBox="0 0 500.1641 56.7795">
  <!-- Generator: Adobe Illustrator 30.1.0, SVG Export Plug-In . SVG Version: 2.1.1 Build 136)  -->
  <defs>
    <style>
      .st0 {
        fill: #2c2c2c;
        fill-rule: evenodd;
      }
    </style>
  </defs>
  <path class="st0" d="M386.0281,28.3133v-1.196c5.4107-1.1729,9.4832-6.2585,9.4832-11.9922,0-9.4808-8.297-14.6161-19.3598-14.6161h-15.4091v.0032h-60.8484v56.0942h70.3279v-.0068h4.3491c16.9894,0,23.311-5.1354,23.311-15.4061,0-6.4362-3.5606-11.9012-11.854-12.8802ZM357.4115,24.8141l-15.066,21.2016c-.2086.2907-.6043.4014-.9357.2515-.3329-.147-.5156-.5059-.4357-.8572l2.2731-12.6351-11.0024-.0723c-.2885,0-.5523-.1606-.6827-.4103-.1319-.2546-.1074-.5573.0582-.7875l15.0697-21.1966c.2117-.2923.6028-.3983.9357-.2514.3314.1469.5153.5043.4357.8557l-2.3602,12.7041,11.0858-.0002c.2869,0,.5507.1574.6827.4118.1304.2528.1089.5573-.0582.7859Z"/>
  <polygon class="st0" points="500.1641 0 456.4548 .4313 448.5971 14.7601 440.4581 .5891 396.3427 .5089 431.2015 44.4185 431.3235 56.7795 449.0099 56.605 466.6964 56.4305 466.5745 44.0695 500.1641 0"/>
  <polygon class="st0" points="104.9412 .5089 104.9412 15.8679 104.9412 21.7259 104.9412 34.6964 104.9412 40.3482 104.9412 56.6063 141.763 56.6063 189.85 56.6063 189.85 40.3482 141.763 40.3482 141.763 34.6964 189.85 34.6964 189.85 21.7259 141.763 21.7259 141.763 15.8679 189.85 15.8679 189.85 .5089 141.763 .5089 104.9412 .5089"/>
  <polygon class="st0" points="226.4612 .5089 198.2796 .5089 198.2796 26.5789 226.4612 26.5789 226.4612 56.6063 263.283 56.6063 263.283 26.5789 291.8098 26.5789 291.8098 .5089 263.283 .5089 226.4612 .5089"/>
  <path class="st0" d="M84.6459,28.3133v-1.196c5.3173-1.1728,9.3194-6.2585,9.3194-11.9922,0-9.4808-8.1537-14.6161-19.0254-14.6161h-15.1428v.0032H0v56.0943h69.1129v-.0068h4.274c16.6959,0,22.9083-5.1354,22.9083-15.4061,0-6.4362-3.4991-11.9012-11.6492-12.8802ZM36.2161,15.8679h16.1367c1.6176,0,2.929,1.3113,2.929,2.929s-1.3113,2.929-2.929,2.929h-16.1367v-5.858ZM57.2817,37.6254c0,1.6176-1.3113,2.929-2.929,2.929h-18.1367v-5.858h18.1367c1.6176,0,2.929,1.3113,2.929,2.929h0Z"/>
</svg>