<svg width="138" height="21" viewBox="0 0 138 21" fill="none" xmlns="http://www.w3.org/2000/svg">
<path d="M137.392 0.533637C137.166 1.22993 136.967 1.83918 136.726 2.53035C136.552 3.03721 136.204 3.33416 135.656 3.36488C134.734 3.36488 131.263 3.40073 130.255 3.40073C129.333 3.45192 128.801 3.89222 128.632 4.79842C128.371 6.16541 128.14 7.5324 127.894 8.89938C127.526 10.9524 127.173 13.0055 126.783 15.0534C126.558 16.2616 126.947 16.7787 128.171 16.7839C128.616 16.7839 129.067 16.7941 129.512 16.7736C130.516 16.7224 131.176 16.2002 131.391 15.2223C131.606 14.1421 131.724 13.4202 131.898 12.514C131.934 12.3296 131.867 12.2682 131.688 12.2682C131.376 12.2682 130.92 12.2785 130.613 12.2682C129.891 12.2375 129.804 11.9866 129.819 11.275C129.83 10.6401 129.85 10.0053 129.845 9.37552C129.845 9.12977 129.947 9.05297 130.168 9.05297C131.043 9.05297 135.067 9.0837 135.533 9.0837C135.999 9.0837 136.265 9.41136 136.204 9.91822C136.132 10.4968 136.025 11.0702 135.922 11.6436C135.656 13.1693 135.39 14.7001 135.124 16.2258C134.929 17.3266 134.724 18.4222 134.54 19.523C134.504 19.7534 134.427 19.8353 134.187 19.8302C133.629 19.8097 133.07 19.8302 132.507 19.8199C131.806 19.8046 131.606 19.6049 131.545 18.9137C131.529 18.7294 131.509 18.5092 131.489 18.2789C131.473 18.1457 131.279 18.1201 131.192 18.2635C130.567 19.2772 129.307 19.9581 128.422 20.0298C127.531 20.1015 126.681 20.081 125.816 20.0298C124.828 19.9684 123.906 19.6919 123.24 18.8779C122.754 18.284 122.585 17.5774 122.534 16.8351C122.467 15.8828 122.621 14.951 122.785 14.0243C123.235 11.4695 123.686 8.91986 124.126 6.36508C124.316 5.27456 124.515 4.1943 124.986 3.18058C125.744 1.5576 127.024 0.610427 128.765 0.303239C129.471 0.180364 130.193 0.144533 130.915 0.118934C131.77 0.0882154 132.63 0.113809 133.485 0.113809C134.714 0.113809 135.81 0.113809 137.038 0.113809C137.392 0.113809 137.504 0.205964 137.397 0.54387L137.392 0.533637ZM14.9722 2.76586C15.1821 4.34276 14.8391 5.88382 14.1991 7.34296C13.7946 8.2594 12.9959 9.00691 12.018 9.19634C11.8081 9.2373 11.6546 9.23729 11.6648 9.42672C11.675 9.56496 11.7467 9.55983 11.977 9.63151C12.7501 9.87214 13.3338 10.3432 13.641 11.1163C13.8714 11.6948 13.9379 12.3041 13.8713 12.9082C13.728 14.1881 13.5591 15.4732 13.1188 16.6968C12.4788 18.4836 11.1682 19.4513 9.33015 19.7482C7.89661 19.9786 6.45286 19.8609 5.0142 19.8865C4.76333 19.8865 4.51747 19.8865 4.2666 19.8865C2.93545 19.8865 1.60953 19.8813 0.278384 19.8916C0.027514 19.8916 -0.0288138 19.8302 0.0121446 19.5793C0.309093 17.9461 0.585527 16.3077 0.872235 14.6694C1.35862 11.8689 1.84505 9.07345 2.33143 6.27292C2.66421 4.353 3.00211 2.4382 3.34001 0.518278C3.37585 0.313486 3.40142 0.154777 3.68812 0.154777C6.3453 0.180376 9.00251 0.221321 11.6597 0.221321C13.5489 0.221321 14.7674 1.21969 14.9671 2.75563L14.9722 2.76586ZM8.42906 11.1521C7.5587 11.1521 6.7907 11.1521 5.97153 11.1419C5.74626 11.1419 5.63876 11.2033 5.5978 11.4388C5.31109 13.0874 5.01415 14.7359 4.71208 16.3845C4.67112 16.62 4.74793 16.6917 4.97832 16.6866C5.77701 16.6815 7.10816 16.6712 7.92221 16.6405C8.58266 16.6149 9.04343 16.2207 9.19191 15.5654C9.37622 14.7564 9.60665 13.3638 9.74488 12.5498C9.92408 11.5054 9.2943 11.1521 8.42394 11.1521H8.42906ZM9.71414 3.3956C8.92057 3.38024 8.12704 3.3956 7.32835 3.38024C7.08772 3.38024 7.00058 3.4724 6.96474 3.68743C6.71899 5.05442 6.47327 6.4214 6.2224 7.78327C6.18656 7.98294 6.24284 8.04949 6.44251 8.04949C6.98521 8.04949 8.13722 8.03926 8.6748 8.03926C9.6066 8.03926 10.1647 7.58872 10.3951 6.68252C10.5641 6.01182 10.6716 5.32065 10.7637 4.6346C10.8815 3.80007 10.5384 3.40584 9.70901 3.39048L9.71414 3.3956ZM64.1887 0.16501C62.8729 0.18549 61.552 0.165008 60.2414 0.226446C59.1509 0.277644 58.342 0.835709 57.8658 1.83407C57.6457 2.29485 57.4409 2.75563 57.2464 3.22665C56.7805 4.36837 56.1763 5.74559 55.7923 6.66203C55.5824 7.15353 55.439 7.54263 55.3571 7.80886C55.183 8.39764 55.0295 8.9557 54.8912 9.50352C54.8554 9.64175 54.6352 9.61104 54.6301 9.46769C54.6301 9.32945 54.7274 8.00853 54.7325 7.83958C54.7478 7.44536 54.7632 7.07161 54.7325 6.47771C54.6506 4.98785 54.5175 3.50312 54.369 2.0235C54.2717 1.03026 53.857 0.426116 52.8125 0.272522C52.618 0.241803 52.4184 0.205962 52.2238 0.205962C51.0309 0.190603 49.838 0.190604 48.6451 0.175244C48.4403 0.175244 48.3737 0.257166 48.343 0.451718C48.2099 1.24529 45.5219 16.4511 44.9946 19.4359C44.9332 19.779 45.0202 19.8967 45.3735 19.8967C46.4435 19.8967 48.2201 19.9069 48.4761 19.9069C48.7321 19.9069 48.8959 19.8097 48.9471 19.5127C49.3362 17.2498 49.71 14.9868 50.14 12.7341C50.5189 10.7425 50.7698 8.74066 50.9029 6.71834C50.9541 5.95037 51.0258 5.18241 51.1077 4.41956C51.118 4.3274 51.2203 4.24548 51.2766 4.15845C51.3688 4.24036 51.4712 4.31205 51.5531 4.4042C51.5838 4.44516 51.5685 4.52196 51.5736 4.5834C51.6146 5.00322 51.6504 5.42304 51.6913 5.84286C51.8552 7.62455 52.0139 9.40624 52.1777 11.1828C52.2699 12.1863 52.3672 13.1847 52.4696 14.1881C52.5156 14.6489 52.6948 14.8179 53.1709 14.8435C53.5037 14.864 54.0925 14.8588 54.4406 14.8588C54.9679 14.8588 55.2138 14.7616 55.4339 14.2445C55.8691 13.2154 59.7346 4.48611 59.7858 4.36836C59.883 4.15333 60.3131 4.21989 60.2414 4.47076C59.9854 5.39232 59.7448 6.31389 59.499 7.23545C59.243 8.19285 58.9359 9.14514 58.7516 10.1179C58.3471 12.2273 58.0041 14.3468 57.6304 16.4613C57.4307 17.5979 57.1542 19.1646 57.103 19.4667C57.0518 19.7687 57.1541 19.8916 57.4152 19.8916C57.6764 19.8916 59.5399 19.8916 60.7329 19.9018C60.9837 19.9018 61.0145 19.7175 61.0504 19.5281C61.3883 17.5826 64.112 2.08493 64.4038 0.446593C64.4397 0.252041 64.414 0.170125 64.199 0.175244L64.1887 0.16501ZM45.4042 4.67555C45.1329 6.36508 43.9195 13.3024 43.5918 15.0841C43.4484 15.8674 43.1924 16.62 42.8238 17.3266C42.0456 18.8062 40.8067 19.6765 39.1837 19.9325C38.1854 20.0913 34.453 20.1015 33.6133 20.0247C33.173 19.9837 32.7327 19.8557 32.3231 19.697C31.0944 19.2107 30.5261 18.2379 30.4083 16.9631C30.3213 15.9903 30.4646 15.0278 30.6336 14.0755C30.9254 12.4167 32.0109 6.28317 32.2874 4.88546C32.4973 3.81543 32.8761 2.80683 33.5622 1.94158C34.4786 0.774267 35.7329 0.200842 37.1613 0.0779671C38.431 -0.0295487 41.3339 0.026771 42.5473 0.159886C43.8631 0.30836 44.9896 1.10706 45.3326 2.45869C45.5169 3.19082 45.5322 3.9383 45.4145 4.68068L45.4042 4.67555ZM41.2265 4.47076C41.3084 3.70791 40.9244 3.2932 40.1564 3.26248C39.4499 3.23176 38.7383 3.23176 38.0318 3.26248C37.3355 3.2932 36.8388 3.65671 36.6084 4.32741C36.5316 4.54756 36.4753 4.77795 36.4343 5.01346C36.0657 7.07674 35.7022 9.14001 35.3387 11.2033C35.093 12.6061 34.842 14.0141 34.6014 15.4169C34.4478 16.2924 34.8676 16.8095 35.7636 16.8402C36.0759 16.8504 37.2433 16.8453 37.5147 16.8402C38.5745 16.83 39.1377 16.3794 39.3322 15.3503C39.578 14.0448 39.798 12.7392 40.0284 11.4286C40.2947 9.9387 40.5609 8.44884 40.822 6.95898C40.9654 6.12957 41.1344 5.30017 41.2265 4.46053V4.47076ZM30.0858 2.45356C30.2701 3.18569 30.2855 3.93318 30.1677 4.67555C29.8963 6.36508 28.6829 13.3024 28.3553 15.0841C28.2119 15.8674 27.9559 16.62 27.5873 17.3266C26.8091 18.8062 25.5702 19.6765 23.9472 19.9325C22.9488 20.0913 19.2164 20.1015 18.3768 20.0247C17.9416 19.9837 17.4962 19.8557 17.0866 19.697C15.8578 19.2107 15.2895 18.2379 15.1718 16.9631C15.0848 15.9903 15.2282 15.0278 15.3972 14.0755C15.689 12.4167 16.7744 6.28317 17.0508 4.88546C17.2608 3.81543 17.6396 2.80683 18.3257 1.94158C19.2421 0.774267 20.4965 0.200842 21.9249 0.0779671C23.1946 -0.0295487 26.0974 0.026771 27.3108 0.159886C28.6266 0.30836 29.753 1.10706 30.0961 2.45869L30.0858 2.45356ZM25.99 4.47076C26.0719 3.70791 25.6879 3.2932 24.9199 3.26248C24.2134 3.23176 23.5018 3.23176 22.7952 3.26248C22.0989 3.2932 21.6023 3.65671 21.3719 4.32741C21.2951 4.54756 21.2388 4.77795 21.1927 5.01346C20.8241 7.07674 20.4606 9.14001 20.0971 11.2033C19.8513 12.6061 19.6005 14.0141 19.3599 15.4169C19.2063 16.2924 19.626 16.8095 20.522 16.8402C20.8343 16.8504 22.0017 16.8453 22.273 16.8402C23.3328 16.83 23.896 16.3794 24.0906 15.3503C24.3363 14.0448 24.5564 12.7392 24.7868 11.4286C25.053 9.9387 25.3193 8.44884 25.5804 6.95898C25.7237 6.12957 25.8927 5.30017 25.9849 4.46053L25.99 4.47076ZM103.197 1.0149C103.33 2.73515 104.021 11.8535 104.62 19.5537C104.64 19.8148 104.584 19.8967 104.313 19.8916C103.371 19.8762 102.423 19.8916 101.481 19.8814C100.657 19.8762 100.35 19.5588 100.309 18.7243C100.268 17.8283 100.222 16.9375 100.176 16.0415C100.155 15.6473 100.114 15.6012 99.7048 15.6012C98.4761 15.6012 97.2422 15.6012 96.0135 15.6012C95.696 15.6012 95.5116 15.719 95.399 16.021C95.0252 16.9835 94.631 17.9307 94.2522 18.8881C93.9808 19.5742 93.4637 19.8865 92.747 19.8865C90.7605 19.8865 88.7689 19.8865 86.7825 19.8865C86.634 19.8865 86.4855 19.8609 86.337 19.8506C85.6048 19.7994 85.267 19.3847 85.0929 18.6936C84.9086 17.9665 84.6577 17.1167 84.5297 16.5535C84.4222 16.0722 84.4375 15.9084 84.8113 15.5807C85.1901 15.253 87.1818 13.5533 87.4532 13.3229C87.7245 13.0925 87.9855 13.2103 88.1033 13.6403C88.3388 14.4953 88.7484 15.9493 89.0454 16.9989C89.2706 17.7822 89.4959 18.5707 89.7212 19.354C89.7519 19.354 89.7826 19.354 89.8133 19.354C90.0847 18.7294 90.351 18.1048 90.6223 17.4802C92.9365 12.0583 97.5442 1.30672 97.7388 0.851061C97.9333 0.395399 98.3531 0.149652 98.8805 0.149652C100.012 0.149652 101.143 0.144532 102.275 0.149652C102.894 0.154772 103.156 0.405637 103.202 1.02513L103.197 1.0149ZM99.8687 6.70299C99.8892 5.93502 100.002 4.56803 100.007 4.41444C100.007 4.26084 99.7509 4.20965 99.7151 4.36836C99.6843 4.52707 98.8241 7.1433 98.3531 8.45909C97.9333 9.63664 97.4572 10.7988 97.0067 11.9661C96.8428 12.386 96.8787 12.4423 97.3139 12.4423C98.0358 12.4423 98.7577 12.4423 99.4745 12.4423C99.9864 12.4423 100.017 12.4064 99.9967 11.8791C99.9506 10.6606 99.9096 9.4472 99.8584 8.08534C99.8584 7.71671 99.8482 7.20985 99.8584 6.70299H99.8687ZM122.636 0.16501C121.454 0.16501 120.286 0.16501 119.503 0.16501C119.099 0.16501 118.94 0.364684 118.868 0.758909C118.551 2.5918 118.249 4.23525 117.936 6.06814C117.701 7.42488 117.414 8.7765 117.255 10.1435C117.051 11.8791 116.959 13.6864 116.866 15.4374C116.856 15.678 116.498 15.7036 116.472 15.422C115.965 9.27312 115.679 5.56128 115.351 1.5576C115.269 0.559236 114.818 0.16501 114.02 0.16501C112.934 0.16501 110.277 0.18549 109.627 0.16501C109.356 0.154771 109.269 0.246923 109.228 0.513153C109.12 1.26064 108.977 2.00813 108.844 2.7505C108.465 4.91106 106.186 17.9307 105.92 19.4667C105.849 19.8865 105.854 19.8865 106.268 19.8865C107.2 19.8865 108.132 19.8865 109.064 19.8865C109.878 19.8865 109.868 19.8865 110.001 19.0878C110.257 17.5826 111.352 11.6743 111.542 10.2152C111.731 8.72531 111.803 7.22008 111.926 5.7251C111.962 5.28992 111.982 4.85475 112.023 4.42469C112.049 4.19941 112.438 4.225 112.453 4.44515C112.52 5.49983 112.627 6.75931 112.699 7.81399C112.842 9.84655 113.324 16.7071 113.436 18.1099C113.523 19.1799 114.04 19.6919 115.105 19.8148C115.489 19.8609 115.873 19.8865 116.257 19.8916C117.199 19.9018 118.146 19.8916 119.088 19.8916C119.513 19.8916 119.524 19.8916 119.595 19.4615C119.805 18.2533 122.457 3.02186 122.913 0.508044C122.964 0.221335 122.882 0.170135 122.621 0.170135L122.636 0.16501ZM74.9967 8.25941C74.7458 8.25941 71.3923 8.25941 69.5901 8.25941C69.2318 8.25941 69.2216 8.25429 69.283 7.90614C69.5185 6.54939 69.7745 5.19778 69.9946 3.83591C70.0458 3.51336 70.1891 3.45193 70.481 3.45193C71.9248 3.46217 73.7423 3.45193 74.8123 3.45193C75.8823 3.45193 74.9147 0.159886 74.4693 0.159886C74.0239 0.159886 69.2523 0.159886 66.9484 0.159886C66.462 0.159886 66.4619 0.159891 66.38 0.661631C66.1752 1.85966 64.2861 12.6266 64.0301 14.1165C63.8458 15.207 63.641 16.2924 63.9072 17.4034C64.112 18.2379 64.5573 18.8676 65.3202 19.2721C66.2161 19.7482 67.1941 19.8506 68.1771 19.866C70.353 19.8967 72.5289 19.8711 74.6997 19.8865C74.9608 19.8865 75.012 19.7892 75.012 19.5639C75.012 18.9905 75.0274 18.4222 75.0428 17.8488C75.0684 16.7992 74.8738 16.5893 73.8345 16.5893C72.4316 16.5893 71.0237 16.5893 69.6209 16.5893C69.3495 16.5893 69.073 16.5688 68.8017 16.533C68.2897 16.4562 68.0133 16.1388 68.0031 15.6217C68.0031 15.3862 68.003 15.1455 68.044 14.9151C68.218 13.8502 68.4228 12.7904 68.5816 11.7204C68.6276 11.403 68.7505 11.3159 69.0628 11.3211C70.527 11.3364 71.9965 11.3313 73.4607 11.3211C74.1109 11.3211 74.4846 11.0497 74.6946 10.4404C74.8994 9.85167 75.222 8.85843 75.2885 8.6178C75.3551 8.37717 75.2424 8.25428 74.9915 8.25428L74.9967 8.25941ZM82.5176 4.6346C81.6933 4.42981 80.6387 4.27621 79.8861 4.19941C79.4714 4.15845 79.282 4.26598 79.2308 4.58852C78.9338 6.38557 78.299 10.1384 77.9816 12.0276C77.8843 12.601 78.2887 12.5088 78.5344 12.2631C80.0857 10.7118 81.9339 8.84818 82.2258 8.4642C82.5176 8.08021 82.6047 7.89591 82.7071 7.43C82.8044 6.9641 82.9221 6.05277 83.0194 5.4896C83.1166 4.92642 82.9528 4.74722 82.5176 4.63971V4.6346Z" fill="#2C2C2C"/>
<path d="M93.1823 5.05981C89.88 9.31948 83.1628 15.4581 78.2478 19.641C77.9252 19.9175 77.3416 19.8151 77.0498 19.2826C76.5634 18.3866 76.4252 17.2244 77.6539 15.8575C81.2839 11.8128 84.6219 7.76819 86.5726 5.35164C87.2023 4.57344 87.1717 4.22529 86.1375 4.02562C83.6339 3.53412 80.0397 2.99141 77.7409 2.6535C76.9832 2.54087 76.589 1.89579 76.4712 1.29165C76.3381 0.605596 76.5378 0.247207 77.0242 0.216489C80.8692 -0.00878257 86.6443 -0.157265 91.4722 0.288158C94.5083 0.569746 94.9333 2.80711 93.1823 5.06494V5.05981Z" fill="#2C2C2C"/>
</svg>
