<svg width="140" height="34" viewBox="0 0 140 34" fill="none" xmlns="http://www.w3.org/2000/svg">
<g clip-path="url(#clip0_256_1602)">
<path d="M77.0735 9.27358C77.0735 11.1959 75.4705 12.7631 73.4965 12.7631C71.5225 12.7631 69.9195 11.1993 69.9195 9.27358V0H66.8325V9.27358C66.8325 12.8587 69.8215 15.7746 73.4965 15.7746C77.1715 15.7746 80.1605 12.8587 80.1605 9.27358V0H77.0735V9.27358Z" fill="#2C2C2C"/>
<path d="M8.0815 3.01152C9.4045 3.01152 10.6085 3.51686 11.5045 4.33632L13.2755 1.84379C11.872 0.693129 10.059 0 8.0815 0C3.619 0 0 3.53052 0 7.88391C0 12.2373 3.619 15.7678 8.0815 15.7678C10.059 15.7678 11.872 15.0747 13.2755 13.924L11.5045 11.4315C10.6085 12.2544 9.4045 12.7563 8.0815 12.7563C5.327 12.7563 3.087 10.5711 3.087 7.88391C3.087 5.19676 5.327 3.01152 8.0815 3.01152Z" fill="#2C2C2C"/>
<path d="M42.896 10.5984L35.378 0H32.291V15.7678H35.378V5.17286L42.896 15.7678H45.983V0H42.896V10.5984Z" fill="#2C2C2C"/>
<path d="M50.092 0V3.01152H54.866V15.7678H57.953V3.01152H62.7235V0H50.092Z" fill="#2C2C2C"/>
<path d="M135.233 0V3.01152H136.913V15.7678H140V0H135.233Z" fill="#2C2C2C"/>
<path d="M17.395 0V15.7678H28.1715V12.7563H20.482V9.38967H26.656V6.37815H20.482V3.01152H28.1715V0H17.395Z" fill="#2C2C2C"/>
<path d="M96.6804 5.29236C96.6804 2.37644 94.2444 0 91.2554 0H84.2764V15.7678H87.3634V10.5847H89.3339L93.0124 15.7644H96.6839L92.8444 10.3525C95.0669 9.69014 96.6839 7.6688 96.6839 5.28895L96.6804 5.29236ZM91.2554 7.57661H87.3634V3.01152H91.2554C92.5469 3.01152 93.5934 4.03585 93.5934 5.29236C93.5934 6.54887 92.5434 7.5732 91.2554 7.5732V7.57661Z" fill="#2C2C2C"/>
<path d="M110.821 0L106.295 6.37815L101.766 0H98.0981L104.752 9.3726V15.7678H107.839V9.3726L114.489 0H110.821Z" fill="#2C2C2C"/>
<path d="M130.862 7.8805L130.942 7.76782C131.492 6.97226 131.814 6.01622 131.814 4.98506C131.814 4.57875 131.765 4.18609 131.67 3.80708C131.128 1.62185 129.112 0 126.704 0C123.883 0 121.594 2.23303 121.594 4.98506C121.594 5.04652 121.594 5.10798 121.597 5.16944H124.691C124.684 5.10798 124.681 5.04652 124.681 4.98506C124.681 3.89586 125.587 3.01152 126.704 3.01152C127.82 3.01152 128.779 3.8344 128.727 4.98506C128.702 5.49381 128.251 6.2723 128.076 6.51814C127.904 6.76398 121.51 15.7712 121.51 15.7712H132.115V12.7597H127.4L130.862 7.8805Z" fill="#2C2C2C"/>
</g>
<path d="M69.1338 25.5156C69.7079 25.5157 70.2134 25.6396 70.6494 25.8867C71.0925 26.1338 71.441 26.4788 71.6953 26.9219C71.957 27.3652 72.0879 27.8889 72.0879 28.4922C72.0879 29.0954 71.9569 29.6227 71.6953 30.0732C71.441 30.5163 71.0924 30.8614 70.6494 31.1084C70.2134 31.3555 69.7079 31.4794 69.1338 31.4795C68.6613 31.4795 68.2284 31.3704 67.8359 31.1523C67.6234 31.032 67.4356 30.8771 67.2695 30.6904V33.5176H65.9062V25.5811H67.2041V26.3486C67.3785 26.139 67.5817 25.9701 67.8145 25.8428C68.1997 25.6247 68.6396 25.5156 69.1338 25.5156ZM61.9023 29.8867L63.7461 25.5811H65.0547L62.3291 31.8721L61.7412 33.3066H60.3057C60.3057 33.3066 60.7007 32.5332 61.0967 31.6533L61.1992 31.4199L58.6543 25.5811H60.0723L61.9023 29.8867ZM55.3564 23.6621C55.9813 23.6622 56.5515 23.7713 57.0674 23.9893C57.5834 24.2 58.0199 24.516 58.376 24.9375L57.46 25.7988C57.1838 25.5009 56.8747 25.2791 56.5332 25.1338C56.1918 24.9813 55.8213 24.9053 55.4219 24.9053C55.0221 24.9053 54.6547 24.9707 54.3203 25.1016C53.9933 25.2324 53.7061 25.4174 53.459 25.6572C53.2191 25.8971 53.0297 26.1807 52.8916 26.5078C52.7609 26.8348 52.6963 27.1946 52.6963 27.5869C52.6963 27.9792 52.7609 28.3391 52.8916 28.666C53.0297 28.993 53.2192 29.2768 53.459 29.5166C53.7061 29.7565 53.9932 29.9424 54.3203 30.0732C54.6546 30.204 55.0222 30.2695 55.4219 30.2695C55.8214 30.2695 56.1918 30.196 56.5332 30.0508C56.8747 29.8982 57.1838 29.6694 57.46 29.3643L58.376 30.2363C58.0198 30.6506 57.5834 30.9665 57.0674 31.1846C56.5514 31.4026 55.977 31.5117 55.3447 31.5117C54.7634 31.5117 54.2221 31.4174 53.7207 31.2285C53.2265 31.0323 52.7935 30.76 52.4229 30.4111C52.0595 30.0551 51.7767 29.6368 51.5732 29.1572C51.3697 28.6775 51.2676 28.1538 51.2676 27.5869C51.2676 27.02 51.3697 26.4963 51.5732 26.0166C51.7767 25.5371 52.064 25.1232 52.4346 24.7744C52.8052 24.4183 53.2372 24.145 53.7314 23.9561C54.2257 23.7598 54.7677 23.6621 55.3564 23.6621ZM79.2783 28.7207C79.2783 29.244 79.3944 29.6368 79.627 29.8984C79.8668 30.1527 80.2047 30.2802 80.6406 30.2803C80.9604 30.2803 81.2371 30.2148 81.4697 30.084C81.7095 29.9532 81.8946 29.7567 82.0254 29.4951C82.1635 29.2335 82.2324 28.9096 82.2324 28.5244V25.5811H83.5957V31.4033H82.2979V30.6621C82.127 30.8745 81.9172 31.0493 81.666 31.1846C81.2881 31.3808 80.8735 31.4795 80.4229 31.4795C79.9286 31.4795 79.4922 31.3887 79.1143 31.207C78.7364 31.0181 78.4422 30.7343 78.2314 30.3564C78.0207 29.9712 77.915 29.4877 77.915 28.9062V25.5811H79.2783V28.7207ZM87.4512 25.5156C87.8437 25.5156 88.2399 25.5593 88.6396 25.6465C89.0393 25.7337 89.3702 25.8567 89.6318 26.0166L89.1084 27.0527C88.8322 26.8856 88.552 26.773 88.2686 26.7148C87.9925 26.6495 87.7165 26.6172 87.4404 26.6172C87.0262 26.6172 86.7172 26.6783 86.5137 26.8018C86.3175 26.9252 86.2198 27.0817 86.2197 27.2705C86.2197 27.4448 86.2845 27.5759 86.415 27.6631C86.5458 27.7503 86.7171 27.8192 86.9277 27.8701C87.1385 27.921 87.3716 27.9646 87.626 28.001C87.8874 28.03 88.1452 28.0772 88.3994 28.1426C88.6538 28.208 88.8869 28.2997 89.0977 28.416C89.3156 28.525 89.4903 28.6813 89.6211 28.8848C89.7518 29.0882 89.8174 29.3538 89.8174 29.6807C89.8173 30.0439 89.7082 30.3601 89.4902 30.6289C89.2795 30.8978 88.9774 31.1081 88.585 31.2607C88.1925 31.4061 87.7238 31.4795 87.1787 31.4795C86.6918 31.4795 86.223 31.4175 85.7725 31.2939C85.3292 31.1631 84.9765 31.0069 84.7148 30.8252L85.2383 29.7891C85.4999 29.9562 85.8124 30.0951 86.1758 30.2041C86.539 30.3131 86.9024 30.3672 87.2656 30.3672C87.6945 30.3672 88.0034 30.3087 88.1924 30.1924C88.3886 30.0761 88.4873 29.9199 88.4873 29.7236C88.4872 29.564 88.4216 29.4442 88.291 29.3643C88.1602 29.277 87.9891 29.2116 87.7783 29.168C87.5675 29.1244 87.331 29.0842 87.0693 29.0479C86.8152 29.0115 86.5573 28.9643 86.2959 28.9062C86.0415 28.8408 85.8084 28.7501 85.5977 28.6338C85.3869 28.5102 85.2158 28.3461 85.085 28.1426C84.9544 27.9391 84.8887 27.67 84.8887 27.3359C84.8887 26.9655 84.9945 26.6458 85.2051 26.377C85.4159 26.1008 85.7109 25.8895 86.0889 25.7441C86.474 25.5916 86.9281 25.5156 87.4512 25.5156ZM76.749 26.8125C76.6911 26.798 76.6367 26.791 76.5859 26.791C76.5352 26.7838 76.4844 26.7803 76.4336 26.7803C75.9175 26.7803 75.5064 26.933 75.2012 27.2383C74.896 27.5363 74.7432 27.9832 74.7432 28.5791V31.4033H73.3809V25.5811H74.6777V26.4336C74.8449 26.177 75.0666 25.973 75.3428 25.8213C75.7206 25.6178 76.1895 25.5157 76.749 25.5156V26.8125ZM68.9805 26.6709C68.6535 26.671 68.3592 26.7443 68.0977 26.8896C67.8362 27.035 67.6291 27.2455 67.4766 27.5215C67.3239 27.7904 67.2471 28.1142 67.2471 28.4922C67.2471 28.8627 67.324 29.1858 67.4766 29.4619C67.6292 29.7381 67.836 29.9494 68.0977 30.0947C68.3592 30.24 68.6535 30.3124 68.9805 30.3125C69.3075 30.3125 69.5991 30.2401 69.8535 30.0947C70.115 29.9494 70.322 29.738 70.4746 29.4619C70.6271 29.1858 70.7031 28.8626 70.7031 28.4922C70.7031 28.1142 70.6272 27.7904 70.4746 27.5215C70.3221 27.2455 70.1149 27.035 69.8535 26.8896C69.5991 26.7443 69.3075 26.6709 68.9805 26.6709Z" fill="#2C2C2C"/>
<defs>
<clipPath id="clip0_256_1602">
<rect width="140" height="15.7746" fill="white"/>
</clipPath>
</defs>
</svg>
