<?xml version="1.0" encoding="UTF-8"?>
<svg id="Layer_1" xmlns="http://www.w3.org/2000/svg" width="230.1311mm" height="68.6696mm" version="1.1" viewBox="0 0 652.34 194.6538">
  <!-- Generator: Adobe Illustrator 30.1.0, SVG Export Plug-In . SVG Version: 2.1.1 Build 136)  -->
  <path d="M443.8871,102.6121l-7.3727,2.5086c-2.5986.8842-4.6949,3.1362-4.7057,6.0722l-.071,19.3099-7.1441.0261.001-51.8384c.0001-5.6919,2.2231-10.5675,7.8923-12.2757,4.5305-1.3651,9.3207-1.3626,13.8927-.1276,4.4446,1.2006,7.4625,4.7633,7.9736,9.3827.2805,2.5354.3017,4.996.303,7.683l.0238,47.2863-7.2524-.0315-.0286-29.9018c-1.3167.8413-2.2621,1.481-3.5118,1.9062ZM442.8689,94.9792c2.5685-.8623,4.3395-2.9864,4.4416-5.6836.1605-4.2392.1602-8.3873-.0288-12.6177-.2569-5.7525-9.6179-4.8912-12.7577-3.746-1.7243.6289-2.7041,2.8079-2.7097,4.7102l-.0633,21.6719c1.1566-.6822,2.2757-1.3662,3.4751-1.7689l7.6428-2.5659Z"/>
  <path d="M395.3285,103.0545c-3.5569,1.0757-9.7256,1.8939-9.7464,6.6062l-.0947,21.4558-7.0668-.0123-.0017-52.0922c0-2.323.3889-4.4657,1.0226-6.566,2.4654-8.1715,14.0016-8.5253,20.6518-6.6481,4.6594,1.3153,7.4967,5.0516,7.9452,9.8608.1634,5.3952.2507,10.6738.0278,16.0285-.1676,4.0272-2.3346,7.3906-6.0424,9.1045l9.7748,30.2837-7.3883-.0197-9.0819-28.0014ZM397.1221,94.565c2.3493-.6748,3.8309-2.4772,3.9252-4.9386.1696-4.4302.2139-8.819-.0869-13.2256-.1312-1.9216-1.4019-3.7572-3.2318-4.166-3.0729-.6865-6.2877-.8087-9.307.1672-1.8558.5998-2.8296,2.9223-2.8347,4.92l-.0559,22.054c3.0247-2.3794,7.8047-3.7235,11.5911-4.811Z"/>
  <path d="M267.9272,72.6465c-3.3784-1.2243-7.0255-1.1512-10.2715-.0182-1.8296.6386-2.7777,2.9918-2.7792,5.061l-.0371,53.3503-7.2455-.0098.0311-42.6806.0355-8.3856c.011-2.5841.2055-5.1721,1.053-7.618,2.7622-7.9717,14.2808-8.3354,20.9679-6.4337,6.3883,1.8167,8.2411,7.2495,8.2415,13.4408l.0038,51.6622-7.2517.0148-.0325-53.6417c-.0011-1.8716-.9422-4.0989-2.7154-4.7415Z"/>
  <path d="M602.3384,66.0095l7.0186-.0447-.0617,20.6987-.0591,37.9548c-.0077,4.9197-4.8543,8.3062-9.5947,7.2145-5.3269-1.2268-10.2347-3.0925-15.4341-5.0905-2.9081-1.1175-5.135-4.4748-5.1393-7.8145l-.0671-52.9435,6.8424.0091.0039,51.9652c0,.5142.5992,1.4321,1.0962,1.6003l13.8424,4.6826c.7281.2463,1.5201-.5937,1.5207-1.2545l.0278-27.3451.004-29.6323Z"/>
  <path d="M480.5417,124.0327c3.1561,1.186,12.4921,2.3083,13.0497-3.7785l.3451-3.7669,7.1094-.0148c.1411,5.5094-.9148,11.5201-6.8494,13.7303-5.5138,2.0534-11.4635,2.0239-16.9534-.1036-4.4853-1.7382-6.5717-6.6084-6.5659-11.1455l.0533-41.2909c.0051-3.9222,1.6535-8.017,5.0249-9.9048,5.4695-3.0626,12.0203-3.0318,17.8405-1.1097,6.0771,2.0069,7.8268,8.0927,7.3528,13.8308l-6.9841-.0009-.4359-4.0567c-.1754-1.6326-1.3457-3.2472-2.9894-3.6264-3.2754-.7556-6.6858-.894-9.9081.2131-1.706.5861-2.6836,2.7375-2.6813,4.6728l.0481,41.8827c.0021,1.8234.931,3.8631,2.5439,4.4692Z"/>
  <path d="M632.0471,118.1043c.0056,1.5781.5562,3.6295,1.6965,4.4603,1.5019,1.0942,3.6365,1.2854,5.4481,1.2939l13.1484.0613-.0248,6.7203-14.656-.07c-6.8586-.0328-12.4054-4.5417-12.409-11.6218l-.0207-40.2823c-.0016-3.0705.8402-6.1139,2.7604-8.3669,2.0055-2.3531,5.2136-3.8585,8.3408-3.8911l15.9841-.1668.0005,6.6991-14.8438.097c-2.9801.1281-5.3715,1.8341-5.3898,5.0547l-.091,16.0238,16.6016.0488-.0567,6.728-16.5499.0108.0613,17.2011Z"/>
  <path d="M342.3847,118.1028c.006,1.5792.561,3.617,1.6943,4.4529,1.4997,1.1062,3.6313,1.2942,5.4463,1.3027l13.1481.0614-.0249,6.7197-14.6536-.0723c-7.0446-.0348-12.4276-4.6342-12.4278-11.902l-.0014-39.9993c-.0001-3.1599.8959-6.2931,2.9271-8.5527,2.0058-2.2315,5.1358-3.6743,8.1696-3.7059l15.9859-.1663.0003,6.6984-14.8423.0995c-2.9895.135-5.3679,1.8276-5.387,5.0524l-.0951,16.0243,16.6015.0488-.0568,6.7279-16.5491.0109.065,17.1996Z"/>
  <path d="M211.8064,117.5883c.0022,1.7334.4152,3.9178,1.6386,4.9041,1.4516,1.1703,3.6587,1.3548,5.4716,1.3639l13.1523.0663.0003,6.7254-15.0574-.1144c-3.142-.0239-6.3487-1.1682-8.5846-3.3156-2.3435-2.2507-3.4396-5.5534-3.4414-8.9438l-.021-38.5932c-.0016-2.9187.4677-5.7437,1.9332-8.1741,1.7387-2.8835,5.0536-4.7244,8.5447-5.006,5.5579-.4483,11.1229-.2512,16.7039-.2242l-.0056,6.6393-14.9147.1343c-3.156.0975-5.3754,1.9801-5.3946,5.267l-.0924,15.7982,16.5682.0353.0145,6.7404-16.536.0108.0207,16.6862Z"/>
  <polygon points="310.5131 130.5988 303.6701 130.6339 303.6734 72.9805 291.8653 72.9703 291.8263 66.2373 322.3824 66.2286 322.4145 72.9716 310.5153 72.9831 310.5131 130.5988"/>
  <polygon points="530.8464 130.5988 524.0034 130.6339 524.0068 72.9808 512.2051 72.9695 512.1584 66.2373 542.716 66.2286 542.7477 72.9716 530.8487 72.9831 530.8464 130.5988"/>
  <polygon points="562.8497 130.5361 556.0882 130.6355 556.0817 66.3608 562.8439 66.3222 562.8497 130.5361"/>
  <path d="M88.6503,74.4067c5.1012-1.0407,9.6147,2.2285,10.5944,6.9426,1.0032,4.8268-2.1073,9.5437-6.9053,10.5399-4.7813.9927-9.4384-1.9229-10.5613-6.647-1.1314-4.7599,1.7218-9.7847,6.8722-10.8354Z"/>
  <path d="M57.3277,88.7302c5.0788-1.2229,9.7244,1.8845,10.8529,6.6505,1.1195,4.7281-1.8129,9.5855-6.6568,10.7236-4.6388,1.0899-9.4004-1.6452-10.6796-6.283-1.2999-4.7132,1.3678-9.8594,6.4834-11.0911Z"/>
  <path d="M103.3224,104.0553c5.0791-1.2316,9.727,1.8965,10.8392,6.6613,1.1041,4.7304-1.8166,9.5657-6.6475,10.71-4.6402,1.0991-9.4065-1.6524-10.6824-6.2674-1.3123-4.7468,1.3596-9.8597,6.4908-11.104Z"/>
  <path d="M121.9936,93.37c3.1577-.6015,5.8031,1.5508,6.337,4.2263.6153,3.0832-1.3588,5.8612-4.224,6.4463-2.9524.6029-5.7208-1.223-6.3969-4.0394-.6996-2.9143,1.0159-6.0107,4.2838-6.6333Z"/>
  <path d="M66.0044,42.7222c3.1248-.7313,5.8528,1.2275,6.4984,4.0539.647,2.8329-1.1186,5.7163-3.9666,6.3936-2.8165.6698-5.629-.9602-6.4252-3.6319-.8601-2.8859.7005-6.0682,3.8935-6.8155Z"/>
  <path d="M137.3323,84.3885c3.0248-.8893,5.8713.9622,6.6311,3.5676.8617,2.9548-.7642,5.9089-3.5483,6.716-2.8586.8286-5.7413-.6284-6.6735-3.3559-.9513-2.7832.4413-6.0017,3.5908-6.9277Z"/>
  <path d="M74.321,59.3644c3.1616-.6999,5.8577,1.4275,6.396,4.1753.5782,2.9516-1.2611,5.6805-4.1529,6.3194-2.7885.6161-5.5913-1.1805-6.2828-3.8338-.7669-2.9427.8746-5.9602,4.0397-6.6609Z"/>
  <path d="M41.6765,106.7448c2.9703-1.0552,5.9188.5544,6.8586,3.2658.9485,2.7366-.4533,5.7964-3.278,6.7914-2.6316.927-5.6344-.3441-6.6989-2.974-1.0939-2.7027.04-5.9897,3.1183-7.0833Z"/>
  <path d="M51.6138,70.6733c3.0496-.8913,5.8798.875,6.6714,3.5883.8255,2.8295-.7491,5.7986-3.6056,6.64-2.6956.794-5.6184-.6351-6.5514-3.3153-.9568-2.7485.3608-5.9996,3.4856-6.9129Z"/>
  <path d="M109.004,73.7267c3.1541-.7536,5.9002,1.2134,6.5177,4.0583.6025,2.7758-1.1522,5.551-3.7979,6.2485-2.9806.7859-5.8207-.8888-6.5983-3.7735-.73-2.7083.7783-5.7927,3.8784-6.5334Z"/>
  <path d="M27.6416,114.3557c3.0899-.9782,6.0223.7849,6.8234,3.7277.7099,2.608-.7665,5.5502-3.5224,6.4172-2.7735.8726-5.7439-.5382-6.7157-3.3715-.8931-2.6038.3648-5.8078,3.4147-6.7734Z"/>
  <path d="M153.6662,76.0485c3.0436-.5277,5.5666,1.5296,6.0271,4.168.5061,2.8997-1.3573,5.6167-4.258,6.0921-2.7237.4464-5.3633-1.2412-5.9683-4.0863-.56-2.6336,1.0681-5.6309,4.1992-6.1738Z"/>
  <path d="M57.6485,28.7156c2.9705-1.0628,5.9179.528,6.8064,3.3624.7921,2.5267-.5262,5.434-3.2013,6.3987-2.6368.9509-5.6241-.2966-6.6607-3.017-.9552-2.5068.116-5.6924,3.0555-6.7441Z"/>
  <path d="M124.6586,67.3967c2.8826-.6666,5.3729,1.1828,5.9659,3.5896.6893,2.7975-1.0129,5.4207-3.5501,6.0655-2.7124.6894-5.3135-.8672-6.0433-3.3693-.78-2.6743.6387-5.5946,3.6275-6.2857Z"/>
  <path d="M13.6494,123.3755c2.373-.666,4.5353.7288,5.1045,2.7845.6159,2.2246-.5788,4.5492-2.9505,5.1589-1.9808.5092-4.2021-.508-4.9459-2.7638-.6366-1.9309.3087-4.4826,2.7919-5.1795Z"/>
  <path d="M108.3292,131.424c2.2892-.9333,4.625.1635,5.4335,2.3343.731,1.9629-.1294,4.3455-2.3239,5.2216-1.9015.7591-4.1958-.0312-5.1431-1.903-1.0281-2.0316-.3324-4.6883,2.0335-5.6529Z"/>
  <path d="M139.6719,60.0258c2.3319-.3871,4.2157,1.2596,4.535,3.1333.3976,2.3339-1.0295,4.3743-3.3235,4.6934-2.0203.281-4.0133-.908-4.4753-3.1644-.3946-1.9274.7962-4.2527,3.2638-4.6623Z"/>
  <path d="M43.4646,56.0232c1.9111-.7958,3.9993.0718,4.758,1.9281.6973,1.7061.0142,3.8562-1.8258,4.6363-1.7336.735-3.867.1949-4.7823-1.7433-.7788-1.6492-.1976-3.9684,1.8501-4.8211Z"/>
  <path d="M34.9895,37.7122c2.1553-.6199,4.0475.715,4.4794,2.4566.4972,2.0054-.5425,3.8892-2.4341,4.4257-1.8588.5272-3.8415-.4673-4.4093-2.2052-.6269-1.9187.2032-4.0556,2.364-4.6772Z"/>
  <path d="M153.3256,54.3654c1.9605-.4867,3.5426.8069,3.9368,2.2855.4933,1.8502-.6597,3.5842-2.1979,4.0103-1.8342.5082-3.4941-.4907-4.0276-2.0022-.6235-1.7667.2609-3.7902,2.2887-4.2936Z"/>
  <path d="M2.7988,130.998c1.8188-.2567,3.3322.9953,3.6278,2.5247.3621,1.8735-.8107,3.5568-2.6014,3.8755-1.7765.3162-3.4597-.8023-3.7855-2.7223-.271-1.5975.8651-3.4106,2.7591-3.678Z"/>
  <path d="M121.6629,155.0205c1.9258-.2865,3.3609,1.1211,3.6061,2.6816.2758,1.755-1.0067,3.3507-2.5589,3.614-1.805.3062-3.3195-.8202-3.685-2.3265-.4362-1.7974.5975-3.6655,2.6377-3.9691Z"/>
  <path d="M115.9719,145.0104c1.9128-.5609,3.621.5858,4.0217,2.2177.4082,1.6622-.4571,3.4097-2.1659,3.866-1.6434.4388-3.4211-.2769-3.9906-2.1965-.3967-1.3373.2054-3.3215,2.1348-3.8872Z"/>
  <path d="M126.3894,167.6255c1.2072-.5102,2.5228-.1253,3.0936,1.113.434.9417.1123,2.3447-1.0257,2.9693-1.0242.5623-2.4761.1163-2.9995-.7822-.708-1.2154-.3501-2.7586.9315-3.3002Z"/>
  <path d="M27.6507,23.7565c1.3027-.6488,2.58-.0934,3.1281,1.0388.4731.9774.0731,2.3904-.9695,2.9444-1.0077.5355-2.3505.1641-2.8875-.566-.8359-1.1364-.6239-2.7435.7289-3.4172Z"/>
  <path d="M164.2921,49.7217c1.2813-.7154,2.6833-.2424,3.2264.9735.3861.8645.0617,2.2863-.8618,2.8165-1.0527.6044-2.4122.326-3.0676-.631-.6268-.9152-.534-2.4683.703-3.1589Z"/>
  <path d="M138.7371,191.6286c.7332-.2144,1.7158.2785,1.9226.8888.252.7437-.1068,1.7223-.9367,2.0683-.5991.2498-1.6445-.2184-1.9612-.9034-.3088-.668.1121-1.8014.9753-2.0538Z"/>
  <path d="M132.7441,178.6949c.5934-.2053,1.6967.4335,1.8585.9502.2332.7446-.2599,1.8497-.8771,2.0139-.7166.1907-1.7083-.1565-1.9455-.6463-.378-.7804-.2303-1.9045.9641-2.3178Z"/>
  <path d="M184.0648,41.2837c.7474-.2503,1.7026.3251,1.9109.9981.1595.5153-.3306,1.5261-.8393,1.733-.678.2758-1.583-.0528-1.9998-.748-.3301-.5505.0708-1.696.9282-1.9832Z"/>
  <path d="M174.3544,45.6899c.7921-.2266,1.7314.5168,1.8141,1.123.0914.6704-.4259,1.5756-1.1057,1.7701-.531.152-1.4999-.3854-1.7205-.8848-.2791-.6318.0995-1.7473,1.0121-2.0083Z"/>
  <path d="M16.376.0093c.5737-.1038,1.4315.6859,1.467,1.1701.0557.7592-.52,1.6097-1.332,1.6719-.4917.0377-1.2498-.5311-1.4986-1.1589-.2059-.5193.4005-1.5088,1.3636-1.6831Z"/>
  <path d="M22.0713,12.2796c.677-.1307,1.6102.3872,1.7451.8832.1642.604-.239,1.6567-.7441,1.797-.6202.1722-1.5383-.0981-1.7958-.5417-.3527-.6074-.0928-1.9672.7948-2.1385Z"/>
</svg>