<svg width="129" height="36" viewBox="0 0 129 36" fill="none" xmlns="http://www.w3.org/2000/svg">
<mask id="mask0_256_1727" style="mask-type:luminance" maskUnits="userSpaceOnUse" x="9" y="15" width="5" height="5">
<path d="M9.27881 17.7331C9.27881 18.8844 10.2123 19.8187 11.3644 19.8187C12.5166 19.8187 13.45 18.8852 13.45 17.7331C13.45 16.5809 12.5166 15.6475 11.3644 15.6475C10.2123 15.6475 9.27881 16.5809 9.27881 17.7331Z" fill="white"/>
</mask>
<g mask="url(#mask0_256_1727)">
<path d="M13.45 15.6475H9.27881V19.8187H13.45V15.6475Z" fill="#2C2C2C"/>
</g>
<path d="M13.3941 26.8419H19.8236C18.6181 30.4741 15.2866 33.0964 11.3658 33.0964C4.84733 33.2236 0.393033 25.6866 3.32308 19.8376C10.3273 27.0701 22.205 22.1515 22.6701 12.2307H11.3658C8.21946 12.2307 5.3745 13.5482 3.32069 15.672C-0.942783 6.34752 10.5063 -2.21043 17.7713 5.22878C18.2858 5.77742 18.7358 6.39125 19.1079 7.05757L20.8509 5.31465C20.4485 4.68173 19.9746 4.11401 19.4753 3.55185C19.4753 3.55185 19.4371 3.51448 19.4363 3.51448C9.62445 -6.15744 -5.05279 5.96427 1.73123 17.7552C-2.93537 25.2326 2.5176 35.5724 11.365 35.481C17.4366 35.481 22.3791 30.5766 22.6693 24.4239H13.3934V26.8411L13.3941 26.8419ZM11.361 14.6065C13.9643 14.5604 16.4466 15.8215 18.0655 17.7488C14.6934 21.8946 8.02546 21.9137 4.66208 17.7441C6.30083 15.8238 8.69335 14.6065 11.3618 14.6065" fill="#2C2C2C"/>
<path d="M36.8705 13.4926H41.743C41.5728 14.9484 40.9733 16.1539 39.9579 17.0794C38.871 18.0693 37.4891 18.5718 35.8495 18.5718C33.9834 18.5718 32.4281 17.9381 31.2266 16.6882C30.022 15.4351 29.4114 13.8043 29.4114 11.8411C29.4114 9.7507 30.0133 8.03959 31.2012 6.75466C32.3836 5.4761 33.9476 4.82807 35.8495 4.82807C37.0144 4.82807 38.0488 5.07853 38.9243 5.57151C39.7989 6.06449 40.5408 6.81748 41.1308 7.8098L41.2954 8.0865L43.4589 6.35312L43.3174 6.14003C42.4968 4.90043 41.4456 3.9582 40.1949 3.34039C38.9497 2.72575 37.4644 2.41406 35.7795 2.41406C34.5089 2.41406 33.3329 2.60887 32.2826 2.99371C31.2274 3.38014 30.2876 3.96058 29.4893 4.71834C28.5415 5.61763 27.8227 6.67515 27.352 7.86068C26.8837 9.04145 26.6467 10.3796 26.6467 11.8395C26.6467 13.6158 27.0451 15.2259 27.8315 16.6254C28.6194 18.0288 29.7533 19.1443 31.2044 19.9426C31.8405 20.2806 32.5434 20.5422 33.294 20.7187C34.0422 20.8944 34.8389 20.9843 35.6627 20.9843C38.3788 20.9843 40.5567 20.1669 42.1358 18.5551C43.7141 16.945 44.514 14.725 44.514 11.9572V11.1024H36.8713V13.4926H36.8705Z" fill="#2C2C2C"/>
<path d="M54.9492 10.5646C54.612 10.1257 54.2192 9.76871 53.7756 9.49836C53.0735 9.07059 52.237 8.85352 51.2908 8.85352C49.6815 8.85352 48.3759 9.41249 47.4098 10.5145C46.4532 11.6062 45.969 13.0868 45.969 14.9148C45.969 16.7428 46.4683 18.1971 47.4527 19.3047C48.445 20.421 49.7681 20.9872 51.3846 20.9872C52.2624 20.9872 53.0671 20.7661 53.7772 20.3304C54.2359 20.0489 54.6438 19.6824 54.9969 19.2355V20.53H57.3401V9.24074H54.95V10.5654L54.9492 10.5646ZM54.0769 12.2463C54.6868 12.9285 54.9961 13.8501 54.9961 14.9847C54.9961 16.1194 54.7067 17.0354 54.1374 17.6627C53.5665 18.2917 52.792 18.597 51.7711 18.597C50.7501 18.597 49.9081 18.2829 49.3372 17.6365C48.7655 16.9893 48.4752 16.0415 48.4752 14.8209C48.4752 13.6783 48.7623 12.7838 49.3284 12.1604C49.8961 11.5363 50.6714 11.2325 51.7003 11.2325C52.7292 11.2325 53.4663 11.5641 54.0769 12.2471" fill="#2C2C2C"/>
<path d="M73.6735 8.85156C72.7997 8.85156 72.0173 9.04557 71.3478 9.42803C70.8015 9.74051 70.3117 10.1882 69.8863 10.7638C69.5651 10.2104 69.1381 9.76993 68.6133 9.45029C67.9613 9.05352 67.167 8.85236 66.2518 8.85236C65.4034 8.85236 64.6401 9.03365 63.9841 9.39066C63.5516 9.62602 63.1572 9.94407 62.8042 10.34V9.23879H60.449V20.528H62.7803V14.7013C62.7803 13.8291 62.8232 13.2168 62.9067 12.8813C62.987 12.5592 63.119 12.273 63.2947 12.0368C63.5555 11.7061 63.8823 11.4469 64.2664 11.2672C64.6528 11.0867 65.0766 10.9944 65.5251 10.9944C66.352 10.9944 66.9412 11.2202 67.326 11.6846C67.7188 12.1585 67.9184 12.9123 67.9184 13.9269V20.5272H70.2497V14.7005C70.2497 13.8672 70.2942 13.2669 70.3817 12.9163C70.466 12.5799 70.6035 12.2817 70.7872 12.0368C71.048 11.7053 71.3716 11.4461 71.7493 11.2664C72.127 11.0867 72.546 10.9952 72.9945 10.9952C73.8206 10.9952 74.4098 11.221 74.7954 11.6854C75.1882 12.1585 75.387 12.9131 75.387 13.9277V20.528H77.7653V12.9425C77.7653 11.6751 77.3987 10.666 76.6751 9.94248C75.9516 9.21891 74.9418 8.85156 73.6743 8.85156" fill="#2C2C2C"/>
<path d="M88.975 10.5646C88.6379 10.1257 88.2451 9.76871 87.8014 9.49836C87.0993 9.07059 86.2629 8.85352 85.3167 8.85352C83.7073 8.85352 82.4017 9.41249 81.4356 10.5145C80.4791 11.6062 79.9949 13.0868 79.9949 14.9148C79.9949 16.7428 80.4942 18.1971 81.4786 19.3047C82.4709 20.421 83.794 20.9872 85.4105 20.9872C86.2883 20.9872 87.093 20.7661 87.803 20.3304C88.2618 20.0489 88.6697 19.6824 89.0227 19.2355V20.53H91.366V9.24074H88.9758V10.5654L88.975 10.5646ZM88.1028 12.2463C88.7126 12.9285 89.022 13.8501 89.022 14.9847C89.022 16.1194 88.7325 17.0354 88.1632 17.6627C87.5923 18.2917 86.8179 18.597 85.7969 18.597C84.776 18.597 83.9339 18.2829 83.363 17.6365C82.7913 16.9893 82.5011 16.0415 82.5011 14.8209C82.5011 13.6783 82.7882 12.7838 83.3543 12.1604C83.922 11.5363 84.6972 11.2325 85.7261 11.2325C86.755 11.2325 87.4921 11.5641 88.1028 12.2471" fill="#2C2C2C"/>
<path d="M100.467 8.85352C99.5744 8.85352 98.7729 9.03401 98.0875 9.38943C97.6255 9.62877 97.2049 9.95477 96.832 10.3619V9.24074H94.4768V20.53H96.855V14.7033C96.855 13.8406 96.9012 13.2339 96.9918 12.9007C97.0793 12.5803 97.2248 12.2909 97.4259 12.042C97.6939 11.7112 98.0358 11.452 98.4413 11.2723C98.8524 11.0902 99.3175 10.9972 99.8224 10.9972C100.687 10.9972 101.328 11.2309 101.727 11.6921C102.136 12.1644 102.344 12.9174 102.344 13.9296V20.53H104.781V12.9444C104.781 11.6738 104.392 10.6624 103.626 9.93887C102.864 9.21848 101.801 8.85352 100.467 8.85352Z" fill="#2C2C2C"/>
<path d="M106.717 9.23926V11.4068H112.239L106.095 20.5285H116.235V18.3617H110.385L116.529 9.23926H106.717Z" fill="#2C2C2C"/>
<path d="M126.369 9.23995V10.5646C126.032 10.1257 125.639 9.76871 125.195 9.49836C124.493 9.07059 123.656 8.85352 122.709 8.85352C121.1 8.85352 119.795 9.41249 118.828 10.5145C117.872 11.6062 117.388 13.086 117.388 14.9148C117.388 16.7436 117.887 18.1971 118.871 19.3047C119.864 20.421 121.187 20.9872 122.803 20.9872C123.681 20.9872 124.486 20.7661 125.196 20.3304C125.655 20.0489 126.063 19.6824 126.416 19.2355V20.53H128.759V9.24074H126.369V9.23995ZM126.416 14.9839C126.416 16.1337 126.126 17.0346 125.557 17.6619C124.985 18.2909 124.211 18.5962 123.191 18.5962C122.17 18.5962 121.328 18.2821 120.757 17.6357C120.185 16.9885 119.895 16.0407 119.895 14.8202C119.895 13.6776 120.182 12.783 120.748 12.1597C121.316 11.5355 122.091 11.2317 123.12 11.2317C124.149 11.2317 124.886 11.5633 125.496 12.2463C126.106 12.9285 126.416 13.8501 126.416 14.9847" fill="#2C2C2C"/>
<mask id="mask1_256_1727" style="mask-type:luminance" maskUnits="userSpaceOnUse" x="81" y="22" width="48" height="14">
<path d="M115.216 23.664V33.1387H120.763V31.7599H116.832V28.6987H120.763V27.3462H116.832V24.9711H120.763V23.664H115.216ZM84.235 23.8063C83.583 24.0432 83.0152 24.3891 82.531 24.8415C82.0285 25.3035 81.6492 25.8362 81.394 26.4405C81.1379 27.0448 81.0107 27.7048 81.0107 28.4212C81.0107 29.1376 81.1364 29.7848 81.3876 30.4019C81.6389 31.0189 81.9999 31.5564 82.4706 32.0136C82.95 32.4756 83.509 32.8206 84.1475 33.0488C84.786 33.2778 85.5119 33.3923 86.327 33.3923C87.7844 33.3923 88.9135 33.0234 89.715 32.2855C90.5157 31.5476 90.9164 30.5124 90.9164 29.179C90.9164 29.0708 90.9101 28.8641 90.8957 28.5572C90.891 28.4411 90.8894 28.3504 90.8894 28.2852H86.9519V29.5861H89.3421V29.722C89.3421 30.4297 89.0773 30.9887 88.5478 31.3982C88.0182 31.8084 87.2914 32.0128 86.3683 32.0128C85.2822 32.0128 84.398 31.6796 83.7174 31.0125C83.0359 30.3462 82.6956 29.4779 82.6956 28.4077C82.6956 27.3374 83.0359 26.4994 83.7174 25.8418C84.3988 25.1842 85.2774 24.8551 86.3548 24.8551C86.8756 24.8551 87.3463 24.9457 87.7669 25.127C88.1876 25.3083 88.566 25.5842 88.9008 25.9555L90.0823 25.1079C89.5981 24.5473 89.0471 24.1307 88.4293 23.8588C87.8115 23.5868 87.1109 23.4509 86.3277 23.4509C85.5851 23.4509 84.8886 23.5693 84.2366 23.8071M123.427 24.1697C122.877 24.6483 122.601 25.2741 122.601 26.0462C122.601 26.6417 122.784 27.1458 123.148 27.5577C123.512 27.9696 124.242 28.4307 125.337 28.9396C125.41 28.9698 125.514 29.0175 125.65 29.082C126.618 29.5177 127.103 30.0138 127.103 30.5704C127.103 30.9974 126.961 31.3385 126.678 31.593C126.395 31.8474 126.014 31.9746 125.534 31.9746C125.027 31.9746 124.611 31.8633 124.285 31.6415C123.959 31.4188 123.735 31.0968 123.613 30.6738L122.323 31.2431C122.49 31.9333 122.845 32.4644 123.385 32.835C123.926 33.2063 124.619 33.3915 125.466 33.3915C126.475 33.3915 127.277 33.1276 127.87 32.5988C128.463 32.07 128.759 31.3576 128.759 30.4599C128.759 29.8429 128.576 29.3284 128.209 28.9166C127.842 28.5047 127.168 28.0825 126.185 27.6515C126.135 27.6301 126.067 27.5998 125.982 27.5609C124.859 27.0687 124.297 26.5383 124.297 25.969C124.297 25.6065 124.425 25.3178 124.681 25.1015C124.937 24.8861 125.282 24.7779 125.716 24.7779C126.024 24.7779 126.296 24.8471 126.534 24.9847C126.772 25.123 126.99 25.3409 127.189 25.6383L128.452 25.0173C128.262 24.5124 127.92 24.1251 127.427 23.8556C126.933 23.586 126.32 23.4509 125.587 23.4509C124.695 23.4509 123.975 23.6902 123.424 24.1697M95.9066 27.2571C95.9703 27.1061 96.0323 26.9407 96.0935 26.7618C96.1547 26.5829 96.2128 26.3897 96.2668 26.1829C96.3304 26.4032 96.3933 26.6027 96.4569 26.7817C96.5205 26.9606 96.5809 27.1196 96.6397 27.2571L97.6583 29.4191H94.8881L95.9066 27.2571ZM91.4396 33.1403H93.1372L94.2918 30.7H98.2292L99.3559 33.1403H101.06L96.2533 23.2895L91.4396 33.1403ZM104.284 25.228L102.418 33.1427H103.857L105.186 27.5084L107.415 33.1427L107.591 33.5895L108.344 35.4939L109.097 33.5895L109.274 33.1427L111.502 27.5084L112.831 33.1427H114.27L112.404 25.2288L111.841 22.8426L110.939 25.1222L108.343 31.6852L105.747 25.1222L104.845 22.8418L104.283 25.228H104.284Z" fill="white"/>
</mask>
<g mask="url(#mask1_256_1727)">
<path d="M128.758 22.8389H81.0107V35.4909H128.758V22.8389Z" fill="#2C2C2C"/>
</g>
</svg>
