<svg width="182" height="78" viewBox="0 0 182 78" fill="none" xmlns="http://www.w3.org/2000/svg">
<g clip-path="url(#clip0_1943_6474)">
<path d="M28.5782 20.7508C23.3487 20.7508 19.1504 16.5565 19.1504 11.332C19.1504 6.10743 23.3487 1.91309 28.5782 1.91309C31.5243 1.91309 34.2495 3.23761 36.0172 5.59233L33.6603 7.06403C32.4082 5.51875 30.5668 4.63573 28.5782 4.63573C24.8954 4.63573 21.8756 7.65271 21.8756 11.332C21.8756 15.0112 24.8954 18.0282 28.5782 18.0282C31.377 18.0282 33.8813 16.2621 34.8388 13.6131L34.9861 13.1716H28.8728V10.7433H37.9323V11.4055C37.9323 12.0678 37.8586 12.8037 37.7113 13.4659C36.7538 17.6603 32.9238 20.7508 28.5782 20.7508Z" fill="#2C2C2C"/>
<path d="M12.5947 1.4717C12.5947 0.662264 13.2576 0 14.0678 0C14.878 0 15.5409 0.662264 15.5409 1.4717C15.5409 2.28113 14.878 2.9434 14.0678 2.9434C13.2576 2.9434 12.5947 2.28113 12.5947 1.4717ZM12.742 6.18113H15.3936V20.0151H12.742V6.18113Z" fill="#2C2C2C"/>
<path d="M55.4621 6.18072V20.0147H52.8105V18.4694C51.5584 19.5732 49.938 20.2354 48.0966 20.2354C44.1193 20.2354 40.9521 16.9977 40.9521 13.0977C40.9521 9.1977 44.1193 5.95996 48.0966 5.95996C49.8643 5.95996 51.5584 6.62222 52.8105 7.726V6.18072H55.4621ZM52.7369 13.0977C52.7369 10.4486 50.8218 8.46185 48.2439 8.46185C45.666 8.46185 43.751 10.4486 43.751 13.0977C43.751 15.7468 45.7397 17.7335 48.2439 17.7335C50.7482 17.7335 52.7369 15.7468 52.7369 13.0977Z" fill="#2C2C2C"/>
<path d="M82.0508 11.9943V19.9414H79.3993V12.0679C79.3993 9.93389 77.8525 8.31502 75.8639 8.31502C73.8752 8.31502 72.3284 9.93389 72.3284 12.0679V19.9414H69.6769V12.0679C69.6769 9.93389 68.1301 8.31502 66.0678 8.31502C64.0055 8.31502 62.5324 9.93389 62.5324 12.0679V19.9414H59.8809V6.10747H62.5324V7.79993C63.5636 6.62257 65.0367 5.88672 66.6571 5.88672C68.6457 5.88672 70.3398 6.91691 71.3709 8.46219C72.3285 6.91691 74.1698 5.88672 76.4531 5.88672C79.6939 5.9603 82.0508 8.60936 82.0508 11.9943Z" fill="#2C2C2C"/>
<path d="M86.3232 1.4717C86.3232 0.662264 86.9861 0 87.7963 0C88.6065 0 89.2694 0.662264 89.2694 1.4717C89.2694 2.28113 88.6065 2.9434 87.7963 2.9434C86.9861 2.9434 86.3232 2.28113 86.3232 1.4717ZM86.5442 6.18113H89.1958V20.0151H86.5442V6.18113Z" fill="#2C2C2C"/>
<path d="M105.988 11.9943V19.9414H103.337V12.0679C103.337 9.93389 101.79 8.31502 99.8012 8.31502C97.8126 8.31502 96.2658 9.93389 96.2658 12.0679V19.9414H93.6143V6.10747H96.2658V7.79993C97.297 6.62257 98.7701 5.88672 100.39 5.88672C103.631 5.9603 105.988 8.60936 105.988 11.9943Z" fill="#2C2C2C"/>
<path d="M124.034 6.18135V18.838C123.96 22.9587 120.499 25.9021 116.889 25.9021C112.617 25.9021 110.482 22.9587 109.966 21.6342L112.102 20.604C112.544 21.7813 114.385 23.5474 116.889 23.5474C119.615 23.5474 121.382 21.1191 121.456 18.9115V18.5436C120.204 19.6474 118.583 20.3097 116.742 20.3097C112.765 20.3097 109.598 17.1455 109.598 13.1719C109.598 9.19833 112.765 6.03418 116.742 6.03418C118.51 6.03418 120.204 6.69644 121.456 7.80022V6.25493H124.034V6.18135ZM121.309 13.0983C121.309 10.4493 119.32 8.46248 116.816 8.46248C114.312 8.46248 112.323 10.4493 112.323 13.0983C112.323 15.7474 114.238 17.8078 116.816 17.8078C119.32 17.8078 121.309 15.7474 121.309 13.0983Z" fill="#2C2C2C"/>
<path d="M12.6683 32.377H8.76465V72.6279H12.6683V32.377Z" fill="#BEBFC0"/>
<path d="M18.4141 28.625L17.0146 25.9023H27.6945L35.7965 41.7967V52.9816L23.4226 28.625H18.4141Z" fill="#BEBFC0"/>
<path d="M46.5498 62.9883V71.7449H50.9691L46.5498 62.9883Z" fill="#BEBFC0"/>
<path d="M135.745 76.8959H122.634L113.133 63.4299L119.688 54.1582L135.745 76.8959Z" fill="#BEBFC0"/>
<path d="M141.563 31.8623L125.433 54.6L118.878 45.3283L128.379 31.8623H141.563Z" fill="#BEBFC0"/>
<path d="M97.0769 32.377H94.499L109.23 53.2751L110.556 51.3619L97.0769 32.377Z" fill="#BEBFC0"/>
<path d="M97.0769 74.174L94.499 78.0005H107.536L115.417 66.742L114.165 64.9023L107.61 74.174H97.0769Z" fill="#BEBFC0"/>
<path d="M67.7619 27.0791H57.082V28.6244H67.7619V27.0791Z" fill="#BEBFC0"/>
<path d="M91.5525 31.8623H71.0029V42.3114H91.5525V31.8623Z" fill="#BEBFC0"/>
<path d="M85.2914 66.374H59.2178V77.1174H85.2914V66.374Z" fill="#BEBFC0"/>
<path d="M67.8359 39.3682H65.9209V46.0644H67.8359V39.3682Z" fill="#BEBFC0"/>
<path d="M67.8359 56.7344H65.9209V63.4306H67.8359V56.7344Z" fill="#BEBFC0"/>
<path d="M156.368 49.0078H152.538V67.9191H156.368V49.0078Z" fill="#BEBFC0"/>
<path d="M178.833 31.7148H182V42.2375H167.048V39.3677H178.833V31.7148Z" fill="#BEBFC0"/>
<path d="M156.369 39.3682H147.751V42.238H156.369V39.3682Z" fill="#BEBFC0"/>
<path d="M170.289 46.0645H159.535V76.8229H170.289V46.0645Z" fill="#BEBFC0"/>
<path d="M23.4957 28.625H12.7422V74.1005H23.4957V28.625Z" fill="#2C2C2C"/>
<path d="M46.5494 28.625H35.7959V74.1005H46.5494V28.625Z" fill="#2C2C2C"/>
<path d="M12.7422 74.1741H23.4221V49.8174L12.7422 28.625V74.1741Z" fill="#2C2C2C"/>
<mask id="mask0_1943_6474" style="mask-type:luminance" maskUnits="userSpaceOnUse" x="12" y="28" width="12" height="47">
<path d="M12.7422 74.1741H23.4221V49.8174L12.7422 28.625V74.1741Z" fill="white"/>
</mask>
<g mask="url(#mask0_1943_6474)">
<path d="M0 32.5254L22.5382 25.6084L36.1643 70.2744L13.6261 77.1178L0 32.5254Z" fill="#2C2C2C"/>
</g>
<path d="M46.5496 74.1741H35.796L23.4221 49.8174V49.7439L12.7422 28.625H23.4221L35.796 52.9816L45.2974 71.7458L46.5496 74.1741Z" fill="#2C2C2C"/>
<path d="M35.7965 52.9816L23.4226 28.625H18.4141L23.4226 38.6325L35.7965 62.9891L40.2894 71.7458H45.2979L35.7965 52.9816Z" fill="#656566"/>
<path d="M139.796 74.1736H126.685L117.11 60.634L123.666 51.3623L139.796 74.1736Z" fill="#2C2C2C"/>
<path d="M139.796 28.625L123.666 51.3627L117.11 42.091L126.685 28.625H139.796Z" fill="#2C2C2C"/>
<path d="M167.122 29.1396H156.368V74.2472H167.122V29.1396Z" fill="#2C2C2C"/>
<path d="M89.343 28.625H55.9775V39.3684H89.343V28.625Z" fill="#2C2C2C"/>
<path d="M78.6631 46.0645H55.9775V56.8078H78.6631V46.0645Z" fill="#2C2C2C"/>
<path d="M89.343 63.4307H55.9775V74.1741H89.343V63.4307Z" fill="#2C2C2C"/>
<path d="M123.666 51.3627L122.414 53.2759L117.111 60.6344L107.61 74.1741H94.499L109.23 53.2759L110.556 51.3627L97.0769 32.3778L94.499 28.625H107.61L117.111 42.091L123.666 51.3627Z" fill="#2C2C2C"/>
<path d="M122.413 53.2751L117.11 60.6336L107.609 74.1732H97.0762L110.555 55.1147L109.229 53.2751L110.555 51.3619L97.0762 32.377H107.609L117.11 45.843L122.413 53.2751Z" fill="#656566"/>
<path d="M178.833 28.6982H144.657V39.4416H178.833V28.6982Z" fill="#2C2C2C"/>
<path d="M178.833 31.7148H147.751V39.4413H178.833V31.7148Z" fill="#656566"/>
<path d="M65.9205 28.625H55.167V74.1005H65.9205V28.625Z" fill="#2C2C2C"/>
<path d="M163.365 49.0078H156.368V67.9191H163.365V49.0078Z" fill="#656566"/>
<g opacity="0.45">
<mask id="mask1_1943_6474" style="mask-type:luminance" maskUnits="userSpaceOnUse" x="117" y="53" width="7" height="10">
<path d="M123.813 53.2754H117.11V62.5471H123.813V53.2754Z" fill="white"/>
</mask>
<g mask="url(#mask1_1943_6474)">
<path d="M122.413 53.2754L117.11 60.6339L118.436 62.5471L123.887 55.1886L122.413 53.2754Z" fill="#656566"/>
</g>
</g>
<path d="M65.8469 28.625H57.082V68.2873H65.8469V28.625Z" fill="#656566"/>
<path d="M46.5494 62.9883L35.7959 41.7959V52.9808L45.2973 71.745H46.5494V62.9883Z" fill="#656566"/>
<path d="M67.8359 63.4307H65.9209V68.2873H67.8359V63.4307Z" fill="#656566"/>
<mask id="mask2_1943_6474" style="mask-type:luminance" maskUnits="userSpaceOnUse" x="65" y="63" width="3" height="6">
<path d="M67.8359 63.4307H65.9209V68.2873H67.8359V63.4307Z" fill="white"/>
</mask>
<g mask="url(#mask2_1943_6474)">
<path d="M67.8359 63.4307H65.9209V68.2873H67.8359V63.4307Z" fill="#656566"/>
</g>
<path d="M67.8359 46.0645H65.9209V56.8078H67.8359V46.0645Z" fill="#656566"/>
<mask id="mask3_1943_6474" style="mask-type:luminance" maskUnits="userSpaceOnUse" x="65" y="46" width="3" height="11">
<path d="M67.8359 46.0645H65.9209V56.8078H67.8359V46.0645Z" fill="white"/>
</mask>
<g mask="url(#mask3_1943_6474)">
<path d="M67.8359 46.0645H65.9209V56.8078H67.8359V46.0645Z" fill="#656566"/>
</g>
<path d="M67.8359 28.625H65.9209V39.3684H67.8359V28.625Z" fill="#656566"/>
<mask id="mask4_1943_6474" style="mask-type:luminance" maskUnits="userSpaceOnUse" x="65" y="28" width="3" height="12">
<path d="M67.8359 28.625H65.9209V39.3684H67.8359V28.625Z" fill="white"/>
</mask>
<g mask="url(#mask4_1943_6474)">
<path d="M67.8359 28.625H65.9209V39.3684H67.8359V28.625Z" fill="#656566"/>
</g>
</g>
<defs>
<clipPath id="clip0_1943_6474">
<rect width="182" height="78" fill="white"/>
</clipPath>
</defs>
</svg>
