<svg width="126" height="26" viewBox="0 0 126 26" fill="none" xmlns="http://www.w3.org/2000/svg">
<g clip-path="url(#clip0_256_1577)">
<path d="M35.4527 24.5479C35.041 24.3018 34.9276 23.8307 34.9276 23.8307C34.9276 23.8307 29.7696 4.16127 29.4066 2.69259C29.0425 1.2219 29.9536 1.84675 30.067 1.2219C30.1704 0.651311 29.5359 0.65332 29.1748 0.65332H22.7835C22.32 0.65332 21.9998 0.715604 21.954 1.05917C21.9142 1.35853 22.0754 1.48611 22.5438 1.88894C23.0729 2.34401 22.7935 3.07633 22.7935 3.07633C22.7935 3.07633 17.4336 21.694 17.0039 23.0099C16.6866 23.9864 16.2211 24.2335 15.6771 24.4877C14.5114 25.0311 15.0286 25.665 15.5518 25.665H20.7834C21.218 25.665 21.5263 24.8875 20.6063 24.6193C19.6863 24.351 19.7152 23.5173 20.0812 22.3248C20.4472 21.1324 21.2379 18.62 22.0634 15.4807C26.4954 15.0809 29.1748 19.5542 29.3747 20.9255C29.5707 22.2957 29.9178 23.689 29.1082 24.2968C28.2986 24.9046 28.1723 25.003 28.1822 25.2642C28.1961 25.6299 28.582 25.6319 28.8764 25.6319H35.4577C35.4577 25.6319 36.0455 25.6851 36.139 25.2983C36.2086 25.011 36.0614 24.9046 35.4527 24.5469M22.6582 13.339L24.9856 4.84939C25.0104 4.75999 25.1357 4.76099 25.1596 4.8504L27.7207 14.7745C24.8095 12.9382 22.6592 13.338 22.6592 13.338" fill="#2C2C2C"/>
<path d="M125.298 24.5479C124.886 24.3018 124.773 23.8307 124.773 23.8307C124.773 23.8307 119.615 4.16127 119.252 2.69259C118.888 1.2219 119.799 1.84675 119.912 1.2219C120.015 0.651311 119.381 0.65332 119.02 0.65332H112.628C112.165 0.65332 111.845 0.715604 111.799 1.05917C111.759 1.35853 111.92 1.48611 112.389 1.88894C112.918 2.34401 112.638 3.07633 112.638 3.07633C112.638 3.07633 107.279 21.694 106.849 23.0099C106.532 23.9864 106.066 24.2335 105.522 24.4877C104.356 25.0311 104.874 25.665 105.397 25.665H110.628C111.063 25.665 111.371 24.8875 110.451 24.6193C109.531 24.351 109.56 23.5173 109.926 22.3248C110.292 21.1324 111.083 18.62 111.908 15.4807C116.34 15.0809 119.02 19.5542 119.22 20.9255C119.416 22.2957 119.763 23.689 118.953 24.2968C118.144 24.9046 118.017 25.003 118.027 25.2642C118.041 25.6299 118.427 25.6319 118.721 25.6319H125.303C125.303 25.6319 125.891 25.6851 125.984 25.2983C126.054 25.011 125.906 24.9046 125.298 24.5469M112.503 13.339L114.831 4.84939C114.855 4.75999 114.981 4.76099 115.005 4.8504L117.566 14.7745C114.655 12.9382 112.504 13.338 112.504 13.338" fill="#2C2C2C"/>
<path d="M88.1355 23.5403C87.8809 22.2002 85.5555 15.3431 82.4484 10.8687C87.0752 8.13228 86.8425 4.79209 86.8425 4.79209C86.8425 4.79209 87.1419 0.649261 82.69 0.649261H70.1432C70.1432 0.649261 69.4111 0.546795 69.4111 1.24999C69.4111 1.72817 70.0775 1.68296 70.0775 1.68296C70.0775 1.68296 71.1994 1.68095 71.1994 2.95675V23.6589C71.1994 23.6589 71.1517 24.6926 70.2088 24.6926C69.4798 24.6926 69.613 25.2933 69.613 25.2933C69.613 25.2933 69.5812 25.6288 70.1432 25.6288H76.8229C76.8229 25.6288 77.3838 25.6278 77.3838 25.3264C77.3838 24.792 77.0865 24.7267 76.7911 24.7267C76.4957 24.7267 75.5657 24.7096 75.5657 23.7573V13.9557C75.5657 13.9557 77.8632 13.2887 78.2631 13.0557C78.6589 12.8206 83.0571 19.1926 83.0083 23.9271C82.9795 24.8362 82.3917 24.8382 82.2305 24.8965C81.8377 25.0401 81.8347 25.6328 82.2813 25.6328H88.966C88.966 25.6328 89.4056 25.7021 89.4056 25.1707C89.4056 24.6393 88.416 25.0321 88.1355 23.5393M81.3543 7.96451C79.2328 11.5157 75.5657 12.1726 75.5657 12.1726V4.58817C75.5657 3.45501 76.4917 2.18524 79.006 2.18524C81.5204 2.18524 83.4052 4.52387 81.3543 7.96351" fill="#2C2C2C"/>
<path d="M53.8138 0.672607C53.598 0.672607 53.0012 0.595256 53.0012 1.17087C53.0012 1.68019 53.4806 1.62393 53.4806 1.62393C53.4806 1.62393 54.6214 1.58375 54.6214 2.53608V23.3406C54.6214 23.3406 54.6413 24.5481 53.3991 24.5933C53.0778 24.5933 53.0181 24.8927 53.0181 25.1609C53.0181 25.4291 53.219 25.5939 53.4398 25.5939H67.1305L68.8104 17.4629C68.8104 17.4629 69.1038 16.6854 68.4474 16.6794C67.8645 16.6753 67.9351 17.0109 67.6517 17.5985C67.3692 18.1812 65.021 23.1397 61.6493 23.194C59.302 23.0564 59.1369 21.6228 59.1369 20.5118V9.49873H61.8482C61.8482 9.49873 63.5509 9.33398 64.281 12.5717C64.4441 13.1553 64.8917 13.073 64.8917 13.073C64.8917 13.073 65.3363 13.1754 65.3193 12.422C65.3024 11.6696 64.7196 6.46192 64.6729 6.01489C64.6261 5.56786 64.5276 5.14393 63.9806 5.20923C63.3878 5.27955 63.3192 6.24293 63.3192 6.24293C63.3192 6.24293 63.1879 7.73069 62.063 7.73069H59.121V4.37242C59.121 4.37242 58.938 2.25379 61.4971 2.25379H62.4251C62.4251 2.25379 66.2304 2.42156 67.5363 7.26055C67.7173 7.84621 68.1142 7.68046 68.1142 7.68046C68.1142 7.68046 68.691 7.87736 68.5448 6.77937C68.3956 5.67434 67.5035 0.954891 67.5035 0.954891C67.5035 0.954891 67.408 -0.153146 66.0464 0.438544C65.3472 0.741923 64.9364 0.654525 63.4505 0.654525C61.9646 0.654525 56.2347 0.672607 53.8118 0.672607H53.8138Z" fill="#2C2C2C"/>
<path d="M37.4766 25.628C37.4766 25.628 36.7317 25.7184 36.7317 25.1036C36.7317 24.6515 37.3762 24.6184 37.3762 24.6184C37.3762 24.6184 38.6175 24.4767 38.6175 23.5154V2.9951C38.6175 2.3351 38.6035 1.59474 37.5433 1.52743C36.8142 1.49528 36.8719 0.610261 37.588 0.610261H48.3059C48.9215 0.610261 49.5521 0.673548 50.1598 0.17227C50.6064 -0.193392 51.3672 0.0406717 51.4657 0.692635C51.5642 1.34359 52.4752 7.12186 52.4752 7.12186C52.4752 7.12186 52.5986 7.67537 52.2107 7.72159C51.6825 7.78688 51.6 7.60506 51.4339 7.12186C51.2668 6.63766 49.6804 2.51391 46.4052 2.32807H45.1679C45.1679 2.32807 43.117 2.41145 43.117 4.04789V7.62213H45.7458C46.4877 7.62213 47.2735 7.12487 47.3321 6.20268C47.3918 5.27948 47.8573 5.26743 48.0761 5.26743C48.2949 5.26743 48.5625 5.38496 48.643 6.09419C48.8638 8.04506 49.2637 11.6605 49.2985 12.1266C49.3333 12.5927 49.4646 13.0488 48.9712 13.099C48.472 13.1472 48.3257 12.882 48.2094 12.4461C48.094 12.0131 47.3321 9.55793 45.878 9.55793H43.1001V23.4822C43.1001 23.4822 43.0444 24.7851 44.4239 24.7851C45.0038 24.7851 44.9531 25.185 44.9531 25.185C44.9531 25.185 45.0157 25.628 44.5731 25.628H37.4796H37.4766Z" fill="#2C2C2C"/>
<path d="M0.577906 0.649064C0.577906 0.649064 0.0656864 0.618927 0.00601035 1.0519C-0.0735577 1.60742 0.733064 1.58532 0.733064 1.58532C0.733064 1.58532 1.69186 1.48486 1.69186 2.68733V23.5913C1.69186 23.5913 1.79629 24.4784 0.863356 24.5929C0.026897 24.6974 0.046789 24.8601 0.00501575 25.1615C0.00501575 25.6296 0.611722 25.6296 0.611722 25.6296H13.5853C13.8817 25.6296 14.1383 25.4217 14.2019 25.1293L15.845 17.582C15.845 17.582 16.0708 16.7844 15.4154 16.7462C14.8783 16.7151 14.8534 17.1129 14.555 17.7839C14.2576 18.451 12.6036 22.4582 8.63915 23.2608C6.4003 23.4025 6.25708 22.3497 6.25708 20.9463V2.55473C6.25708 2.55473 6.12281 1.68377 7.24671 1.61646C7.93298 1.5361 7.90911 1.0519 7.90911 1.0519C7.90911 1.0519 7.93298 0.56669 7.26063 0.649064H0.577906Z" fill="#2C2C2C"/>
<path d="M90.5176 0.649064C90.5176 0.649064 90.0054 0.617923 89.9457 1.0519C89.8661 1.60742 90.6728 1.58532 90.6728 1.58532C90.6728 1.58532 91.6316 1.48486 91.6316 2.68733V23.5913C91.6316 23.5913 91.736 24.4784 90.8031 24.5929C89.9666 24.6974 89.9865 24.8601 89.9447 25.1615C89.9447 25.6296 90.5514 25.6296 90.5514 25.6296H103.525C103.821 25.6296 104.078 25.4217 104.142 25.1293L105.785 17.582C105.785 17.582 106.011 16.7844 105.355 16.7462C104.818 16.7151 104.793 17.1129 104.495 17.7839C104.197 18.451 102.543 22.4582 98.5788 23.2608C96.34 23.4025 96.1968 22.3497 96.1968 20.9463V2.55473C96.1968 2.55473 96.0625 1.68377 97.1864 1.61646C97.8727 1.5361 97.8488 1.0519 97.8488 1.0519C97.8488 1.0519 97.8727 0.56669 97.2003 0.649064H90.5176Z" fill="#2C2C2C"/>
</g>
<defs>
<clipPath id="clip0_256_1577">
<rect width="126" height="25.6667" fill="white"/>
</clipPath>
</defs>
</svg>
