<svg width="127" height="37" viewBox="0 0 127 37" fill="none" xmlns="http://www.w3.org/2000/svg">
<path d="M64.656 21.9698H64.872H68.0527L70.2476 6.18652H66.8464L64.656 21.9698Z" fill="#2C2C2C"/>
<path d="M24.7678 7.9014C24.5222 7.23086 24.0846 6.69241 23.4777 6.32712C22.872 5.96372 22.0989 5.77539 21.1765 5.77539C20.1093 5.77539 19.0824 6.04715 18.0284 6.62415C17.0664 7.14934 16.0792 7.93237 14.9969 8.99664C14.9704 8.59154 14.8936 8.21803 14.7689 7.87802C14.5221 7.21633 14.0877 6.6823 13.4845 6.32333C12.8814 5.96436 12.1176 5.77602 11.2053 5.77602C10.1722 5.77602 9.15533 6.04146 8.11648 6.58307C7.19725 7.06528 6.26039 7.75794 5.26372 8.68065L5.64526 6.18682H2.23781L0.0102539 21.9695H3.40952L4.80788 11.9929C6.11558 10.7896 7.0644 9.97054 7.86401 9.45926C8.27073 9.20267 8.63717 9.02318 8.9929 8.90753C9.35051 8.79188 9.69806 8.74005 10.0746 8.74005C10.373 8.74005 10.6154 8.77102 10.8106 8.83043C10.9598 8.87467 11.0769 8.93281 11.1758 9.00549C11.3206 9.1123 11.4226 9.25197 11.4918 9.4403C11.5611 9.62737 11.5951 9.86879 11.5951 10.1614C11.5951 10.4123 11.5711 10.6986 11.5227 11.0203L10.0135 21.9701H13.3171L14.7135 12.0864C16.0703 10.8048 17.0431 9.96358 17.8421 9.44851C18.2488 9.18877 18.6077 9.01055 18.9521 8.89932C19.2965 8.78808 19.6276 8.73879 19.9821 8.73879C20.2421 8.73879 20.4713 8.76533 20.6577 8.81716C20.7981 8.85571 20.9164 8.91069 21.0153 8.98211C21.1645 9.08765 21.2772 9.22985 21.3597 9.43461C21.4396 9.6438 21.4869 9.91682 21.4869 10.2669C21.4869 10.4881 21.4692 10.739 21.4308 11.0222L19.8908 21.9695H23.3209L24.9466 10.3055L24.9434 10.3156C24.9875 9.99834 25.0114 9.69246 25.0114 9.40301C25.0133 8.85065 24.9315 8.34632 24.7678 7.9014Z" fill="#2C2C2C"/>
<path d="M42.4898 7.14066C42.017 6.697 41.3767 6.35889 40.5449 6.13453C39.7126 5.90765 38.6889 5.79199 37.434 5.79199C36.0313 5.79199 34.8432 5.89753 33.8276 6.15665C33.0664 6.3513 32.3997 6.63127 31.8267 7.01868C30.9648 7.59885 30.3075 8.41348 29.8151 9.50683C29.3215 10.5945 28.9891 11.9589 28.7542 13.6565V13.6666V13.659C28.6466 14.4856 28.5918 15.2522 28.5918 15.9601C28.5918 17.025 28.7158 17.9572 28.9803 18.7598C29.1799 19.3633 29.4588 19.8948 29.8227 20.3486C30.3654 21.0312 31.0983 21.5386 32.0131 21.8692C32.9292 22.2029 34.0291 22.3634 35.3255 22.3634C36.246 22.3634 37.4151 22.3084 38.568 22.1675C39.722 22.0278 40.856 21.8072 41.7173 21.4641L41.8476 21.4135L41.8331 21.2738L41.6291 19.0322L41.4415 19.0518C39.683 19.2401 37.4838 19.4284 35.8002 19.4284C35.2014 19.4284 34.6682 19.3899 34.2117 19.2888C33.8673 19.2148 33.5689 19.1049 33.3114 18.9519C32.9286 18.7238 32.6389 18.4014 32.4318 17.9256C32.2354 17.4655 32.1258 16.8575 32.1157 16.0637L37.2603 15.6036C38.2034 15.5341 39.0263 15.409 39.7416 15.2137C40.8144 14.923 41.648 14.4616 42.2568 13.7702C42.8669 13.0788 43.2453 12.1681 43.4348 10.9977V10.9964V10.9933C43.4928 10.6078 43.5236 10.2368 43.5236 9.88349C43.5236 9.25277 43.4248 8.67766 43.2076 8.16701C43.0395 7.78465 42.8027 7.43896 42.4898 7.14066ZM40.0142 10.6893C39.9518 11.1197 39.8606 11.4654 39.7277 11.7409C39.6301 11.9501 39.5105 12.1195 39.3701 12.2629C39.156 12.4778 38.8884 12.6308 38.5365 12.742C38.1845 12.8532 37.7533 12.9215 37.23 12.9588H37.2288H37.2244L32.3424 13.4081C32.496 12.4702 32.6736 11.708 32.8908 11.1026C33.0664 10.6084 33.2679 10.2172 33.5028 9.90814C33.8572 9.44236 34.2784 9.15418 34.84 8.97216C35.3972 8.78952 36.0961 8.72126 36.9593 8.72126C37.5108 8.72126 37.9849 8.72569 38.3885 8.75413C38.6889 8.77372 38.947 8.80911 39.1629 8.86536C39.3229 8.90707 39.4589 8.95889 39.5678 9.02272C39.7346 9.12194 39.8486 9.23949 39.9298 9.4114C40.0123 9.58203 40.0583 9.81018 40.0583 10.1148C40.0583 10.2848 40.0438 10.4757 40.0142 10.6893Z" fill="#2C2C2C"/>
<path d="M57.8638 6.16678C56.325 5.94432 54.6641 5.79011 53.2261 5.79011C52.2609 5.79011 51.3757 5.84826 50.5685 6.0467C49.9641 6.19964 49.4037 6.43222 48.8981 6.78234C48.1338 7.30626 47.4929 8.09688 46.9722 9.24078C46.4565 10.3859 46.0605 11.8932 45.7734 13.8752V13.8764C45.6122 15.0279 45.5354 16.0378 45.5354 16.9207C45.5354 17.9224 45.633 18.7649 45.8263 19.4619C45.9679 19.9871 46.165 20.4339 46.4099 20.8074C46.7795 21.368 47.2624 21.7611 47.8303 22.0108C48.4026 22.2585 49.0499 22.364 49.7639 22.364C51.1383 22.364 52.3874 21.9324 53.4943 21.2916C54.4299 20.7518 55.2648 20.0661 55.9951 19.3583L55.6211 21.983H59.072L59.094 21.8224L62.1684 0.015625H58.7157L57.8638 6.16678ZM56.4497 16.1231C55.266 17.2329 54.2889 18.0387 53.3753 18.5576C52.4517 19.0884 51.603 19.3362 50.6453 19.3362C50.3261 19.3362 50.0617 19.3033 49.847 19.237C49.687 19.1864 49.5605 19.1181 49.4541 19.0233C49.2917 18.8837 49.1701 18.6865 49.0833 18.3882C48.9976 18.0899 48.9548 17.6968 48.9548 17.1925C48.9548 16.4404 49.0511 15.4431 49.2268 14.1494C49.3981 12.9076 49.5769 11.9406 49.8048 11.1974C49.9748 10.6381 50.1712 10.2065 50.4105 9.87719C50.588 9.62819 50.7876 9.43353 51.0237 9.27806C51.3757 9.04486 51.8101 8.89824 52.3686 8.80913C52.927 8.72191 53.6013 8.69221 54.4198 8.69221C55.0778 8.69221 56.189 8.69221 57.5087 8.7453L56.4497 16.1231Z" fill="#2C2C2C"/>
<path d="M71.0181 0.0852433C70.9765 0.0391081 70.9104 0.0138285 70.8481 0.0157245H67.9525C67.8845 0.0157245 67.8266 0.0397401 67.7838 0.0795554C67.7397 0.116843 67.7069 0.16993 67.6969 0.240081L67.292 3.1466C67.292 3.16114 67.2908 3.17314 67.2908 3.18199C67.2908 3.24456 67.3191 3.30839 67.3619 3.35263C67.4091 3.39876 67.4696 3.42404 67.5332 3.42404H70.4269C70.4961 3.42404 70.554 3.3975 70.5969 3.36148C70.6409 3.32293 70.6737 3.26984 70.6837 3.19969L71.0886 0.28432V0.28116C71.0886 0.276736 71.0898 0.271048 71.0898 0.25588C71.0924 0.193946 71.064 0.128219 71.0181 0.0852433Z" fill="#2C2C2C"/>
<path d="M0 27.1307H122.304V26.9423V26.1738H0V27.1307Z" fill="#2C2C2C"/>
<path d="M0 31.4823V36.2342H1.22837V31.2939H0V31.4823Z" fill="#2C2C2C"/>
<path d="M10.7688 33.7303C10.7688 33.8611 10.7688 33.9869 10.77 34.1069L8.73197 31.2939H7.57349V36.2342H8.79997V33.8295C8.79997 33.6664 8.79682 33.5078 8.79682 33.3637L10.8361 36.2342H10.9293H11.9965V31.2939H10.7681L10.7688 33.7303Z" fill="#2C2C2C"/>
<path d="M18.0693 32.4688H19.6094V36.2342H20.8358V32.4688H22.3702V31.2939H18.0693V32.4688Z" fill="#2C2C2C"/>
<path d="M29.6646 34.271H31.527V33.1378H29.6646V32.4698H32.1327V31.2949H28.4407V31.4833V36.2352H32.1743V35.059H29.6646V34.271Z" fill="#2C2C2C"/>
<path d="M41.8777 33.8826C42.0717 33.638 42.1825 33.31 42.1806 32.9245C42.1806 32.6755 42.1346 32.4454 42.0414 32.2407C41.901 31.9335 41.653 31.6915 41.335 31.5316C41.0127 31.3742 40.6198 31.2971 40.1614 31.2939H38.3438V36.2342H39.569V34.5531H39.7774C39.8485 34.5531 40.0078 34.5531 40.1451 34.55L41.1606 36.2336H42.513L41.3407 34.2915C41.5466 34.2017 41.7329 34.064 41.8777 33.8826ZM40.9403 32.9719C40.9403 33.073 40.9226 33.1514 40.8943 33.2152C40.8546 33.3087 40.7923 33.3726 40.6802 33.4256C40.5726 33.4775 40.4126 33.5116 40.2011 33.5116H39.5683V32.4448H40.2011C40.4775 32.4448 40.6651 32.501 40.7747 32.5813C40.8294 32.623 40.8666 32.6704 40.893 32.7311C40.9226 32.7956 40.9403 32.8739 40.9403 32.9719Z" fill="#2C2C2C"/>
<path d="M51.5951 33.7306C51.5951 33.8614 51.5964 33.9872 51.5964 34.1047L49.5596 31.2949H48.3979V36.2352H49.6263V33.8305C49.6263 33.6674 49.6232 33.5088 49.6219 33.3647L51.6631 36.2352H51.7575H52.8216V31.2949H51.5951V33.7306Z" fill="#2C2C2C"/>
<path d="M60.6093 31.293L58.6877 36.2345H59.9602L60.3562 35.1588H62.1342L62.5303 36.2345H63.8203L61.8943 31.293H60.6093ZM61.4958 33.4234L61.7237 34.039H60.7617L60.9713 33.4695L61.2402 32.7219C61.3069 32.9014 61.3881 33.1327 61.4958 33.4234Z" fill="#2C2C2C"/>
<path d="M68.6338 32.4688H70.177V36.2342H71.4053V32.4688H72.9365V31.2939H68.6338V32.4688Z" fill="#2C2C2C"/>
<path d="M79.0078 31.4823V36.2342H80.233V31.2939H79.0078V31.4823Z" fill="#2C2C2C"/>
<path d="M88.8877 31.2051C88.1561 31.2051 87.5045 31.4724 87.0417 31.9262C86.5745 32.3831 86.2956 33.0284 86.2969 33.7627C86.2956 34.5028 86.5745 35.1481 87.0417 35.6025C87.5045 36.0594 88.1561 36.3236 88.8877 36.3223C89.6206 36.3236 90.2754 36.06 90.7413 35.6025C91.211 35.1487 91.4937 34.5034 91.4937 33.7627C91.4937 33.0284 91.2116 32.3799 90.7413 31.9262C90.2754 31.4724 89.6206 31.2051 88.8877 31.2051ZM88.8877 35.1651C88.4841 35.162 88.1517 35.0229 87.9137 34.7809C87.677 34.5407 87.5322 34.195 87.5309 33.7634C87.5322 33.333 87.677 32.9873 87.9137 32.7471C88.1517 32.5051 88.4841 32.3641 88.8877 32.3641C89.2894 32.3641 89.625 32.5051 89.863 32.7471C90.101 32.9905 90.2471 33.333 90.2471 33.7634C90.2471 34.195 90.101 34.5407 89.863 34.7809C89.625 35.0223 89.2894 35.162 88.8877 35.1651Z" fill="#2C2C2C"/>
<path d="M100.75 33.7306C100.75 33.8614 100.753 33.9872 100.753 34.1047L98.7153 31.2949H97.5549V36.2352H98.7802V33.8305C98.7802 33.6674 98.7801 33.5088 98.777 33.3647L100.817 36.2352H100.915H101.977V31.2949H100.751L100.75 33.7306Z" fill="#2C2C2C"/>
<path d="M109.765 31.293L107.839 36.2332H109.115L109.512 35.1588H111.287L111.684 36.2332H112.974L111.048 31.293H109.765ZM110.882 34.039H109.916L110.126 33.4695L110.398 32.7232C110.46 32.9014 110.543 33.1327 110.649 33.4234L110.882 34.039Z" fill="#2C2C2C"/>
<path d="M120.063 31.2939H118.833V31.4823V36.2342H122.304V35.0581H120.063V31.2939Z" fill="#2C2C2C"/>
<path d="M76.9238 21.9699L80.002 0H76.6046L73.5271 21.9699H73.7418H76.9238Z" fill="#2C2C2C"/>
<path d="M85.7996 21.9698L87.9944 6.18652H84.5983L82.406 21.9698H82.6207H85.7996Z" fill="#2C2C2C"/>
<path d="M96.0512 11.9923C97.3577 10.789 98.3077 9.96991 99.108 9.45863C99.5128 9.20204 99.878 9.02255 100.236 8.9069C100.593 8.79125 100.942 8.74069 101.317 8.74069C101.613 8.74069 101.861 8.77165 102.055 8.8298C102.201 8.87404 102.321 8.93218 102.42 9.00486C102.561 9.11293 102.663 9.25133 102.735 9.43967C102.807 9.62673 102.841 9.86816 102.841 10.162C102.841 10.4129 102.814 10.6973 102.765 11.0196L101.256 21.9714H104.561L104.582 21.8096C104.582 21.8096 105.943 12.4511 106.271 9.77778C106.292 9.62357 106.301 9.4719 106.301 9.32085C106.301 8.35833 105.919 7.4647 105.242 6.82133C104.565 6.17481 103.599 5.77539 102.449 5.77539C101.414 5.77539 100.397 6.04083 99.3567 6.58371C98.4374 7.06465 97.4987 7.75857 96.5058 8.68128L96.8873 6.18618H93.4774L91.2517 21.9714H94.6541L96.0512 11.9923Z" fill="#2C2C2C"/>
<path d="M124.265 6.19131H120.756L116.807 11.902L113.698 11.8976L115.34 0.000976562H111.95L108.863 21.9708H112.255L113.268 15.0291H116.654L118.922 21.9708H122.434L119.699 13.5767L124.615 6.19131H124.265Z" fill="#2C2C2C"/>
<path d="M85.1113 3.35282C85.1572 3.39895 85.2208 3.42423 85.28 3.42423H88.1756C88.2448 3.42423 88.3015 3.39769 88.3468 3.36167C88.3884 3.32185 88.4224 3.26813 88.4337 3.19861L88.8373 0.28514V0.28198C88.8373 0.277556 88.8373 0.269972 88.8373 0.2567C88.8404 0.194133 88.8121 0.129039 88.768 0.0860633C88.7221 0.039928 88.6585 0.0146484 88.5968 0.0146484H85.7012C85.6345 0.0146484 85.574 0.039928 85.5325 0.0784794C85.4853 0.117031 85.4569 0.168854 85.445 0.240269L85.0433 3.14679H85.0464C85.042 3.16322 85.042 3.17523 85.042 3.18218C85.0414 3.24475 85.0653 3.30858 85.1113 3.35282Z" fill="#2C2C2C"/>
<path d="M124.263 0.186523C123.014 0.186523 122.074 1.13577 122.074 2.3909C122.074 3.64603 123.014 4.59275 124.263 4.59275C125.513 4.59275 126.458 3.64603 126.458 2.3909C126.458 1.13577 125.513 0.186523 124.263 0.186523ZM124.263 4.20345C123.208 4.20345 122.475 3.45581 122.475 2.38332C122.475 1.32094 123.208 0.577725 124.263 0.577725C125.321 0.577725 126.065 1.32094 126.065 2.38332C126.064 3.45581 125.321 4.20345 124.263 4.20345Z" fill="#2C2C2C"/>
<path d="M125.141 1.96047C125.141 1.52566 124.809 1.26465 124.255 1.26465H123.49V3.49747H123.896V2.63859H124.08C124.124 2.63859 124.204 2.63859 124.276 2.63101L124.767 3.4842L124.775 3.49747H125.222L124.681 2.56402C124.975 2.48123 125.141 2.26319 125.141 1.96047ZM124.273 2.3049H123.896V1.63563H124.273C124.483 1.63563 124.734 1.69187 124.734 1.97248C124.734 2.2455 124.483 2.3049 124.273 2.3049Z" fill="#2C2C2C"/>
</svg>
