<svg width="191" height="34" viewBox="0 0 191 34" fill="none" xmlns="http://www.w3.org/2000/svg">
<path d="M183.562 27.1615C185.222 27.2452 186.732 26.9453 188.09 26.2548C189.447 25.3082 190.278 23.9909 190.579 22.3079C190.903 20.35 190.654 18.8942 189.834 17.9446C189.038 17.0179 188.09 16.2527 186.988 15.6498C185.911 15.0669 184.941 14.486 184.078 13.9031C183.217 13.2993 182.882 12.3407 183.077 11.0244C183.204 10.2253 183.599 9.60354 184.255 9.15017C184.914 8.69679 185.64 8.53537 186.438 8.66291C187.26 8.81536 187.916 9.23486 188.411 9.92439L190.157 8.69679C189.358 7.55389 188.237 6.83149 186.794 6.53057C185.393 6.31334 184.132 6.6053 183.01 7.40343C181.889 8.19958 181.22 9.28966 181.004 10.6697C180.703 12.4802 180.961 13.7945 181.78 14.6116C182.191 15.0221 182.632 15.3948 183.108 15.7296C183.582 16.0644 184.089 16.3792 184.627 16.6821C185.166 16.9621 185.677 17.2591 186.163 17.5709C186.648 17.8828 187.107 18.2126 187.537 18.5584C188.4 19.226 188.702 20.349 188.442 21.9223C188.27 22.9995 187.732 23.8514 186.826 24.4752C185.942 25.1009 184.962 25.3181 183.882 25.1228C182.828 24.9495 181.997 24.4423 181.394 23.6033L179.647 24.8628C180.663 26.2229 181.968 26.9882 183.562 27.1615ZM167.202 27.1615C168.86 27.2452 170.371 26.9453 171.729 26.2548C173.086 25.3082 173.918 23.9909 174.22 22.3079C174.541 20.35 174.293 18.8942 173.476 17.9446C172.677 17.0179 171.729 16.2527 170.629 15.6498C169.55 15.0669 168.582 14.486 167.72 13.9031C166.856 13.2993 166.522 12.3407 166.717 11.0244C166.845 10.2253 167.239 9.60354 167.896 9.15017C168.555 8.69679 169.282 8.53537 170.079 8.66291C170.897 8.81536 171.555 9.23486 172.052 9.92439L173.796 8.69679C172.999 7.55389 171.879 6.83149 170.433 6.53057C169.032 6.31334 167.772 6.6053 166.651 7.40343C165.531 8.19958 164.86 9.28966 164.645 10.6697C164.344 12.4802 164.602 13.7945 165.421 14.6116C165.831 15.0221 166.275 15.3948 166.747 15.7296C167.221 16.0644 167.729 16.3792 168.267 16.6821C168.806 16.9621 169.317 17.2591 169.802 17.5709C170.288 17.8828 170.746 18.2126 171.176 18.5584C172.04 19.226 172.34 20.349 172.082 21.9223C171.91 22.9995 171.37 23.8514 170.466 24.4752C169.582 25.1009 168.601 25.3181 167.523 25.1228C166.466 24.9495 165.637 24.4423 165.032 23.6033L163.288 24.8628C164.301 26.2229 165.606 26.9882 167.202 27.1615ZM156.274 15.9388V15.5861C156.274 13.6869 155.595 12.0717 154.235 10.7345C152.899 9.37735 151.282 8.69679 149.387 8.69679C147.489 8.69679 145.861 9.37735 144.504 10.7345C143.145 12.0717 142.466 13.6879 142.466 15.5861V15.9388H156.274ZM155.948 24.6695C154.16 26.3953 151.972 27.2562 149.386 27.2562C146.907 27.2562 144.771 26.46 142.984 24.8648C141.216 23.0971 140.332 20.9638 140.332 18.4627V15.5861C140.332 13.105 141.216 10.9816 142.984 9.21394C144.771 7.42436 146.907 6.52957 149.386 6.52957C151.866 6.52957 153.988 7.4134 155.755 9.18105C157.544 10.9278 158.439 13.0591 158.439 15.5851V18.105H142.466V18.4608C142.466 20.3809 143.145 22.02 144.504 23.3771C145.905 24.7133 147.532 25.3829 149.387 25.3829C151.348 25.3829 153.029 24.6376 154.43 23.1509L155.948 24.6695ZM119.313 0H121.448V25.0272H135.255V27.1615H119.313V0Z" fill="#2C2C2C"/>
<path d="M98.2325 27.1615V15.5861C98.2325 13.105 99.1163 10.9816 100.884 9.21393C102.674 7.42436 104.808 6.52957 107.286 6.52957C109.853 6.52957 112.041 7.47717 113.851 9.37635L112.33 10.8959C110.971 9.42916 109.292 8.69579 107.286 8.69579C105.39 8.69579 103.761 9.37635 102.404 10.7335C101.044 12.0707 100.368 13.6869 100.368 15.5851V27.1605L98.2325 27.1615ZM90.0857 15.9388V15.5861C90.0857 13.6869 89.4052 12.0717 88.047 10.7345C86.7108 9.37735 85.0956 8.69679 83.1984 8.69679C81.2992 8.69679 79.6731 9.37735 78.314 10.7345C76.9568 12.0717 76.2783 13.6879 76.2783 15.5861V15.9388H90.0857ZM89.7619 24.6695C87.9723 26.3953 85.7851 27.2562 83.1984 27.2562C80.7183 27.2562 78.585 26.46 76.7964 24.8648C75.0287 23.0971 74.1449 20.9638 74.1449 18.4627V15.5861C74.1449 13.105 75.0287 10.9816 76.7964 9.21393C78.586 7.42436 80.7183 6.52957 83.1984 6.52957C85.6765 6.52957 87.7999 7.4134 89.5676 9.18105C91.3571 10.9278 92.2519 13.0591 92.2519 15.5851V18.105H76.2793V18.4607C76.2793 20.3809 76.9578 22.02 78.3149 23.3771C79.7179 24.7133 81.3461 25.3829 83.1994 25.3829C85.1604 25.3829 86.8423 24.6376 88.2413 23.1509L89.7619 24.6695ZM66.5133 15.5861C66.5133 13.6869 65.8327 12.0717 64.4746 10.7345C63.1185 9.37735 61.4893 8.69679 59.5941 8.69679C57.695 8.69679 56.0688 9.37735 54.7097 10.7345C53.3735 12.0717 52.7039 13.6879 52.7039 15.5861V18.4617C52.7039 20.338 53.3735 21.9761 54.7097 23.3781C56.1126 24.7143 57.7378 25.3839 59.5941 25.3839C61.4903 25.3839 63.1195 24.7033 64.4746 23.3462C65.8337 21.9871 66.5133 20.3609 66.5133 18.4617V15.5861ZM68.6466 15.5861V18.4617C68.6466 20.9399 67.7519 23.0752 65.9643 24.8638C64.1747 26.46 62.0513 27.2552 59.5941 27.2552C58.1702 27.2552 56.8619 26.9832 55.6642 26.4321C54.4685 25.8811 53.4502 25.08 52.6092 24.0218V33.432H50.4749V15.9388H50.5406V15.5861C50.5406 13.105 51.4235 10.9816 53.1921 9.21393C54.9797 7.42436 57.116 6.52957 59.5941 6.52957C62.0722 6.52957 64.1946 7.4134 65.9643 9.18105C67.7519 10.9696 68.6466 13.104 68.6466 15.5861ZM39.3837 15.5861C39.3837 13.6869 38.7051 12.0717 37.346 10.7345C36.0098 9.37735 34.3916 8.69679 32.4974 8.69679C30.5982 8.69679 28.972 9.37735 27.6129 10.7345C26.2558 12.0717 25.5752 13.6879 25.5752 15.5861V18.4617C25.5752 20.3819 26.2558 22.021 27.6129 23.3781C29.0139 24.7143 30.641 25.3839 32.4974 25.3839C34.3916 25.3839 36.0108 24.7033 37.346 23.3462C38.7051 21.9871 39.3837 20.3609 39.3837 18.4617V15.5861ZM41.5519 15.5861V23.2805C41.5519 24.4443 42.1228 25.0272 43.2647 25.0272H43.6842V27.1615H43.2319C42.2593 27.1615 41.4303 26.8646 40.7428 26.2717C40.0523 25.6779 39.6308 24.9295 39.4803 24.0228C38.6403 25.08 37.61 25.8821 36.3914 26.4331C35.1738 26.9842 33.8744 27.2562 32.4964 27.2562C30.0163 27.2562 27.8829 26.46 26.0944 24.8648C24.3247 23.0971 23.4409 20.9638 23.4409 18.4627V15.5861C23.4409 13.105 24.3247 10.9816 26.0944 9.21393C27.8839 7.42436 30.0163 6.52957 32.4964 6.52957C34.9974 6.52957 37.1298 7.4134 38.8974 9.18105C40.6661 10.9497 41.5519 13.085 41.5519 15.5861ZM9.0555 15.9388C10.9517 15.9388 12.5669 15.2722 13.9041 13.935C15.2612 12.5779 15.9418 10.9497 15.9418 9.05252C15.9418 7.15532 15.2612 5.53813 13.9041 4.20192C12.5669 2.84479 10.9507 2.16324 9.0555 2.16324H2.13434V15.9388H9.0555ZM0 0H9.0555C11.5326 0 13.6689 0.892797 15.4575 2.68237C17.2242 4.45003 18.108 6.57242 18.108 9.05252C18.108 11.5525 17.2242 13.6869 15.4575 15.4545C13.6879 17.2222 11.5535 18.105 9.0555 18.105H2.13434V27.1605H0V0Z" fill="#2C2C2C"/>
</svg>
