<svg width="129" height="41" viewBox="0 0 129 41" fill="none" xmlns="http://www.w3.org/2000/svg">
<path d="M57.0074 11.0253C57.0074 9.23337 56.4047 7.73568 55.2002 6.53125C53.9947 5.3278 52.4956 4.72559 50.7031 4.72559C48.9095 4.72559 47.4105 5.3278 46.206 6.53125C45.0014 7.73568 44.3987 9.23337 44.3987 11.0253C44.3987 12.8114 45.0014 14.3081 46.206 15.5145C47.4105 16.7208 48.9095 17.324 50.7031 17.324C52.4966 17.324 53.9956 16.7218 55.2002 15.5184C56.4047 14.3139 57.0074 12.8163 57.0074 11.0253ZM54.3913 12.4857C54.0545 13.3351 53.3183 12.9624 53.1259 12.6456C52.8853 12.2503 52.958 11.7148 52.7175 11.3068C52.6664 11.2166 52.6056 11.1293 52.5329 11.0498C52.0166 10.4888 51.1429 10.4466 50.5872 10.9576C50.0159 11.4824 49.9796 12.3415 50.5048 12.9134C50.543 12.9545 50.5833 12.9918 50.6245 13.0271C50.6275 13.0301 50.6285 13.033 50.6314 13.036C51.0614 13.5028 51.8929 13.4126 52.2875 13.6607C52.7381 13.9432 52.8873 14.5591 52.2404 14.8348C51.781 15.0191 51.2724 15.1133 50.7119 15.1133C49.5457 15.1133 48.5993 14.722 47.8738 13.9393C47.1484 13.1566 46.7861 12.1846 46.7861 11.0253C46.7861 9.86501 47.1484 8.89401 47.8738 8.11133C48.5993 7.32865 49.5398 6.9373 50.6942 6.9373C51.8605 6.9373 52.8068 7.32865 53.5323 8.11133C54.2577 8.89401 54.621 9.86599 54.621 11.0253C54.62 11.551 54.5414 12.0365 54.3913 12.4857Z" fill="#2C2C2C"/>
<path d="M59.5461 15.79C60.5425 16.6511 61.7962 17.0827 63.305 17.0827C64.8139 17.0827 66.0665 16.6521 67.0639 15.79C68.0613 14.9288 68.559 13.8794 68.559 12.6406V4.96875H66.1342V11.9952C66.1342 12.9103 65.8643 13.5832 65.3263 14.0137C64.7873 14.4443 64.1139 14.6601 63.305 14.6601C62.4971 14.6601 61.8227 14.4443 61.2847 14.0137C60.7458 13.5832 60.4768 12.9103 60.4768 11.9952V4.96875H58.052V12.6416C58.05 13.8794 58.5487 14.9288 59.5461 15.79Z" fill="#2C2C2C"/>
<path d="M75.8273 4.96875H73.4025L68.553 17.0827H71.1397L71.8671 15.225H77.3636L78.091 17.0827L80.6699 17.0748L75.8273 4.96875ZM72.8361 12.8024L74.6787 8.19854L76.4732 12.8024H72.8361Z" fill="#2C2C2C"/>
<path d="M92.3177 4.96875H89.893V12.5602L82.2947 4.96875H81.4868V17.0827H83.9116V9.57167L91.4293 17.0827H92.3177V4.96875Z" fill="#2C2C2C"/>
<path d="M97.2662 17.0827H99.691V7.22951H103.733V4.96875H93.2246V7.22951H97.2662V17.0827Z" fill="#2C2C2C"/>
<path d="M105.852 15.79C106.848 16.6511 108.102 17.0827 109.611 17.0827C111.12 17.0827 112.372 16.6521 113.37 15.79C114.367 14.9288 114.865 13.8794 114.865 12.6406V4.96875H112.44V11.9952C112.44 12.9103 112.17 13.5832 111.632 14.0137C111.093 14.4443 110.42 14.6601 109.611 14.6601C108.803 14.6601 108.129 14.4443 107.591 14.0137C107.053 13.5832 106.783 12.9103 106.783 11.9952V4.96875H104.358V12.6416C104.356 13.8794 104.855 14.9288 105.852 15.79Z" fill="#2C2C2C"/>
<path d="M127.815 4.96875L122.553 10.9448L117.299 4.96875H116.49V17.0827H118.915V10.0562L122.553 14.0942L126.19 10.0562L126.199 17.0827H128.623V4.96875H127.815Z" fill="#2C2C2C"/>
<path d="M50.4518 23.8513C51.5188 23.8513 52.4642 24.1749 53.2888 24.8203L54.9057 23.0519C53.6658 21.975 52.1815 21.4365 50.4518 21.4365C48.7377 21.4365 47.3025 22.0172 46.1431 23.1765C44.9848 24.3368 44.4026 25.7678 44.3977 27.4695C44.3977 29.2084 44.9779 30.6551 46.1392 31.8105C47.3005 32.9649 48.7377 33.5456 50.4518 33.5505C52.1874 33.5505 53.6717 33.012 54.9057 31.9351V26.2817H50.8641V28.5434L52.4809 28.5356V30.611C52.0117 30.9552 51.3412 31.1279 50.4684 31.1279C49.3798 31.1279 48.5011 30.7964 47.8336 30.1343C47.1651 29.4723 46.8284 28.5788 46.8234 27.4528C46.8234 26.4033 47.1562 25.5422 47.8218 24.8684C48.4864 24.1965 49.3631 23.8572 50.4518 23.8513Z" fill="#2C2C2C"/>
<path d="M60.2343 21.4375L55.3848 33.5514H57.9715L58.6989 31.6938H64.1954L64.9228 33.5514L67.5017 33.5436L62.66 21.4375H60.2343ZM59.6679 29.2712L61.5105 24.6673L63.305 29.2712H59.6679Z" fill="#2C2C2C"/>
<path d="M74.3803 27.4136L69.1263 21.4375H68.3184V33.5514H70.7431V26.5249L74.3803 30.5629L78.0184 26.5249L78.0262 33.5514H80.451V21.4375H79.6431L74.3803 27.4136Z" fill="#2C2C2C"/>
<path d="M84.2914 21.4297H81.8745V33.5525H84.2914V21.4297Z" fill="#2C2C2C"/>
<path d="M94.1379 29.0289L86.5396 21.4375H85.7317V33.5514H88.1565V26.0404L95.6742 33.5514H96.5636V21.4375H94.1379V29.0289Z" fill="#2C2C2C"/>
<path d="M103.483 23.8513C104.55 23.8513 105.496 24.1749 106.32 24.8203L107.937 23.0519C106.697 21.975 105.213 21.4365 103.483 21.4365C101.769 21.4365 100.334 22.0172 99.1746 23.1765C98.0162 24.3368 97.4341 25.7678 97.4292 27.4695C97.4292 29.2084 98.0094 30.6551 99.1707 31.8105C100.332 32.9649 101.769 33.5456 103.483 33.5505C105.219 33.5505 106.703 33.012 107.937 31.9351V26.2817H103.896V28.5434L105.512 28.5356V30.611C105.043 30.9552 104.373 31.1279 103.5 31.1279C102.411 31.1279 101.533 30.7964 100.865 30.1343C100.197 29.4723 99.8599 28.5788 99.8549 27.4528C99.8549 26.4033 100.188 25.5422 100.853 24.8684C101.518 24.1965 102.395 23.8572 103.483 23.8513Z" fill="#2C2C2C"/>
<path d="M55.7312 15.9831C55.1755 16.4941 55.1392 17.3611 55.6507 17.9173C56.167 18.4783 57.0407 18.5204 57.5964 18.0094C58.1677 17.4847 58.204 16.6255 57.6788 16.0537C57.1674 15.4996 56.2937 15.4672 55.7312 15.9831Z" fill="#2C2C2C"/>
<path d="M19.2135 38.3935C20.3336 38.3935 21.2416 37.4863 21.2416 36.3672C21.2416 35.248 20.3336 34.3408 19.2135 34.3408C18.0933 34.3408 17.1853 35.248 17.1853 36.3672C17.1853 37.4863 18.0933 38.3935 19.2135 38.3935Z" fill="#2C2C2C"/>
<path d="M19.2135 4.05367C20.3336 4.05367 21.2416 3.14644 21.2416 2.02732C21.2416 0.908202 20.3336 0.000976562 19.2135 0.000976562C18.0933 0.000976562 17.1853 0.908202 17.1853 2.02732C17.1853 3.14644 18.0933 4.05367 19.2135 4.05367Z" fill="#2C2C2C"/>
<path d="M36.399 21.2236C37.5191 21.2236 38.4272 20.3164 38.4272 19.1972C38.4272 18.0781 37.5191 17.1709 36.399 17.1709C35.2789 17.1709 34.3708 18.0781 34.3708 19.1972C34.3708 20.3164 35.2789 21.2236 36.399 21.2236Z" fill="#2C2C2C"/>
<path d="M2.02816 21.2236C3.14828 21.2236 4.05632 20.3164 4.05632 19.1972C4.05632 18.0781 3.14828 17.1709 2.02816 17.1709C0.908039 17.1709 0 18.0781 0 19.1972C0 20.3164 0.908039 21.2236 2.02816 21.2236Z" fill="#2C2C2C"/>
<path d="M27.1562 14.5224C28.9595 14.5224 30.4213 13.0618 30.4213 11.2602C30.4213 9.45857 28.9595 7.99805 27.1562 7.99805C25.3529 7.99805 23.8911 9.45857 23.8911 11.2602C23.8911 13.0618 25.3529 14.5224 27.1562 14.5224Z" fill="#2C2C2C"/>
<path d="M11.2697 14.5224C13.073 14.5224 14.5348 13.0618 14.5348 11.2602C14.5348 9.45857 13.073 7.99805 11.2697 7.99805C9.46647 7.99805 8.00464 9.45857 8.00464 11.2602C8.00464 13.0618 9.46647 14.5224 11.2697 14.5224Z" fill="#2C2C2C"/>
<path d="M11.2697 30.3954C13.073 30.3954 14.5348 28.9349 14.5348 27.1333C14.5348 25.3316 13.073 23.8711 11.2697 23.8711C9.46647 23.8711 8.00464 25.3316 8.00464 27.1333C8.00464 28.9349 9.46647 30.3954 11.2697 30.3954Z" fill="#2C2C2C"/>
<path d="M32.7197 8.32148C34.1668 8.32148 35.3398 7.14946 35.3398 5.70371C35.3398 4.25795 34.1668 3.08594 32.7197 3.08594C31.2727 3.08594 30.0996 4.25795 30.0996 5.70371C30.0996 7.14946 31.2727 8.32148 32.7197 8.32148Z" fill="#2C2C2C"/>
<path d="M5.70752 8.32148C7.15457 8.32148 8.32764 7.14946 8.32764 5.70371C8.32764 4.25795 7.15457 3.08594 5.70752 3.08594C4.26047 3.08594 3.0874 4.25795 3.0874 5.70371C3.0874 7.14946 4.26047 8.32148 5.70752 8.32148Z" fill="#2C2C2C"/>
<path d="M5.70752 35.3098C7.15457 35.3098 8.32764 34.1377 8.32764 32.692C8.32764 31.2462 7.15457 30.0742 5.70752 30.0742C4.26047 30.0742 3.0874 31.2462 3.0874 32.692C3.0874 34.1377 4.26047 35.3098 5.70752 35.3098Z" fill="#2C2C2C"/>
<path d="M37.8518 40.4855C39.2989 40.4855 40.4719 39.3135 40.4719 37.8678C40.4719 36.422 39.2989 35.25 37.8518 35.25C36.4048 35.25 35.2317 36.422 35.2317 37.8678C35.2317 39.3135 36.4048 40.4855 37.8518 40.4855Z" fill="#2C2C2C"/>
<path d="M34.5718 30.9395C34.4717 30.8395 34.3657 30.7493 34.2538 30.6688C33.3938 29.9264 32.1834 30.1667 31.1448 28.9456C30.5253 28.2178 30.5636 27.341 30.3369 26.4494C30.277 26.1905 30.1867 25.9443 30.0698 25.7138C30.0571 25.6873 30.0433 25.6608 30.0296 25.6344C30.0276 25.6304 30.0257 25.6265 30.0227 25.6226C29.9088 25.4117 29.7645 25.2018 29.5761 24.9949C28.9792 24.3368 28.1163 23.9229 27.1562 23.9229C25.3528 23.9229 23.8911 25.3833 23.8911 27.185C23.8911 28.1433 24.3054 29.0054 24.9641 29.6027C25.1702 29.791 25.3803 29.9352 25.5924 30.049C25.5963 30.0509 25.6002 30.0539 25.6042 30.0558C25.6307 30.0696 25.6562 30.0833 25.6827 30.096C25.9144 30.2128 26.1608 30.303 26.4199 30.3628C27.3133 30.5894 28.1909 30.5511 28.9183 31.17C29.7793 31.9017 29.9147 32.7187 30.1788 33.4377C30.2907 33.879 30.5195 34.2968 30.865 34.6431C31.8879 35.6651 33.547 35.6651 34.5709 34.6431C35.5948 33.6211 35.5948 31.9625 34.5718 30.9395Z" fill="#2C2C2C"/>
<path d="M27.6157 33.2877C27.5479 33.1808 27.4625 33.07 27.3427 32.9504C27.3388 32.9464 27.3349 32.9435 27.33 32.9386C27.328 32.9366 27.327 32.9347 27.3251 32.9327C27.3202 32.9278 27.3143 32.9248 27.3084 32.919C26.1225 31.7675 24.8031 32.1971 23.3021 30.6974C21.8001 29.1968 22.3096 27.9541 21.0776 26.6938C21.0727 26.6889 21.0698 26.684 21.0658 26.6791C21.0639 26.6771 21.0619 26.6761 21.06 26.6742C21.056 26.6702 21.0531 26.6653 21.0482 26.6614C20.9284 26.5418 20.8175 26.4574 20.7105 26.3888C19.8122 25.761 18.6136 25.761 17.7154 26.3888C17.6084 26.4564 17.4974 26.5418 17.3777 26.6614C17.3737 26.6653 17.3698 26.6702 17.3659 26.6742C17.3639 26.6761 17.362 26.6771 17.36 26.6791C17.3551 26.684 17.3521 26.6889 17.3482 26.6938C16.1162 27.9541 16.6257 29.1968 15.1237 30.6974C13.6227 32.1971 12.3033 31.7675 11.1184 32.919C11.1135 32.9239 11.1067 32.9278 11.1017 32.9327C11.0998 32.9347 11.0988 32.9366 11.0968 32.9386C11.0929 32.9425 11.089 32.9454 11.0841 32.9494C10.9643 33.069 10.8799 33.1799 10.8112 33.2868C10.0955 34.3078 10.1888 35.7221 11.1008 36.6343C12.0137 37.5464 13.4283 37.6386 14.4503 36.9246C14.5573 36.8569 14.6692 36.7716 14.788 36.6519C14.7919 36.648 14.7948 36.6431 14.7998 36.6392C14.8017 36.6372 14.8037 36.6362 14.8056 36.6343C14.8106 36.6294 14.8135 36.6235 14.8184 36.6186C15.9719 35.4338 15.5409 34.1155 17.0419 32.6159C17.8273 31.8312 18.594 31.6576 19.2114 31.6576C19.8289 31.6576 20.5966 31.8312 21.381 32.6159C22.882 34.1155 22.452 35.4338 23.6045 36.6186C23.6094 36.6235 23.6123 36.6303 23.6182 36.6352C23.6202 36.6372 23.6222 36.6382 23.6241 36.6401C23.628 36.6441 23.631 36.648 23.6359 36.6529C23.7557 36.7726 23.8666 36.8569 23.9736 36.9256C24.9955 37.6406 26.4111 37.5474 27.3241 36.6352C28.238 35.7231 28.3303 34.3088 27.6157 33.2877Z" fill="#2C2C2C"/>
<path d="M10.8112 5.10643C10.879 5.21333 10.9644 5.32417 11.0842 5.44382C11.0881 5.44775 11.092 5.45069 11.0969 5.45559C11.0989 5.45756 11.0999 5.45952 11.1018 5.46148C11.1067 5.46638 11.1126 5.46933 11.1185 5.47521C12.3044 6.62668 13.6238 6.19708 15.1248 7.69674C16.6267 9.19737 16.1173 10.4401 17.3493 11.7004C17.3542 11.7053 17.3571 11.7102 17.361 11.7151C17.363 11.7171 17.365 11.718 17.3669 11.72C17.3709 11.7239 17.3738 11.7288 17.3787 11.7328C17.4985 11.8524 17.6094 11.9368 17.7164 12.0054C18.6147 12.6331 19.8133 12.6331 20.7115 12.0054C20.8185 11.9377 20.9295 11.8524 21.0492 11.7328C21.0532 11.7288 21.0571 11.7239 21.061 11.72C21.063 11.718 21.0649 11.7171 21.0669 11.7151C21.0718 11.7102 21.0748 11.7053 21.0787 11.7004C22.3107 10.4401 21.8012 9.19737 23.3032 7.69674C24.8042 6.19708 26.1236 6.62668 27.3085 5.47521C27.3134 5.47031 27.3202 5.46638 27.3251 5.46148C27.3271 5.45952 27.3281 5.45756 27.3301 5.45559C27.334 5.45167 27.3379 5.44873 27.3428 5.44481C27.4626 5.32515 27.547 5.21432 27.6157 5.10741C28.3314 4.08639 28.2381 2.67207 27.3261 1.75992C26.4132 0.847767 24.9986 0.755571 23.9766 1.4696C23.8696 1.53727 23.7577 1.6226 23.6389 1.74226C23.635 1.74619 23.6321 1.75109 23.6271 1.75501C23.6252 1.75697 23.6232 1.75796 23.6213 1.75992C23.6163 1.76482 23.6134 1.77071 23.6085 1.77561C22.455 2.96042 22.886 4.27863 21.385 5.77828C20.5996 6.56292 19.8329 6.73653 19.2154 6.73653C18.598 6.73653 17.8303 6.56292 17.0459 5.77828C15.5449 4.27863 15.9749 2.96042 14.8224 1.77561C14.8175 1.77071 14.8146 1.76384 14.8087 1.75894C14.8067 1.75697 14.8047 1.75599 14.8028 1.75403C14.7988 1.75011 14.7959 1.74619 14.791 1.74128C14.6712 1.62162 14.5603 1.53727 14.4533 1.46862C13.4314 0.75361 12.0158 0.846786 11.1028 1.75894C10.1889 2.67109 10.0956 4.08541 10.8112 5.10643Z" fill="#2C2C2C"/>
<path d="M33.3163 10.8025C33.2093 10.8702 33.0984 10.9555 32.9786 11.0752C32.9747 11.0791 32.9718 11.083 32.9668 11.0879C32.9649 11.0899 32.9629 11.0909 32.961 11.0928C32.956 11.0977 32.9531 11.1036 32.9472 11.1095C31.7947 12.2943 32.2247 13.6125 30.7237 15.1122C29.2217 16.6128 27.9779 16.1038 26.7165 17.3347C26.7115 17.3396 26.7066 17.3425 26.7017 17.3465C26.6998 17.3484 26.6988 17.3504 26.6968 17.3523C26.6929 17.3563 26.688 17.3592 26.6841 17.3641C26.5643 17.4838 26.4799 17.5946 26.4112 17.7015C25.7829 18.5989 25.7829 19.7965 26.4112 20.6939C26.4789 20.8009 26.5643 20.9117 26.6841 21.0313C26.688 21.0353 26.6929 21.0392 26.6968 21.0431C26.6988 21.0451 26.6998 21.047 26.7017 21.049C26.7066 21.0539 26.7115 21.0568 26.7165 21.0608C27.9779 22.2917 29.2217 21.7826 30.7237 23.2833C32.2247 24.7829 31.7947 26.1011 32.9472 27.285C32.9521 27.2899 32.956 27.2967 32.961 27.3016C32.9629 27.3036 32.9649 27.3046 32.9668 27.3065C32.9708 27.3105 32.9737 27.3144 32.9776 27.3193C33.0974 27.439 33.2083 27.5233 33.3153 27.592C34.3373 28.307 35.7529 28.2138 36.6658 27.3026C37.5788 26.3905 37.6711 24.9771 36.9564 23.9561C36.8887 23.8492 36.8033 23.7374 36.6835 23.6187C36.6796 23.6148 36.6747 23.6118 36.6707 23.6069C36.6688 23.605 36.6678 23.603 36.6658 23.6011C36.6609 23.5962 36.655 23.5932 36.6501 23.5883C35.4642 22.4359 34.1449 22.8664 32.6439 21.3668C31.8585 20.5821 31.6848 19.8161 31.6848 19.1992C31.6848 18.5823 31.8585 17.8153 32.6439 17.0316C34.1449 15.532 35.4642 15.9616 36.6501 14.8101C36.655 14.8052 36.6619 14.8022 36.6668 14.7964C36.6688 14.7944 36.6698 14.7924 36.6717 14.7905C36.6756 14.7866 36.6796 14.7836 36.6845 14.7787C36.8042 14.659 36.8887 14.5482 36.9574 14.4413C37.673 13.4203 37.5798 12.006 36.6668 11.0938C35.7538 10.1807 34.3383 10.0875 33.3163 10.8025Z" fill="#2C2C2C"/>
<path d="M5.10962 27.5921C5.21663 27.5244 5.32756 27.4391 5.44732 27.3195C5.45125 27.3155 5.45419 27.3116 5.4591 27.3067C5.46107 27.3047 5.46303 27.3038 5.46499 27.3018C5.4699 27.2969 5.47285 27.291 5.47874 27.2851C6.63123 26.1003 6.20126 24.7821 7.70225 23.2825C9.20423 21.7818 10.448 22.2909 11.7095 21.06C11.7144 21.0551 11.7193 21.0521 11.7242 21.0482C11.7262 21.0462 11.7272 21.0443 11.7291 21.0423C11.7331 21.0384 11.738 21.0354 11.7419 21.0305C11.8617 20.9109 11.9461 20.8 12.0148 20.6931C12.6431 19.7957 12.6431 18.5981 12.0148 17.7007C11.9471 17.5938 11.8617 17.483 11.7419 17.3633C11.738 17.3594 11.7331 17.3555 11.7291 17.3515C11.7272 17.3496 11.7262 17.3476 11.7242 17.3456C11.7193 17.3407 11.7144 17.3378 11.7095 17.3339C10.448 16.103 9.20423 16.612 7.70225 15.1114C6.20126 13.6117 6.63123 12.2935 5.47874 11.1097C5.47383 11.1048 5.4699 11.0979 5.46499 11.093C5.46303 11.091 5.46107 11.0901 5.4591 11.0881C5.45518 11.0842 5.45223 11.0803 5.4483 11.0754C5.32854 10.9557 5.21761 10.8713 5.1106 10.8027C4.08867 10.0877 2.67308 10.1809 1.76011 11.092C0.847147 12.0042 0.754869 13.4175 1.46954 14.4385C1.53727 14.5454 1.62268 14.6573 1.74244 14.7759C1.74637 14.7799 1.75128 14.7828 1.75521 14.7877C1.75717 14.7897 1.75815 14.7916 1.76011 14.7936C1.76502 14.7985 1.77091 14.8014 1.77582 14.8063C2.9617 15.9588 4.28108 15.5282 5.78208 17.0279C6.56742 17.8125 6.74118 18.5785 6.74118 19.1954C6.74118 19.8124 6.56742 20.5794 5.78208 21.363C4.28108 22.8627 2.9617 22.4331 1.77582 23.5846C1.77091 23.5895 1.76404 23.5924 1.75913 23.5983C1.75717 23.6002 1.75619 23.6022 1.75422 23.6042C1.7503 23.6081 1.74637 23.611 1.74146 23.6159C1.6217 23.7356 1.53727 23.8464 1.46855 23.9533C0.752905 24.9744 0.846165 26.3887 1.75913 27.3008C2.6721 28.213 4.08769 28.3062 5.10962 27.5921Z" fill="#2C2C2C"/>
</svg>
