<svg width="110" height="23" viewBox="0 0 110 23" fill="none" xmlns="http://www.w3.org/2000/svg">
<g clip-path="url(#clip0_256_1561)">
<path d="M109.667 0.189453H97.6973L105.405 21.5328H109.667V0.189453Z" fill="#2C2C2C"/>
<path d="M109.667 0.189453H97.6973L105.405 21.5328H109.667V0.189453Z" fill="#2C2C2C"/>
<path d="M63.9824 14.6938L58.1544 0.19043H51.8877V21.5338H57.1517V9.31043L61.8517 21.5338H66.113L70.813 9.31043V21.5338H76.077V0.19043H69.8104L63.9824 14.6938Z" fill="#2C2C2C"/>
<path fill-rule="evenodd" clip-rule="evenodd" d="M94.125 0.19043L101.896 21.5338H96.381L94.877 17.2904H84.913L83.4717 21.5338H77.957L85.7277 0.19043H94.125ZM93.3104 12.8571L90.4904 4.81376H89.2997L86.4797 12.8571H93.3104Z" fill="#2C2C2C"/>
<path d="M19.5522 0.19043H24.8162V4.8771H19.5522V0.19043Z" fill="#2C2C2C"/>
<path d="M19.5522 7.21875H24.8162V21.5321H19.5522V7.21875Z" fill="#2C2C2C"/>
<path d="M48.5666 9.62634H38.1012V13.8063H43.4279V14.5663C41.4852 18.0497 35.7826 18.303 33.9652 14.5663C32.8999 12.4763 32.7119 9.943 33.7772 7.663C35.4066 3.79967 41.4852 3.35633 43.4279 7.21967H48.5666C47.4386 0.443001 39.1666 -1.20367 34.0906 0.823001C28.4506 2.84967 26.3826 9.943 28.4506 15.263C30.0172 19.443 34.1532 21.8497 38.5399 21.7863C43.3652 21.8497 48.3159 18.683 48.5666 13.8063V9.62634Z" fill="#2C2C2C"/>
<path d="M11.6559 7.21987C11.5932 5.0032 9.90121 4.4332 9.90121 4.4332C9.08654 4.17987 8.20921 4.17987 7.39454 4.49654C7.01854 4.66543 6.70521 4.89765 6.45454 5.1932C5.89054 5.7632 5.89054 6.83987 6.51721 7.34654C6.80965 7.64209 7.20654 7.89543 7.70787 8.10654C8.20921 8.31765 8.75232 8.52876 9.3372 8.73987C10.1728 8.9932 11.0292 9.28876 11.9065 9.62654C12.7839 9.92209 13.5985 10.3021 14.3505 10.7665C15.1025 11.2732 15.7083 11.8854 16.1679 12.6032C17.1705 14.2499 17.0452 16.9732 15.9799 18.6199C15.395 19.591 14.5176 20.351 13.3479 20.8999C11.0919 21.9765 7.20654 22.1032 4.76254 21.0899C4.76254 21.0899 -0.0627939 19.8232 -0.000127274 13.8065H5.13854V14.3132C5.13854 17.2899 7.70787 17.4799 8.45987 17.4799C9.42076 17.4799 10.1728 17.2899 10.7159 16.9099C11.5932 16.2765 11.7185 14.8199 10.9665 14.1232C10.6741 13.8276 10.2563 13.5743 9.71321 13.3632C9.12832 13.1521 8.48076 12.9199 7.77054 12.6665C6.93498 12.4554 6.09943 12.2021 5.26387 11.9065C4.47009 11.611 3.71809 11.231 3.00787 10.7665C1.44121 9.7532 0.626539 8.29654 0.689206 6.26987C0.689206 4.91876 1.02343 3.77876 1.69187 2.84987C2.40209 1.92098 3.34209 1.2032 4.51187 0.696538C6.64254 -0.190129 10.0265 -0.253462 12.2199 0.633204C13.3061 1.0132 14.2043 1.60432 14.9145 2.40654C14.9145 2.40654 16.4812 3.79987 16.6065 7.21987H11.6559Z" fill="#2C2C2C"/>
</g>
<defs>
<clipPath id="clip0_256_1561">
<rect width="109.667" height="22.1667" fill="white"/>
</clipPath>
</defs>
</svg>
