<svg width="135" height="34" viewBox="0 0 135 34" fill="none" xmlns="http://www.w3.org/2000/svg">
<g clip-path="url(#clip0_256_1586)">
<path d="M17.3132 0C22.4758 2.32445 26.3024 8.11078 27.0394 15.6519C27.7773 23.1453 25.1497 29.6433 20.5398 32.9632C26.8551 31.1609 30.5428 23.7617 29.7133 15.367C28.93 6.92474 23.9054 0.474417 17.3132 0Z" fill="#2C2C2C"/>
<path d="M11.1831 0.475088C3.66882 1.23338 -0.802146 9.24986 0.120014 18.4504C1.04217 27.651 6.98802 34.5767 14.5023 33.7698C21.9703 33.0106 26.4875 24.9951 25.5654 15.7945C24.5969 6.59293 18.6501 -0.33181 11.1831 0.475088ZM2.7013 18.2609C1.41066 10.2454 5.46684 3.7474 10.9063 3.17868C14.5014 2.79954 16.6679 4.74387 17.59 5.74034C18.1428 6.35669 18.2353 6.5939 17.3132 6.30906C15.6541 5.83464 13.3033 5.64507 11.2284 6.07185C5.46684 7.25789 3.99101 12.6641 6.80284 16.4118C8.41662 18.5457 9.66096 19.8737 11.3664 21.6294C17.2678 27.6044 4.54468 29.5487 2.7013 18.2609ZM14.9624 31.2092C11.8275 31.8255 9.10824 30.0707 8.18608 28.9323C7.63335 28.2684 7.44816 28.1264 8.41662 28.316C10.1683 28.6485 12.6117 28.6951 14.7319 28.0788C20.6324 26.4183 21.6925 20.8692 18.5575 17.312C17.2669 15.8421 14.7772 13.5177 13.4866 12.4269C6.98708 6.83014 20.0324 3.79504 22.7054 15.0829C24.5969 23.0517 20.4019 30.1184 14.9624 31.2092Z" fill="#2C2C2C"/>
<path d="M93.7862 16.4102C93.7862 13.4694 93.7862 10.5762 93.7862 7.63543C93.7862 7.58779 93.7862 7.54016 93.7862 7.44586C93.7862 7.35156 93.8325 7.35059 93.8788 7.35059C93.9251 7.35059 93.9714 7.35059 94.0168 7.35059C96.5064 7.35059 98.9488 7.35059 101.438 7.35059C102.591 7.35059 103.698 7.44586 104.803 7.825C105.495 8.06221 106.186 8.39372 106.739 8.91577C107.661 9.76934 108.122 10.8601 108.076 12.1414C108.076 12.853 107.938 13.5647 107.615 14.2287C107.246 14.9879 106.508 15.5566 105.633 15.7462C105.402 15.7939 105.309 15.7938 105.309 15.9834C105.309 16.173 105.447 16.173 105.678 16.2206C106.646 16.4102 107.521 16.9323 108.029 17.6439C108.443 18.2602 108.674 18.9242 108.72 19.6359C108.813 20.537 108.72 21.3906 108.397 22.2442C107.982 23.3826 107.153 24.1885 106.093 24.7106C105.263 25.1373 104.387 25.3269 103.465 25.4222C102.82 25.4698 102.128 25.5175 101.483 25.5175C98.9932 25.5175 96.5045 25.5175 94.0149 25.5175C93.9686 25.5175 93.8769 25.5175 93.8306 25.5175C93.7843 25.5175 93.738 25.4698 93.738 25.4222C93.738 25.3745 93.738 25.3269 93.738 25.2326C93.7862 22.2442 93.7862 19.351 93.7862 16.4102ZM98.1655 19.8731C98.1655 20.5847 98.1655 21.2963 98.1655 21.9603C98.1655 22.1975 98.1655 22.1975 98.3961 22.1975C99.5941 22.1975 100.747 22.1975 101.946 22.1975C102.176 22.1975 102.407 22.1975 102.637 22.1499C103.283 22.0546 103.835 21.7707 104.251 21.201C104.528 20.7743 104.666 20.2998 104.666 19.7778C104.666 18.8766 104.298 18.2602 103.56 17.8811C103.145 17.6915 102.684 17.5962 102.223 17.5962C100.932 17.5962 99.6877 17.5962 98.397 17.5962C98.2128 17.5962 98.2128 17.5962 98.2128 17.7858C98.1655 18.4498 98.1655 19.1614 98.1655 19.8731ZM98.1655 12.7587C98.1655 13.3751 98.1655 14.0391 98.1655 14.6554C98.1655 14.8927 98.1655 14.8927 98.3961 14.8927C99.5488 14.8927 100.655 14.8927 101.807 14.8927C102.175 14.8927 102.499 14.845 102.867 14.7507C103.65 14.5611 104.158 14.0867 104.296 13.2808C104.342 12.9483 104.342 12.6644 104.296 12.332C104.203 11.7632 103.881 11.3355 103.373 11.0516C102.866 10.7668 102.36 10.6725 101.806 10.6725C100.653 10.6725 99.5469 10.6725 98.3951 10.6725C98.2109 10.6725 98.2109 10.6725 98.2109 10.8621C98.1655 11.4784 98.1655 12.0948 98.1655 12.7587Z" fill="#2C2C2C"/>
<path d="M126.008 18.3553C126.008 17.3589 126.008 16.3634 126.008 15.3202C126.008 15.083 126.008 15.083 125.777 15.083C125.27 15.083 124.763 15.083 124.21 15.083C124.025 15.083 124.025 15.083 124.025 14.8934C124.025 13.9446 124.025 12.9968 124.025 12.0479C124.025 11.8583 124.025 11.8583 124.21 11.8583C124.624 11.8583 125.039 11.8583 125.408 11.8583C125.5 11.8583 125.592 11.8583 125.685 11.8583C126.008 11.8107 126.237 11.6688 126.33 11.3363C126.376 11.1467 126.422 10.9571 126.468 10.7676C126.514 10.1989 126.606 9.58153 126.652 9.01281C126.652 8.82324 126.652 8.82324 126.836 8.82324C127.805 8.82324 128.772 8.82324 129.741 8.82324C129.971 8.82324 129.971 8.82324 129.971 9.06045C129.971 9.91401 129.971 10.8152 129.971 11.6688C129.971 11.906 129.971 11.906 130.202 11.906C131.446 11.906 132.691 11.906 133.936 11.906C134.166 11.906 134.166 11.906 134.166 12.1432C134.166 13.0444 134.166 13.9932 134.166 14.8944C134.166 15.1316 134.166 15.1316 133.936 15.1316C132.691 15.1316 131.446 15.1316 130.202 15.1316C129.925 15.1316 129.925 15.1316 129.925 15.3688C129.925 17.076 129.925 18.7841 129.925 20.4912C129.925 20.6808 129.925 20.8703 129.971 21.0599C130.064 21.7715 130.432 22.1983 131.169 22.3402C131.677 22.4355 132.183 22.4355 132.737 22.3879C133.105 22.3402 133.475 22.2926 133.889 22.2459C133.982 22.2459 134.074 22.2459 134.074 22.3879C134.074 23.3367 134.074 24.2846 134.074 25.2334C134.074 25.3753 134.027 25.3753 133.936 25.423C132.829 25.6126 131.769 25.7555 130.663 25.6602C129.971 25.6126 129.234 25.4706 128.589 25.2334C127.206 24.7114 126.376 23.6682 126.099 22.1507C126.007 21.6763 126.007 21.1542 125.961 20.6808C126.008 19.8729 126.008 19.1136 126.008 18.3553Z" fill="#2C2C2C"/>
<path d="M39.0245 19.3035C39.5772 19.3035 40.1772 19.3035 40.7299 19.3035C40.9604 19.3035 40.9604 19.3035 40.9604 19.5407C40.9604 19.9675 41.0067 20.3466 41.1447 20.7267C41.3752 21.4384 41.8826 21.9128 42.5733 22.1966C43.2186 22.4339 43.9102 22.5291 44.5555 22.5291C45.3851 22.5291 46.2147 22.4815 46.9989 22.15C47.921 21.7708 48.4275 20.8696 48.1969 19.8732C48.1043 19.2568 47.7358 18.9243 47.1831 18.7348C46.6757 18.5928 46.2147 18.4976 45.7082 18.4023C44.5102 18.1651 43.2649 18.0231 42.0668 17.7859C41.1447 17.644 40.2688 17.4068 39.393 17.0743C38.056 16.5056 37.2727 15.5091 37.0422 14.0392C36.858 13.0427 36.9043 11.9996 37.2727 11.0508C37.6412 9.95999 38.3328 9.15406 39.255 8.53674C40.2688 7.87275 41.3752 7.54027 42.5279 7.35069C44.0028 7.11349 45.524 7.16112 46.9989 7.39833C47.921 7.54027 48.8423 7.82511 49.6728 8.34717C50.7792 9.05879 51.4245 10.0543 51.7467 11.3356C51.9309 11.9996 51.9772 12.7112 52.0235 13.4228C52.0235 13.6601 52.0235 13.6601 51.793 13.6601C50.6403 13.6601 49.5339 13.6601 48.3821 13.6601C48.1979 13.6601 48.1516 13.6124 48.1516 13.4228C48.1053 13.0437 48.059 12.6169 47.921 12.2368C47.6442 11.4309 47.0915 10.9088 46.3073 10.6716C45.0166 10.2925 43.6797 10.2925 42.4353 10.8612C41.191 11.3832 41.0984 12.6159 41.4669 13.5648C41.6048 13.8973 41.8816 14.1335 42.2501 14.2288C42.8492 14.4183 43.4945 14.5613 44.0935 14.7032C45.1999 14.9404 46.3526 15.0823 47.5044 15.3195C48.3802 15.5091 49.3024 15.6987 50.132 16.0788C51.5152 16.6475 52.2985 17.6916 52.4827 19.1615C52.6207 20.2047 52.529 21.2012 52.1596 22.1966C51.7911 23.2398 51.0995 23.999 50.1773 24.5678C49.3477 25.0898 48.4256 25.3737 47.5034 25.5166C45.8443 25.8014 44.2305 25.8491 42.5714 25.6119C41.6029 25.4699 40.6354 25.1851 39.7595 24.7107C38.4226 23.9514 37.593 22.7663 37.2246 21.2488C37.0866 20.6801 37.0403 20.1104 36.994 19.494C36.994 19.3045 37.0403 19.3045 37.2246 19.3045C37.8718 19.3035 38.4717 19.3035 39.0245 19.3035Z" fill="#2C2C2C"/>
<path d="M58.477 23.1457C58.477 23.1933 58.5233 23.9993 58.5233 24.4261C58.5696 24.9948 58.5696 25.5645 58.5696 26.1332C58.5696 27.6031 58.5696 29.1216 58.5696 30.5915C58.5696 30.6392 58.5696 30.7335 58.5696 30.7811C58.5696 30.8764 58.5233 30.923 58.4317 30.923C58.3854 30.923 58.3391 30.923 58.2937 30.923C57.0957 30.923 55.943 30.923 54.744 30.923C54.5134 30.923 54.5134 30.923 54.5134 30.6858C54.5134 24.5204 54.5134 18.3539 54.5134 12.2361C54.5134 11.9989 54.5134 11.9989 54.744 11.9989C55.942 11.9989 57.141 11.9989 58.2937 11.9989C58.5243 11.9989 58.5243 11.9989 58.5243 12.2361C58.5243 12.9477 58.4317 13.706 58.4317 14.4652C58.4317 14.5605 58.478 14.6072 58.5696 14.6072C58.6622 14.6548 58.7539 14.6072 58.8001 14.4652C59.2612 13.3268 60.0908 12.4256 60.9204 12.1408C62.6721 11.4768 65.5302 11.6664 67.2819 13.564C68.1578 14.5129 68.6652 15.6979 68.8957 16.9793C69.1263 18.4968 69.0337 19.9677 68.6189 21.4376C68.1115 23.0028 67.2819 24.2831 65.8533 25.0424C64.7932 25.6111 64.01 25.754 62.4888 25.754C60.9676 25.754 59.4464 24.7109 58.8011 23.24C58.7548 23.0981 58.6631 23.0504 58.5706 23.0981C58.5233 23.0514 58.477 23.0981 58.477 23.1457ZM58.6159 18.9246C58.6159 19.1141 58.6159 19.3513 58.6159 19.5409C58.6622 20.5374 59.077 21.3433 59.9065 21.912C60.4139 22.2912 61.013 22.4341 61.612 22.4807C62.9489 22.6227 64.0553 21.9587 64.6081 20.726C65.1154 19.5399 65.2071 18.3072 64.8386 17.0736C64.4701 15.8409 63.6405 15.034 62.3489 14.892C60.9204 14.7501 59.4908 15.4141 58.8918 16.9793C58.6622 17.6442 58.6159 18.3082 58.6159 18.9246Z" fill="#2C2C2C"/>
<path d="M81.3405 15.5093C81.5711 14.8453 82.2627 12.4266 84.8903 11.9045C85.7661 11.715 87.0105 11.715 88.0706 11.9998C89.0844 12.2847 89.9603 12.8057 90.6056 13.7069C91.113 14.4186 91.3435 15.2245 91.4814 16.1257C91.5277 16.4582 91.5277 16.8373 91.5277 17.2165C91.5277 19.8724 91.5277 22.576 91.5277 25.232C91.5277 25.2796 91.5277 25.3272 91.5277 25.4215C91.5277 25.5168 91.4814 25.5635 91.3898 25.5635C91.3435 25.5635 91.2972 25.5635 91.2519 25.5635C90.0992 25.5635 88.9011 25.5635 87.7484 25.5635C87.4716 25.5635 87.4716 25.5635 87.4716 25.2786C87.4716 22.9075 87.4716 20.5354 87.4716 18.1643C87.4716 17.7375 87.4253 17.3108 87.2873 16.884C87.0568 16.22 86.642 15.7456 85.9967 15.5084C85.0282 15.1759 84.0607 15.1759 83.0922 15.556C82.2164 15.8885 81.6637 16.5991 81.3868 17.548C81.2026 18.1167 81.1563 18.734 81.1563 19.3504C81.1563 21.2947 81.1563 23.2867 81.1563 25.232C81.1563 25.3272 81.1563 25.3739 81.1563 25.4692C81.1563 25.5644 81.11 25.6111 81.0183 25.6111C80.972 25.6111 80.9257 25.6111 80.8804 25.6111C79.7277 25.6111 78.5296 25.6111 77.3769 25.6111C77.1001 25.6111 77.1001 25.6111 77.1001 25.3263C77.1001 21.0098 77.1001 16.6468 77.1001 12.3303C77.1001 12.0455 77.1001 12.0455 77.3769 12.0455C78.5296 12.0455 79.7277 12.0455 80.8804 12.0455C81.1109 12.0455 81.1109 12.0455 81.1109 12.2827C81.0646 13.2792 80.9267 15.4607 80.9267 15.555C80.9267 15.6027 80.973 15.6503 81.0646 15.6503C81.1563 15.6503 81.3405 15.557 81.3405 15.5093Z" fill="#2C2C2C"/>
<path d="M75.0259 18.7349C75.0259 20.8689 75.0259 23.0037 75.0259 25.1853C75.0259 25.2329 75.0259 25.3272 75.0259 25.3748C75.0259 25.4701 74.9796 25.5168 74.888 25.5168C74.8417 25.5168 74.7954 25.5168 74.75 25.5168C73.5973 25.5168 72.3993 25.5168 71.2466 25.5168C70.9697 25.5168 70.9697 25.5168 70.9697 25.2319C70.9697 20.9155 70.9697 16.5524 70.9697 12.236C70.9697 11.9512 70.9697 11.9512 71.2466 11.9512C72.3993 11.9512 73.5973 11.9512 74.75 11.9512C75.0269 11.9512 75.0269 11.9512 75.0269 12.236C75.0259 14.4185 75.0259 16.5534 75.0259 18.7349Z" fill="#2C2C2C"/>
<path d="M72.9975 7.20996C73.5965 7.20996 74.1955 7.20996 74.7955 7.20996C74.9335 7.20996 74.9798 7.2576 74.9798 7.39953C74.9798 8.34837 74.9798 9.34387 74.9798 10.2927C74.9798 10.4823 74.9335 10.4823 74.7492 10.4823C73.5512 10.4823 72.3522 10.4823 71.1541 10.4823C70.9236 10.4823 70.9236 10.4823 70.9236 10.2451C70.9236 9.29623 70.9236 8.34837 70.9236 7.39953C70.9236 7.20996 70.9236 7.20996 71.1541 7.20996C71.8457 7.20996 72.3985 7.20996 72.9975 7.20996Z" fill="#2C2C2C"/>
<path d="M121.629 13.2797C120.338 12.1413 118.817 11.5725 117.019 11.5249C115.775 11.5249 114.529 11.8097 113.424 12.4737C111.165 13.8017 110.059 15.889 110.059 18.7345C110.059 20.916 110.658 22.6708 111.995 23.9988C113.332 25.2791 115.038 25.9431 117.112 25.9431C119.14 25.9431 120.984 25.1838 122.505 23.7139C122.551 23.6663 122.551 23.6187 122.505 23.572L120.431 21.2475C120.431 21.2475 120.384 21.1999 120.338 21.1999C120.338 21.1999 120.292 21.1999 120.246 21.2475C119.416 22.1011 118.356 22.5755 117.111 22.5755C115.82 22.5755 114.345 21.579 114.115 20.2511C114.115 20.2034 114.161 20.1558 114.207 20.1558H123.334C123.381 20.1558 123.427 20.1082 123.427 20.0605V18.1162C123.427 16.0309 122.919 14.4181 121.629 13.2797ZM114.3 17.3589C114.253 17.3589 114.207 17.3112 114.207 17.2636C114.53 15.7937 115.913 14.9392 116.973 14.9392C117.664 14.9392 118.263 15.1764 118.771 15.5555C119.185 15.9346 119.462 16.5986 119.6 17.2626C119.6 17.3103 119.554 17.3579 119.508 17.3579H114.3V17.3589Z" fill="#2C2C2C"/>
</g>
<defs>
<clipPath id="clip0_256_1586">
<rect width="134.167" height="33.8333" fill="white"/>
</clipPath>
</defs>
</svg>
