<?xml version="1.0" encoding="UTF-8"?>
<svg id="Layer_1" xmlns="http://www.w3.org/2000/svg" version="1.1" viewBox="0 0 40 40">
  <!-- Generator: Adobe Illustrator 30.0.0, SVG Export Plug-In . SVG Version: 2.1.1 Build 123)  -->
  <path d="M27,11.3c-1.6,0-2.7,1.3-2.7,2.8,0,1.5,1.1,2.8,2.7,2.8,1.6,0,2.7-1.3,2.7-2.8,0-1.5-1.1-2.8-2.7-2.8Z" fill="#fff"/>
  <path d="M34,0H6C2.7,0,0,2.7,0,6v8.5c0,.7.3,1.3.7,1.8l7.9,7.9c0,0,.2,0,.2,0v-2.4c0-.2.1-.3.3-.3h1.8c.2,0,.3.1.3.3v4.9c0,0,0,.1,0,.2l1.5,1.6c0,0,.2,0,.2,0v-6.6c0-.2.1-.3.3-.3h1.5c0,0,.2,0,.2,0l4.1,4.7c.2.2.5,0,.5-.2v-4.4c0-.2.1-.3.3-.3h1.8c.2,0,.3.1.3.3v9.1c0,.2-.1.3-.3.3h-1.5c0,0-.2,0-.2,0l-4.1-4.7c-.2-.2-.5,0-.5.2v4.3c0,.2-.1.3-.3.3h-.6c0,0-.1,0-.2,0L.7,17.4c-.2-.2-.7,0-.7.3v16.4c0,3.3,2.7,6,6,6h28c3.3,0,6-2.7,6-6V6c0-3.3-2.7-6-6-6ZM11.2,18.9c0,.2-.1.3-.3.3h-1.8c-.2,0-.3-.1-.3-.3v-9.1c0-.2.1-.3.3-.3h1.8c.2,0,.3.1.3.3v9.1ZM16.7,16.4h-1.1c-.2,0-.3.1-.3.3v2.2c0,.2-.1.3-.3.3h-1.8c-.2,0-.3-.1-.3-.3v-9.1c0-.2.1-.3.3-.3h3.6c2.5,0,4,1.3,4,3.4s-1.6,3.5-4.2,3.5ZM31.6,23.5c0,.2-.1.3-.3.3h-2.7c-.2,0-.3.1-.3.3v6.8c0,.2-.1.3-.3.3h-1.8c-.2,0-.3-.1-.3-.3v-6.8c0-.2-.1-.3-.3-.3h-2.7c-.2,0-.3-.1-.3-.3v-1.8c0-.2.1-.3.3-.3h8.3c.2,0,.3.1.3.3v1.8ZM27,19.2c-3,0-5.1-2.2-5.1-5.1s2.1-5.1,5.1-5.1c3,0,5.1,2.2,5.1,5.1s-2.1,5.1-5.1,5.1Z" fill="#fff"/>
  <path d="M16.9,11.3h-1.2c-.2,0-.3.1-.3.3v2.7c0,.2.1.3.3.3h1.2c1,0,1.7-.8,1.7-1.7h0c0-.8-.7-1.5-1.7-1.5Z" fill="#fff"/>
</svg>