<svg width="40" height="40" viewBox="0 0 40 40" fill="none" xmlns="http://www.w3.org/2000/svg">
<g clip-path="url(#clip0_433_110)">
<rect y="8" width="36" height="24" fill="#2D3035"/>
<path d="M18.5699 12.9994C18.5699 12.1543 17.8998 11.457 16.8507 11.457H15.6264C15.4739 11.457 15.3496 11.58 15.3496 11.7309V14.4059C15.3496 14.5569 15.4739 14.6799 15.6264 14.6799H16.8507C17.8998 14.6799 18.5699 13.9268 18.5699 13.0002V12.9994Z" fill="white"/>
<path d="M27.0075 17.0469C28.6031 17.0469 29.7505 15.7543 29.7505 14.218C29.7505 12.6817 28.6031 11.3876 27.0075 11.3876C25.4118 11.3876 24.2629 12.6809 24.2629 14.218C24.2629 15.7543 25.4103 17.0469 27.0075 17.0469Z" fill="white"/>
<path d="M9.11278 21.5855H10.8968C11.0492 21.5855 11.1727 21.7077 11.1727 21.8586V26.7906C11.1727 26.8608 11.2002 26.9287 11.249 26.98L12.7829 28.5548C12.8698 28.6454 13.0238 28.5842 13.0238 28.4597V21.8586C13.0238 21.7077 13.1473 21.5855 13.2998 21.5855H14.7529C14.8337 21.5855 14.9099 21.6202 14.9625 21.6806L19.0512 26.408C19.2174 26.6004 19.5361 26.4842 19.5361 26.2307V21.8586C19.5361 21.7077 19.6596 21.5855 19.8121 21.5855H21.5861C21.7386 21.5855 21.8621 21.7077 21.8621 21.8586V30.98C21.8621 31.131 21.7386 31.2532 21.5861 31.2532H20.1239C20.0438 31.2532 19.9676 31.2185 19.915 31.1581L15.834 26.4729C15.667 26.2812 15.3491 26.3982 15.3491 26.651V30.9778C15.3491 31.1294 15.2248 31.2524 15.0716 31.2524H14.4761C14.4014 31.2524 14.3305 31.223 14.2787 31.1702L0.678522 17.4911C0.429985 17.2413 0 17.4156 0 17.7665V35.2042C0 37.8528 2.16898 39.9996 4.84495 39.9996H35.1551C37.831 39.9996 40 37.8528 40 35.2042V5.66452C40 3.01593 37.831 0.869141 35.1551 0.869141H4.84495C2.16898 0.869141 0 3.01593 0 5.66452V14.6426C0 15.3104 0.264547 15.9518 0.737225 16.4279L8.60198 24.3608C8.68813 24.4476 8.83679 24.3872 8.83679 24.2658V21.8579C8.83679 21.707 8.9603 21.5847 9.11278 21.5847V21.5855ZM31.3485 23.887H28.6481C28.4956 23.887 28.3721 24.0092 28.3721 24.1601V30.98C28.3721 31.131 28.2486 31.2532 28.0961 31.2532H26.3221C26.1696 31.2532 26.0461 31.131 26.0461 30.98V24.1601C26.0461 24.0092 25.9226 23.887 25.7701 23.887H23.0659C22.9135 23.887 22.7899 23.7647 22.7899 23.6138V21.8579C22.7899 21.707 22.9135 21.5847 23.0659 21.5847H31.3477C31.5002 21.5847 31.6237 21.707 31.6237 21.8579V23.6138C31.6237 23.7647 31.5002 23.887 31.3477 23.887H31.3485ZM27.0082 9.13107C29.9983 9.13107 32.0964 11.3722 32.0964 14.2177C32.0964 17.0633 29.9991 19.3029 27.0082 19.3029C24.0174 19.3029 21.9345 17.0602 21.9345 14.2177C21.9345 11.3752 24.0319 9.13107 27.0082 9.13107ZM16.9051 9.61552C19.3813 9.61552 20.9328 10.8885 20.9328 13.0059C20.9328 15.1232 19.3112 16.5207 16.7092 16.5207H15.6243C15.4718 16.5207 15.3483 16.643 15.3483 16.7939V18.9927C15.3483 19.1436 15.2248 19.2659 15.0723 19.2659H13.2983C13.1458 19.2659 13.0223 19.1436 13.0223 18.9927V9.88943C13.0223 9.73776 13.1466 9.61552 13.299 9.61552H16.9051ZM9.11278 9.61552H10.8876C11.0401 9.61552 11.1636 9.73776 11.1636 9.88868V18.9935C11.1636 19.1444 11.0401 19.2666 10.8876 19.2666H9.11278C8.9603 19.2666 8.83679 19.1444 8.83679 18.9935V9.88868C8.83679 9.73776 8.9603 9.61552 9.11278 9.61552Z" fill="white"/>
</g>
<defs>
<clipPath id="clip0_433_110">
<rect width="40" height="40" fill="white"/>
</clipPath>
</defs>
</svg>
